%TF.GenerationSoftware,KiCad,Pcbnew,8.0.7*%
%TF.CreationDate,2024-12-10T19:07:15+08:00*%
%TF.ProjectId,RangkaianOpAmp,52616e67-6b61-4696-916e-4f70416d702e,rev?*%
%TF.SameCoordinates,Original*%
%TF.FileFunction,Profile,NP*%
%FSLAX46Y46*%
G04 Gerber Fmt 4.6, Leading zero omitted, Abs format (unit mm)*
G04 Created by KiCad (PCBNEW 8.0.7) date 2024-12-10 19:07:15*
%MOMM*%
%LPD*%
G01*
G04 APERTURE LIST*
%TA.AperFunction,Profile*%
%ADD10C,0.100000*%
%TD*%
G04 APERTURE END LIST*
D10*
X238353600Y-126948059D02*
X235353600Y-126948059D01*
X238302800Y-62180341D02*
X235302800Y-62180341D01*
X86029800Y-62179200D02*
X89029800Y-62179200D01*
X86029800Y-126948059D02*
X89029800Y-126948059D01*
X94538800Y-53136800D02*
X86029800Y-53136800D01*
X219100400Y-38989000D02*
X107111800Y-38989000D01*
X238404400Y-53136800D02*
X231673400Y-53136800D01*
X219100400Y-38989000D02*
G75*
G02*
X227152200Y-47040800I0J-8051800D01*
G01*
X231673400Y-53136800D02*
G75*
G02*
X227152200Y-48615600I0J4521200D01*
G01*
X227152200Y-47040800D02*
X227152200Y-48615600D01*
X99060000Y-47040800D02*
X99060000Y-48615600D01*
X99060000Y-48615600D02*
G75*
G02*
X94538800Y-53136800I-4521200J0D01*
G01*
X99060000Y-47040800D02*
G75*
G02*
X107111800Y-38989000I8051800J0D01*
G01*
X89029800Y-126948059D02*
X89029800Y-62179200D01*
X85928200Y-135991600D02*
X238252000Y-135991600D01*
X235353600Y-126948059D02*
X235302800Y-62180341D01*
X85928200Y-135991600D02*
G75*
G02*
X86029800Y-126948059I101600J4521200D01*
G01*
X238353600Y-126948059D02*
G75*
G02*
X238252000Y-135991600I-101600J-4521200D01*
G01*
X238404400Y-53136800D02*
G75*
G02*
X238302800Y-62180341I-101600J-4521200D01*
G01*
X86029800Y-62179200D02*
G75*
G02*
X86029800Y-53136800I0J4521200D01*
G01*
M02*
