%TF.GenerationSoftware,KiCad,Pcbnew,8.0.7*%
%TF.CreationDate,2024-12-10T19:07:15+08:00*%
%TF.ProjectId,RangkaianOpAmp,52616e67-6b61-4696-916e-4f70416d702e,rev?*%
%TF.SameCoordinates,Original*%
%TF.FileFunction,Paste,Bot*%
%TF.FilePolarity,Positive*%
%FSLAX46Y46*%
G04 Gerber Fmt 4.6, Leading zero omitted, Abs format (unit mm)*
G04 Created by KiCad (PCBNEW 8.0.7) date 2024-12-10 19:07:15*
%MOMM*%
%LPD*%
G01*
G04 APERTURE LIST*
G04 Aperture macros list*
%AMRoundRect*
0 Rectangle with rounded corners*
0 $1 Rounding radius*
0 $2 $3 $4 $5 $6 $7 $8 $9 X,Y pos of 4 corners*
0 Add a 4 corners polygon primitive as box body*
4,1,4,$2,$3,$4,$5,$6,$7,$8,$9,$2,$3,0*
0 Add four circle primitives for the rounded corners*
1,1,$1+$1,$2,$3*
1,1,$1+$1,$4,$5*
1,1,$1+$1,$6,$7*
1,1,$1+$1,$8,$9*
0 Add four rect primitives between the rounded corners*
20,1,$1+$1,$2,$3,$4,$5,0*
20,1,$1+$1,$4,$5,$6,$7,0*
20,1,$1+$1,$6,$7,$8,$9,0*
20,1,$1+$1,$8,$9,$2,$3,0*%
G04 Aperture macros list end*
%ADD10RoundRect,0.250000X0.262500X0.450000X-0.262500X0.450000X-0.262500X-0.450000X0.262500X-0.450000X0*%
%ADD11RoundRect,0.250000X0.450000X-0.262500X0.450000X0.262500X-0.450000X0.262500X-0.450000X-0.262500X0*%
%ADD12RoundRect,0.250000X-0.262500X-0.450000X0.262500X-0.450000X0.262500X0.450000X-0.262500X0.450000X0*%
%ADD13RoundRect,0.150000X0.825000X0.150000X-0.825000X0.150000X-0.825000X-0.150000X0.825000X-0.150000X0*%
%ADD14RoundRect,0.250000X-0.475000X0.250000X-0.475000X-0.250000X0.475000X-0.250000X0.475000X0.250000X0*%
%ADD15RoundRect,0.250000X-0.450000X0.262500X-0.450000X-0.262500X0.450000X-0.262500X0.450000X0.262500X0*%
%ADD16RoundRect,0.250000X-0.250000X-0.475000X0.250000X-0.475000X0.250000X0.475000X-0.250000X0.475000X0*%
%ADD17RoundRect,0.250000X0.250000X0.475000X-0.250000X0.475000X-0.250000X-0.475000X0.250000X-0.475000X0*%
G04 APERTURE END LIST*
D10*
%TO.C,R21*%
X199682100Y-113586000D03*
X197857100Y-113586000D03*
%TD*%
D11*
%TO.C,R8*%
X123604775Y-71327045D03*
X123604775Y-69502045D03*
%TD*%
%TO.C,R9*%
X123604775Y-74701445D03*
X123604775Y-72876445D03*
%TD*%
D10*
%TO.C,R20*%
X221905200Y-107111800D03*
X220080200Y-107111800D03*
%TD*%
D12*
%TO.C,R14*%
X112610375Y-71657245D03*
X114435375Y-71657245D03*
%TD*%
%TO.C,R7*%
X160666775Y-114201690D03*
X162491775Y-114201690D03*
%TD*%
D11*
%TO.C,R23*%
X196126100Y-112388400D03*
X196126100Y-110563400D03*
%TD*%
D13*
%TO.C,U7*%
X198299300Y-108026200D03*
X198299300Y-109296200D03*
X198299300Y-110566200D03*
X198299300Y-111836200D03*
X203249300Y-111836200D03*
X203249300Y-110566200D03*
X203249300Y-109296200D03*
X203249300Y-108026200D03*
%TD*%
%TO.C,U1*%
X162016175Y-108653090D03*
X162016175Y-109923090D03*
X162016175Y-111193090D03*
X162016175Y-112463090D03*
X157066175Y-112463090D03*
X157066175Y-111193090D03*
X157066175Y-109923090D03*
X157066175Y-108653090D03*
%TD*%
D12*
%TO.C,R1*%
X153248075Y-113305890D03*
X155073075Y-113305890D03*
%TD*%
%TO.C,R18*%
X171528059Y-68096580D03*
X173353059Y-68096580D03*
%TD*%
D13*
%TO.C,U2*%
X121413875Y-68979045D03*
X121413875Y-70249045D03*
X121413875Y-71519045D03*
X121413875Y-72789045D03*
X116463875Y-72789045D03*
X116463875Y-71519045D03*
X116463875Y-70249045D03*
X116463875Y-68979045D03*
%TD*%
D14*
%TO.C,C1*%
X219426546Y-68780159D03*
X219426546Y-70680159D03*
%TD*%
D12*
%TO.C,R2*%
X153248075Y-111356890D03*
X155073075Y-111356890D03*
%TD*%
D10*
%TO.C,R13*%
X114439275Y-73587645D03*
X112614275Y-73587645D03*
%TD*%
D15*
%TO.C,R19*%
X194221100Y-110563400D03*
X194221100Y-112388400D03*
%TD*%
D12*
%TO.C,R10*%
X120052575Y-74527445D03*
X121877575Y-74527445D03*
%TD*%
D10*
%TO.C,R16*%
X176727459Y-69315780D03*
X174902459Y-69315780D03*
%TD*%
D13*
%TO.C,U3*%
X172907059Y-69837980D03*
X172907059Y-71107980D03*
X172907059Y-72377980D03*
X172907059Y-73647980D03*
X167957059Y-73647980D03*
X167957059Y-72377980D03*
X167957059Y-71107980D03*
X167957059Y-69837980D03*
%TD*%
%TO.C,U5*%
X218057500Y-108026200D03*
X218057500Y-109296200D03*
X218057500Y-110566200D03*
X218057500Y-111836200D03*
X213107500Y-111836200D03*
X213107500Y-110566200D03*
X213107500Y-109296200D03*
X213107500Y-108026200D03*
%TD*%
D10*
%TO.C,R22*%
X221048346Y-67078359D03*
X219223346Y-67078359D03*
%TD*%
D11*
%TO.C,R4*%
X164218975Y-107773590D03*
X164218975Y-105948590D03*
%TD*%
D13*
%TO.C,U4*%
X217227946Y-67549759D03*
X217227946Y-68819759D03*
X217227946Y-70089759D03*
X217227946Y-71359759D03*
X212277946Y-71359759D03*
X212277946Y-70089759D03*
X212277946Y-68819759D03*
X212277946Y-67549759D03*
%TD*%
D16*
%TO.C,C2*%
X220027500Y-109042200D03*
X221927500Y-109042200D03*
%TD*%
D12*
%TO.C,R17*%
X174902459Y-71220780D03*
X176727459Y-71220780D03*
%TD*%
D13*
%TO.C,U6*%
X205704900Y-108026200D03*
X205704900Y-109296200D03*
X205704900Y-110566200D03*
X205704900Y-111836200D03*
X210654900Y-111836200D03*
X210654900Y-110566200D03*
X210654900Y-109296200D03*
X210654900Y-108026200D03*
%TD*%
D10*
%TO.C,R15*%
X174746259Y-75411780D03*
X172921259Y-75411780D03*
%TD*%
D11*
%TO.C,R6*%
X164218975Y-114479190D03*
X164218975Y-112654190D03*
%TD*%
%TO.C,R5*%
X164244375Y-111128290D03*
X164244375Y-109303290D03*
%TD*%
D10*
%TO.C,R12*%
X171371859Y-75411780D03*
X169546859Y-75411780D03*
%TD*%
D17*
%TO.C,C3*%
X208948100Y-113614200D03*
X207048100Y-113614200D03*
%TD*%
D10*
%TO.C,R11*%
X167972059Y-75411780D03*
X166147059Y-75411780D03*
%TD*%
%TO.C,R3*%
X162466375Y-106911890D03*
X160641375Y-106911890D03*
%TD*%
M02*
