%TF.GenerationSoftware,KiCad,Pcbnew,8.0.7*%
%TF.CreationDate,2024-12-10T19:07:15+08:00*%
%TF.ProjectId,RangkaianOpAmp,52616e67-6b61-4696-916e-4f70416d702e,rev?*%
%TF.SameCoordinates,Original*%
%TF.FileFunction,Copper,L1,Top*%
%TF.FilePolarity,Positive*%
%FSLAX46Y46*%
G04 Gerber Fmt 4.6, Leading zero omitted, Abs format (unit mm)*
G04 Created by KiCad (PCBNEW 8.0.7) date 2024-12-10 19:07:15*
%MOMM*%
%LPD*%
G01*
G04 APERTURE LIST*
%TA.AperFunction,ComponentPad*%
%ADD10C,10.160000*%
%TD*%
%TA.AperFunction,ComponentPad*%
%ADD11C,0.800000*%
%TD*%
%TA.AperFunction,ComponentPad*%
%ADD12C,6.400000*%
%TD*%
%TA.AperFunction,ComponentPad*%
%ADD13R,1.700000X1.700000*%
%TD*%
%TA.AperFunction,ComponentPad*%
%ADD14O,1.700000X1.700000*%
%TD*%
%TA.AperFunction,ViaPad*%
%ADD15C,0.800000*%
%TD*%
%TA.AperFunction,Conductor*%
%ADD16C,0.400000*%
%TD*%
%TA.AperFunction,Conductor*%
%ADD17C,1.200000*%
%TD*%
%TA.AperFunction,Conductor*%
%ADD18C,0.800000*%
%TD*%
G04 APERTURE END LIST*
D10*
%TO.P,J10,1,Pin_1*%
%TO.N,GND*%
X123113472Y-47040800D03*
%TD*%
%TO.P,J9,1,Pin_1*%
%TO.N,GND*%
X163113472Y-47040800D03*
%TD*%
D11*
%TO.P,H1,1,1*%
%TO.N,GND*%
X83621844Y-57653256D03*
X84324788Y-55956200D03*
X84324788Y-59350312D03*
X86021844Y-55253256D03*
D12*
X86021844Y-57653256D03*
D11*
X86021844Y-60053256D03*
X87718900Y-55956200D03*
X87718900Y-59350312D03*
X88421844Y-57653256D03*
%TD*%
%TO.P,H3,1,1*%
%TO.N,GND*%
X240618944Y-131491056D03*
X239916000Y-133188112D03*
X239916000Y-129794000D03*
X238218944Y-133891056D03*
D12*
X238218944Y-131491056D03*
D11*
X238218944Y-129091056D03*
X236521888Y-133188112D03*
X236521888Y-129794000D03*
X235818944Y-131491056D03*
%TD*%
D13*
%TO.P,J13,1,Pin_1*%
%TO.N,+12V*%
X121780300Y-93140050D03*
D14*
%TO.P,J13,2,Pin_2*%
%TO.N,/+12V_INV*%
X124320300Y-93140050D03*
%TO.P,J13,3,Pin_3*%
%TO.N,+12V*%
X121780300Y-95680050D03*
%TO.P,J13,4,Pin_4*%
%TO.N,/+12V_NON_INV*%
X124320300Y-95680050D03*
%TO.P,J13,5,Pin_5*%
%TO.N,+12V*%
X121780300Y-98220050D03*
%TO.P,J13,6,Pin_6*%
%TO.N,/+12V_SUM*%
X124320300Y-98220050D03*
%TO.P,J13,7,Pin_7*%
%TO.N,+12V*%
X121780300Y-100760050D03*
%TO.P,J13,8,Pin_8*%
%TO.N,/+12V_INT*%
X124320300Y-100760050D03*
%TO.P,J13,9,Pin_9*%
%TO.N,+12V*%
X121780300Y-103300050D03*
%TO.P,J13,10,Pin_10*%
%TO.N,/+12V_OSC*%
X124320300Y-103300050D03*
%TD*%
D13*
%TO.P,J7,1,Pin_1*%
%TO.N,/IN_SEL*%
X100845700Y-113605650D03*
D14*
%TO.P,J7,2,Pin_2*%
%TO.N,unconnected-(J7-Pin_2-Pad2)*%
X103385700Y-113605650D03*
%TO.P,J7,3,Pin_3*%
%TO.N,/IN_SEL*%
X100845700Y-116145650D03*
%TO.P,J7,4,Pin_4*%
%TO.N,/IN_INT*%
X103385700Y-116145650D03*
%TO.P,J7,5,Pin_5*%
%TO.N,/IN_SEL*%
X100845700Y-118685650D03*
%TO.P,J7,6,Pin_6*%
%TO.N,/IN_SUM*%
X103385700Y-118685650D03*
%TD*%
%TO.P,J3,8,Pin_8*%
%TO.N,/NON_INV_SEL*%
X177990500Y-91948000D03*
%TO.P,J3,7,Pin_7*%
%TO.N,/D_NON_INV*%
X177990500Y-94488000D03*
%TO.P,J3,6,Pin_6*%
%TO.N,/NON_INV_SEL*%
X175450500Y-91948000D03*
%TO.P,J3,5,Pin_5*%
%TO.N,/C_NON_INV*%
X175450500Y-94488000D03*
%TO.P,J3,4,Pin_4*%
%TO.N,/NON_INV_SEL*%
X172910500Y-91948000D03*
%TO.P,J3,3,Pin_3*%
%TO.N,/B_NON_INV*%
X172910500Y-94488000D03*
%TO.P,J3,2,Pin_2*%
%TO.N,/NON_INV_SEL*%
X170370500Y-91948000D03*
D13*
%TO.P,J3,1,Pin_1*%
%TO.N,/A_NON_INV*%
X170370500Y-94488000D03*
%TD*%
%TO.P,J6,1,Pin_1*%
%TO.N,/A_SUM*%
X193052700Y-56489600D03*
D14*
%TO.P,J6,2,Pin_2*%
%TO.N,/SUM_SEL*%
X195592700Y-56489600D03*
%TO.P,J6,3,Pin_3*%
%TO.N,/B_SUM*%
X193052700Y-59029600D03*
%TO.P,J6,4,Pin_4*%
%TO.N,/SUM_SEL*%
X195592700Y-59029600D03*
%TD*%
D11*
%TO.P,H2,1,1*%
%TO.N,GND*%
X88409144Y-131491056D03*
X87706200Y-133188112D03*
X87706200Y-129794000D03*
X86009144Y-133891056D03*
D12*
X86009144Y-131491056D03*
D11*
X86009144Y-129091056D03*
X84312088Y-133188112D03*
X84312088Y-129794000D03*
X83609144Y-131491056D03*
%TD*%
D13*
%TO.P,J5,1,Pin_1*%
%TO.N,/OUT_SEL*%
X100845700Y-93145050D03*
D14*
%TO.P,J5,2,Pin_2*%
%TO.N,/OUT_INV*%
X103385700Y-93145050D03*
%TO.P,J5,3,Pin_3*%
%TO.N,/OUT_SEL*%
X100845700Y-95685050D03*
%TO.P,J5,4,Pin_4*%
%TO.N,/OUT_NON_INV*%
X103385700Y-95685050D03*
%TO.P,J5,5,Pin_5*%
%TO.N,/OUT_SEL*%
X100845700Y-98225050D03*
%TO.P,J5,6,Pin_6*%
%TO.N,/OUT_SUM*%
X103385700Y-98225050D03*
%TO.P,J5,7,Pin_7*%
%TO.N,/OUT_SEL*%
X100845700Y-100765050D03*
%TO.P,J5,8,Pin_8*%
%TO.N,/OUT_INT*%
X103385700Y-100765050D03*
%TO.P,J5,9,Pin_9*%
%TO.N,/OUT_SEL*%
X100845700Y-103305050D03*
%TO.P,J5,10,Pin_10*%
%TO.N,/OUT_OSC*%
X103385700Y-103305050D03*
%TD*%
D13*
%TO.P,J4,1,Pin_1*%
%TO.N,/A_INV*%
X143040100Y-58902600D03*
D14*
%TO.P,J4,2,Pin_2*%
%TO.N,/INV_SEL*%
X140500100Y-58902600D03*
%TO.P,J4,3,Pin_3*%
%TO.N,/B_INV*%
X143040100Y-56362600D03*
%TO.P,J4,4,Pin_4*%
%TO.N,/INV_SEL*%
X140500100Y-56362600D03*
%TD*%
D10*
%TO.P,J11,1,Pin_1*%
%TO.N,+12V*%
X147113472Y-47040800D03*
%TD*%
%TO.P,J1,1,Pin_1*%
%TO.N,/IN*%
X107113472Y-47040800D03*
%TD*%
%TO.P,J8,1,Pin_1*%
%TO.N,-12V*%
X179113472Y-47040800D03*
%TD*%
D13*
%TO.P,J14,1,Pin_1*%
%TO.N,-12V*%
X121958100Y-110950800D03*
D14*
%TO.P,J14,2,Pin_2*%
%TO.N,/-12V_INV*%
X124498100Y-110950800D03*
%TO.P,J14,3,Pin_3*%
%TO.N,-12V*%
X121958100Y-113490800D03*
%TO.P,J14,4,Pin_4*%
%TO.N,/-12V_NON_INV*%
X124498100Y-113490800D03*
%TO.P,J14,5,Pin_5*%
%TO.N,-12V*%
X121958100Y-116030800D03*
%TO.P,J14,6,Pin_6*%
%TO.N,/-12V_SUM*%
X124498100Y-116030800D03*
%TO.P,J14,7,Pin_7*%
%TO.N,-12V*%
X121958100Y-118570800D03*
%TO.P,J14,8,Pin_8*%
%TO.N,/-12V_INT*%
X124498100Y-118570800D03*
%TO.P,J14,9,Pin_9*%
%TO.N,-12V*%
X121958100Y-121110800D03*
%TO.P,J14,10,Pin_10*%
%TO.N,/-12V_OSC*%
X124498100Y-121110800D03*
%TD*%
D10*
%TO.P,J2,1,Pin_1*%
%TO.N,/OUT*%
X203113472Y-47040800D03*
%TD*%
%TO.P,J12,1,Pin_1*%
%TO.N,GND*%
X219113472Y-47040800D03*
%TD*%
D11*
%TO.P,H4,1,1*%
%TO.N,GND*%
X235839300Y-57653256D03*
X236542244Y-55956200D03*
X236542244Y-59350312D03*
X238239300Y-55253256D03*
D12*
X238239300Y-57653256D03*
D11*
X238239300Y-60053256D03*
X239936356Y-55956200D03*
X239936356Y-59350312D03*
X240639300Y-57653256D03*
%TD*%
D15*
%TO.N,GND*%
X178054000Y-73380600D03*
X114503200Y-77012800D03*
X113703100Y-77812900D03*
X112852200Y-78536800D03*
X119507000Y-72009000D03*
X205409800Y-106400600D03*
X201345800Y-111074200D03*
%TO.N,Net-(U6--)*%
X209677000Y-106400600D03*
X208940400Y-113588800D03*
%TO.N,GND*%
X219405200Y-112928400D03*
X216712800Y-105359200D03*
X208788000Y-110464600D03*
X187071000Y-67564000D03*
X190830200Y-62738000D03*
X189763400Y-63423800D03*
%TO.N,/B_SUM*%
X184810400Y-67513200D03*
X172923200Y-75412600D03*
%TO.N,GND*%
X202184000Y-106172000D03*
X171704000Y-98552000D03*
X176784000Y-98552000D03*
X174244000Y-98806000D03*
X167132000Y-109220000D03*
X166878000Y-113030000D03*
X170688000Y-109982000D03*
X174244000Y-106426000D03*
X169926000Y-107188000D03*
X172720000Y-104648000D03*
X169926000Y-103632000D03*
X168148000Y-105410000D03*
X107442000Y-97028000D03*
X130302000Y-87630000D03*
X124714000Y-87884000D03*
X119380000Y-88900000D03*
X144780000Y-60960000D03*
X132080000Y-73660000D03*
X134620000Y-71120000D03*
X139700000Y-66040000D03*
X137160000Y-68580000D03*
%TO.N,-12V*%
X113055400Y-89077800D03*
X130352800Y-80340200D03*
X144526000Y-82778600D03*
X158724600Y-61188600D03*
X111734600Y-88544400D03*
X130911600Y-78689200D03*
X143687800Y-81407000D03*
X158699200Y-59613800D03*
%TO.N,+12V*%
X121780300Y-84569300D03*
X123545600Y-82804000D03*
%TO.N,/IN*%
X91465400Y-98907600D03*
%TO.N,/OUT*%
X136880600Y-63068200D03*
%TO.N,/IN_SUM*%
X173507400Y-65405000D03*
%TO.N,/OUT_NON_INV*%
X155117800Y-111277400D03*
X161925000Y-103225600D03*
X163576000Y-96697800D03*
X133159500Y-87337900D03*
%TO.N,/OUT_INV*%
X114435375Y-71657245D03*
%TO.N,/OUT_SUM*%
X159943800Y-76352400D03*
%TO.N,/OUT_INT*%
X219481400Y-70713600D03*
%TO.N,/NON_INV_SEL*%
X166166800Y-103149400D03*
X159791400Y-110667800D03*
%TO.N,/+12V_NON_INV*%
X159613600Y-97282000D03*
X158953200Y-104648000D03*
X158953200Y-109575600D03*
X160604200Y-98094800D03*
%TO.N,/+12V_INV*%
X120777000Y-65278000D03*
X127381000Y-68757800D03*
%TO.N,/+12V_SUM*%
X164490400Y-72085200D03*
X162877500Y-80759300D03*
X166147059Y-75411780D03*
X163703000Y-79933800D03*
%TO.N,/+12V_INT*%
X209016600Y-68961000D03*
%TO.N,/+12V_OSC*%
X215233993Y-104597200D03*
X215544400Y-108737400D03*
%TO.N,/-12V_INV*%
X117932200Y-77241400D03*
X118668800Y-76504800D03*
%TO.N,/-12V_NON_INV*%
X157276800Y-115773200D03*
X158623000Y-115773200D03*
%TO.N,/-12V_INT*%
X215071200Y-70866000D03*
%TO.N,/-12V_OSC*%
X217373200Y-113173000D03*
X212064600Y-114046000D03*
X204038200Y-113233200D03*
%TO.N,/OUT_OSC*%
X206959200Y-113588800D03*
X199669400Y-113588800D03*
%TO.N,Net-(U5--)*%
X194233800Y-112420400D03*
X220027500Y-109042200D03*
%TO.N,/OUT_SUM*%
X176733200Y-71247000D03*
X170586400Y-73482200D03*
%TO.N,/INV_SEL*%
X114450775Y-73663845D03*
%TD*%
D16*
%TO.N,GND*%
X114503200Y-77012800D02*
X113703100Y-77812900D01*
X113703100Y-77812900D02*
X112979200Y-78536800D01*
X112979200Y-78536800D02*
X112852200Y-78536800D01*
X119507000Y-72009000D02*
X114503200Y-77012800D01*
X208788000Y-109778800D02*
X208788000Y-110464600D01*
X205409800Y-106400600D02*
X208788000Y-109778800D01*
%TO.N,Net-(U6--)*%
X210718400Y-111810800D02*
X208940400Y-113588800D01*
X210718400Y-107442000D02*
X210718400Y-111810800D01*
X209677000Y-106400600D02*
X210718400Y-107442000D01*
%TO.N,Net-(U5--)*%
X220675200Y-109689900D02*
X220027500Y-109042200D01*
X218033600Y-115925600D02*
X220675200Y-113284000D01*
X220675200Y-113284000D02*
X220675200Y-109689900D01*
X195351400Y-115925600D02*
X218033600Y-115925600D01*
X194233800Y-114808000D02*
X195351400Y-115925600D01*
X194233800Y-112420400D02*
X194233800Y-114808000D01*
%TO.N,/-12V_OSC*%
X215646000Y-102641400D02*
X214884000Y-102641400D01*
X218186000Y-110515400D02*
X218186000Y-105181400D01*
X217373200Y-111328200D02*
X218186000Y-110515400D01*
X217373200Y-113173000D02*
X217373200Y-111328200D01*
X218186000Y-105181400D02*
X215646000Y-102641400D01*
%TO.N,/B_SUM*%
X184810400Y-70688200D02*
X184810400Y-67513200D01*
X180086000Y-75412600D02*
X184810400Y-70688200D01*
X172923200Y-75412600D02*
X180086000Y-75412600D01*
D17*
%TO.N,-12V*%
X119358200Y-110950800D02*
X121958100Y-110950800D01*
X113055400Y-104648000D02*
X119358200Y-110950800D01*
X113055400Y-89077800D02*
X113055400Y-104648000D01*
X119612200Y-113490800D02*
X121958100Y-113490800D01*
X111734600Y-105613200D02*
X119612200Y-113490800D01*
X111734600Y-88544400D02*
X111734600Y-105613200D01*
X132791200Y-82778600D02*
X130352800Y-80340200D01*
X144526000Y-82778600D02*
X132791200Y-82778600D01*
X179113472Y-49283328D02*
X167208200Y-61188600D01*
X179113472Y-47040800D02*
X179113472Y-49283328D01*
X167208200Y-61188600D02*
X158724600Y-61188600D01*
D16*
%TO.N,/OUT_INT*%
X104321050Y-100765050D02*
X103385700Y-100765050D01*
X107645200Y-104089200D02*
X104321050Y-100765050D01*
X113817400Y-127101600D02*
X107645200Y-120929400D01*
X107645200Y-120929400D02*
X107645200Y-104089200D01*
X213817200Y-127101600D02*
X113817400Y-127101600D01*
X227533200Y-77266800D02*
X227533200Y-113385600D01*
X220980000Y-70713600D02*
X227533200Y-77266800D01*
X227533200Y-113385600D02*
X213817200Y-127101600D01*
X219481400Y-70713600D02*
X220980000Y-70713600D01*
D17*
%TO.N,-12V*%
X133629400Y-81407000D02*
X130911600Y-78689200D01*
X143687800Y-81407000D02*
X133629400Y-81407000D01*
X166540472Y-59613800D02*
X158699200Y-59613800D01*
X179113472Y-47040800D02*
X166540472Y-59613800D01*
%TO.N,+12V*%
X121780300Y-84569300D02*
X121780300Y-93140050D01*
X121780300Y-84569300D02*
X123545600Y-82804000D01*
D16*
%TO.N,/IN*%
X96672400Y-71043800D02*
X107113472Y-60602728D01*
X96672400Y-93700600D02*
X96672400Y-71043800D01*
X107113472Y-60602728D02*
X107113472Y-47040800D01*
X91465400Y-98907600D02*
X96672400Y-93700600D01*
%TO.N,/OUT*%
X196189600Y-47040800D02*
X203113472Y-47040800D01*
X180162200Y-63068200D02*
X196189600Y-47040800D01*
X136880600Y-63068200D02*
X180162200Y-63068200D01*
D18*
%TO.N,/IN_SUM*%
X220573600Y-65405000D02*
X173507400Y-65405000D01*
X231368600Y-76200000D02*
X220573600Y-65405000D01*
X231368600Y-119456200D02*
X231368600Y-76200000D01*
X230225600Y-119456200D02*
X231368600Y-119456200D01*
X108762800Y-132791200D02*
X108915200Y-132943600D01*
X108915200Y-132943600D02*
X216738200Y-132943600D01*
X216738200Y-132943600D02*
X230225600Y-119456200D01*
X103385700Y-127414100D02*
X108762800Y-132791200D01*
X103385700Y-118685650D02*
X103385700Y-127414100D01*
D16*
%TO.N,/OUT_NON_INV*%
X155117800Y-105181400D02*
X155117800Y-111277400D01*
X161925000Y-103225600D02*
X157073600Y-103225600D01*
X157073600Y-103225600D02*
X155117800Y-105181400D01*
%TO.N,/+12V_NON_INV*%
X158953200Y-109575600D02*
X158953200Y-104648000D01*
%TO.N,/OUT_NON_INV*%
X159740600Y-92862400D02*
X163576000Y-96697800D01*
X159004000Y-92862400D02*
X159740600Y-92862400D01*
X138684000Y-92862400D02*
X159004000Y-92862400D01*
X133159500Y-87337900D02*
X138684000Y-92862400D01*
%TO.N,/OUT_INV*%
X108254800Y-90652600D02*
X105762350Y-93145050D01*
X108254800Y-76174600D02*
X108254800Y-90652600D01*
X105762350Y-93145050D02*
X103385700Y-93145050D01*
X112772155Y-71657245D02*
X108254800Y-76174600D01*
X114435375Y-71657245D02*
X112772155Y-71657245D01*
%TO.N,/INV_SEL*%
X117703600Y-64668400D02*
X123469400Y-58902600D01*
X117703600Y-71551800D02*
X117703600Y-64668400D01*
X123469400Y-58902600D02*
X140500100Y-58902600D01*
X115591555Y-73663845D02*
X117703600Y-71551800D01*
X114450775Y-73663845D02*
X115591555Y-73663845D01*
%TO.N,/OUT_SUM*%
X176174400Y-70688200D02*
X176733200Y-71247000D01*
X162001200Y-70688200D02*
X176174400Y-70688200D01*
X161315400Y-71374000D02*
X162001200Y-70688200D01*
X161315400Y-74980800D02*
X161315400Y-71374000D01*
X159943800Y-76352400D02*
X161315400Y-74980800D01*
%TO.N,/NON_INV_SEL*%
X166166800Y-105968800D02*
X166166800Y-103149400D01*
X163957000Y-108178600D02*
X166166800Y-105968800D01*
X161467800Y-110667800D02*
X163957000Y-108178600D01*
X159791400Y-110667800D02*
X161467800Y-110667800D01*
D17*
%TO.N,/+12V_NON_INV*%
X158189450Y-95680050D02*
X124320300Y-95680050D01*
X160604200Y-98094800D02*
X158189450Y-95680050D01*
%TO.N,/+12V_INV*%
X120777000Y-65278000D02*
X120726200Y-65278000D01*
X127457200Y-67818000D02*
X124917200Y-65278000D01*
X127457200Y-90003150D02*
X127457200Y-67818000D01*
X124917200Y-65278000D02*
X120777000Y-65278000D01*
X124320300Y-93140050D02*
X127457200Y-90003150D01*
D16*
%TO.N,/+12V_SUM*%
X162877500Y-73698100D02*
X162877500Y-80759300D01*
X164490400Y-72085200D02*
X162877500Y-73698100D01*
X166147059Y-77489741D02*
X163703000Y-79933800D01*
X166147059Y-75411780D02*
X166147059Y-77489741D01*
D17*
%TO.N,/+12V_INT*%
X209016600Y-77114400D02*
X209016600Y-68961000D01*
X185370950Y-100760050D02*
X209016600Y-77114400D01*
X124320300Y-100760050D02*
X185370950Y-100760050D01*
D16*
%TO.N,/+12V_OSC*%
X215417400Y-104780607D02*
X215417400Y-108610400D01*
X215417400Y-108610400D02*
X215544400Y-108737400D01*
X215233993Y-104597200D02*
X215417400Y-104780607D01*
D17*
%TO.N,/-12V_INV*%
X117932200Y-77241400D02*
X118668800Y-76504800D01*
X116230400Y-104698800D02*
X116230400Y-78943200D01*
X119227600Y-107696000D02*
X116230400Y-104698800D01*
X123647200Y-107696000D02*
X119227600Y-107696000D01*
X124498100Y-108546900D02*
X123647200Y-107696000D01*
X116230400Y-78943200D02*
X117932200Y-77241400D01*
X124498100Y-110950800D02*
X124498100Y-108546900D01*
%TO.N,/-12V_NON_INV*%
X157276800Y-115773200D02*
X158623000Y-115773200D01*
X153111200Y-115773200D02*
X157276800Y-115773200D01*
X153085800Y-115798600D02*
X153111200Y-115773200D01*
X152298400Y-115798600D02*
X153085800Y-115798600D01*
X149990600Y-113490800D02*
X152298400Y-115798600D01*
X124498100Y-113490800D02*
X149990600Y-113490800D01*
D16*
%TO.N,/-12V_INT*%
X215071200Y-70866000D02*
X215071200Y-73034400D01*
X215071200Y-73034400D02*
X217347800Y-75311000D01*
D17*
X217347800Y-78991858D02*
X217347800Y-75311000D01*
X177768858Y-118570800D02*
X217347800Y-78991858D01*
X124498100Y-118570800D02*
X177768858Y-118570800D01*
%TO.N,/-12V_OSC*%
X214884000Y-102641400D02*
X216001600Y-102641400D01*
X209550000Y-102641400D02*
X214884000Y-102641400D01*
D16*
X210566000Y-102641400D02*
X209550000Y-102641400D01*
X211988400Y-104063800D02*
X210566000Y-102641400D01*
X212064600Y-114046000D02*
X211988400Y-113969800D01*
X211988400Y-113969800D02*
X211988400Y-104063800D01*
D17*
X203149200Y-102641400D02*
X209550000Y-102641400D01*
D16*
X204038200Y-103530400D02*
X203149200Y-102641400D01*
X204038200Y-113233200D02*
X204038200Y-103530400D01*
D17*
X195961000Y-102641400D02*
X203149200Y-102641400D01*
X195402200Y-103200200D02*
X195961000Y-102641400D01*
X177491600Y-121110800D02*
X195402200Y-103200200D01*
X124498100Y-121110800D02*
X177491600Y-121110800D01*
D16*
%TO.N,/OUT_OSC*%
X205994000Y-114554000D02*
X206959200Y-113588800D01*
X200634600Y-114554000D02*
X205994000Y-114554000D01*
X199669400Y-113588800D02*
X200634600Y-114554000D01*
%TO.N,Net-(U5--)*%
X194233800Y-112420400D02*
X194233800Y-112471200D01*
%TO.N,/OUT_SUM*%
X176733200Y-72847200D02*
X176733200Y-71247000D01*
X176098200Y-73482200D02*
X176733200Y-72847200D01*
X170586400Y-73482200D02*
X176098200Y-73482200D01*
%TO.N,/INV_SEL*%
X140500100Y-56362600D02*
X140500100Y-58902600D01*
%TD*%
%TA.AperFunction,Conductor*%
%TO.N,GND*%
G36*
X214580897Y-103761585D02*
G01*
X214626652Y-103814389D01*
X214636596Y-103883547D01*
X214607571Y-103947103D01*
X214606008Y-103948872D01*
X214501459Y-104064985D01*
X214406814Y-104228915D01*
X214406811Y-104228922D01*
X214358061Y-104378960D01*
X214348319Y-104408944D01*
X214328533Y-104597200D01*
X214348319Y-104785456D01*
X214348320Y-104785459D01*
X214406811Y-104965477D01*
X214406814Y-104965484D01*
X214501460Y-105129416D01*
X214628122Y-105270088D01*
X214643594Y-105281329D01*
X214665785Y-105297452D01*
X214708451Y-105352781D01*
X214716900Y-105397770D01*
X214716900Y-108350463D01*
X214710831Y-108388781D01*
X214671450Y-108509985D01*
X214658726Y-108549144D01*
X214638940Y-108737400D01*
X214658726Y-108925656D01*
X214658727Y-108925659D01*
X214717218Y-109105677D01*
X214717221Y-109105684D01*
X214811867Y-109269616D01*
X214917870Y-109387344D01*
X214938529Y-109410288D01*
X215091665Y-109521548D01*
X215091670Y-109521551D01*
X215264592Y-109598542D01*
X215264597Y-109598544D01*
X215449754Y-109637900D01*
X215449755Y-109637900D01*
X215639044Y-109637900D01*
X215639046Y-109637900D01*
X215824203Y-109598544D01*
X215997130Y-109521551D01*
X216150271Y-109410288D01*
X216276933Y-109269616D01*
X216371579Y-109105684D01*
X216430074Y-108925656D01*
X216449860Y-108737400D01*
X216430074Y-108549144D01*
X216371579Y-108369116D01*
X216276933Y-108205184D01*
X216233247Y-108156666D01*
X216149750Y-108063932D01*
X216119520Y-108000940D01*
X216117900Y-107980960D01*
X216117900Y-104806800D01*
X216119459Y-104791969D01*
X216118987Y-104791920D01*
X216119666Y-104785458D01*
X216119667Y-104785456D01*
X216139453Y-104597200D01*
X216120655Y-104418352D01*
X216133224Y-104349627D01*
X216180956Y-104298603D01*
X216248696Y-104281485D01*
X216314938Y-104303707D01*
X216331657Y-104317714D01*
X217449181Y-105435237D01*
X217482666Y-105496560D01*
X217485500Y-105522918D01*
X217485500Y-110173880D01*
X217465815Y-110240919D01*
X217449181Y-110261561D01*
X216829088Y-110881653D01*
X216829087Y-110881654D01*
X216752423Y-110996392D01*
X216699621Y-111123868D01*
X216699618Y-111123880D01*
X216687220Y-111186209D01*
X216687220Y-111186210D01*
X216672700Y-111259204D01*
X216672700Y-112557608D01*
X216653015Y-112624647D01*
X216640856Y-112640574D01*
X216640668Y-112640782D01*
X216640664Y-112640787D01*
X216546021Y-112804715D01*
X216546018Y-112804722D01*
X216495245Y-112960987D01*
X216487526Y-112984744D01*
X216467740Y-113173000D01*
X216487526Y-113361256D01*
X216487527Y-113361259D01*
X216546018Y-113541277D01*
X216546020Y-113541281D01*
X216546021Y-113541284D01*
X216640667Y-113705216D01*
X216718237Y-113791366D01*
X216767329Y-113845888D01*
X216920465Y-113957148D01*
X216920470Y-113957151D01*
X217093392Y-114034142D01*
X217093397Y-114034144D01*
X217278554Y-114073500D01*
X217278555Y-114073500D01*
X217467844Y-114073500D01*
X217467846Y-114073500D01*
X217653003Y-114034144D01*
X217825930Y-113957151D01*
X217979071Y-113845888D01*
X218105733Y-113705216D01*
X218200379Y-113541284D01*
X218258874Y-113361256D01*
X218278660Y-113173000D01*
X218258874Y-112984744D01*
X218200379Y-112804716D01*
X218105733Y-112640784D01*
X218105544Y-112640574D01*
X218105473Y-112640427D01*
X218101914Y-112635528D01*
X218102810Y-112634876D01*
X218075319Y-112577580D01*
X218073700Y-112557608D01*
X218073700Y-111669719D01*
X218093385Y-111602680D01*
X218110019Y-111582038D01*
X218730112Y-110961945D01*
X218730114Y-110961943D01*
X218806775Y-110847211D01*
X218859580Y-110719728D01*
X218869909Y-110667800D01*
X218886500Y-110584396D01*
X218886500Y-109167247D01*
X218906185Y-109100208D01*
X218958989Y-109054453D01*
X219028147Y-109044509D01*
X219091703Y-109073534D01*
X219129477Y-109132312D01*
X219133819Y-109154279D01*
X219141826Y-109230456D01*
X219141827Y-109230459D01*
X219200318Y-109410477D01*
X219200321Y-109410484D01*
X219294967Y-109574416D01*
X219359762Y-109646378D01*
X219421629Y-109715088D01*
X219574765Y-109826348D01*
X219574770Y-109826351D01*
X219747691Y-109903342D01*
X219747693Y-109903342D01*
X219747697Y-109903344D01*
X219876484Y-109930718D01*
X219937962Y-109963909D01*
X219971739Y-110025072D01*
X219974700Y-110052007D01*
X219974700Y-112942481D01*
X219955015Y-113009520D01*
X219938381Y-113030162D01*
X217779762Y-115188781D01*
X217718439Y-115222266D01*
X217692081Y-115225100D01*
X206612920Y-115225100D01*
X206545881Y-115205415D01*
X206500126Y-115152611D01*
X206490182Y-115083453D01*
X206519207Y-115019897D01*
X206525239Y-115013419D01*
X206894514Y-114644143D01*
X207022175Y-114516481D01*
X207083496Y-114482998D01*
X207083562Y-114482983D01*
X207239003Y-114449944D01*
X207239007Y-114449942D01*
X207239008Y-114449942D01*
X207319111Y-114414277D01*
X207411930Y-114372951D01*
X207565071Y-114261688D01*
X207691733Y-114121016D01*
X207786379Y-113957084D01*
X207831869Y-113817080D01*
X207871306Y-113759405D01*
X207935665Y-113732207D01*
X208004511Y-113744122D01*
X208055987Y-113791366D01*
X208067731Y-113817081D01*
X208113218Y-113957078D01*
X208113221Y-113957084D01*
X208207867Y-114121016D01*
X208309829Y-114234256D01*
X208334529Y-114261688D01*
X208487665Y-114372948D01*
X208487670Y-114372951D01*
X208660592Y-114449942D01*
X208660597Y-114449944D01*
X208845754Y-114489300D01*
X208845755Y-114489300D01*
X209035044Y-114489300D01*
X209035046Y-114489300D01*
X209220203Y-114449944D01*
X209393130Y-114372951D01*
X209546271Y-114261688D01*
X209672933Y-114121016D01*
X209767579Y-113957084D01*
X209826074Y-113777056D01*
X209831264Y-113727669D01*
X209857847Y-113663058D01*
X209866894Y-113652961D01*
X211076220Y-112443635D01*
X211137542Y-112410152D01*
X211207234Y-112415136D01*
X211263167Y-112457008D01*
X211287584Y-112522472D01*
X211287900Y-112531318D01*
X211287900Y-113557057D01*
X211271287Y-113619057D01*
X211237421Y-113677714D01*
X211180305Y-113853500D01*
X211178926Y-113857744D01*
X211159140Y-114046000D01*
X211178926Y-114234256D01*
X211178927Y-114234259D01*
X211237418Y-114414277D01*
X211237421Y-114414284D01*
X211332067Y-114578216D01*
X211439904Y-114697981D01*
X211458729Y-114718888D01*
X211611865Y-114830148D01*
X211611870Y-114830151D01*
X211784792Y-114907142D01*
X211784797Y-114907144D01*
X211969954Y-114946500D01*
X211969955Y-114946500D01*
X212159244Y-114946500D01*
X212159246Y-114946500D01*
X212344403Y-114907144D01*
X212517330Y-114830151D01*
X212670471Y-114718888D01*
X212797133Y-114578216D01*
X212891779Y-114414284D01*
X212950274Y-114234256D01*
X212970060Y-114046000D01*
X212950274Y-113857744D01*
X212891779Y-113677716D01*
X212797133Y-113513784D01*
X212720750Y-113428952D01*
X212690520Y-113365961D01*
X212688900Y-113345980D01*
X212688900Y-103994804D01*
X212668071Y-103890092D01*
X212674298Y-103820500D01*
X212717161Y-103765323D01*
X212783051Y-103742078D01*
X212789688Y-103741900D01*
X214513858Y-103741900D01*
X214580897Y-103761585D01*
G37*
%TD.AperFunction*%
%TA.AperFunction,Conductor*%
G36*
X210691520Y-103761585D02*
G01*
X210712162Y-103778219D01*
X211251581Y-104317637D01*
X211285066Y-104378960D01*
X211287900Y-104405318D01*
X211287900Y-106721480D01*
X211268215Y-106788519D01*
X211215411Y-106834274D01*
X211146253Y-106844218D01*
X211082697Y-106815193D01*
X211076219Y-106809161D01*
X210603503Y-106336446D01*
X210570018Y-106275123D01*
X210567865Y-106261743D01*
X210562674Y-106212344D01*
X210549929Y-106173120D01*
X210504181Y-106032322D01*
X210504180Y-106032321D01*
X210504179Y-106032316D01*
X210409533Y-105868384D01*
X210282871Y-105727712D01*
X210282870Y-105727711D01*
X210129734Y-105616451D01*
X210129729Y-105616448D01*
X209956807Y-105539457D01*
X209956802Y-105539455D01*
X209811001Y-105508465D01*
X209771646Y-105500100D01*
X209582354Y-105500100D01*
X209549897Y-105506998D01*
X209397197Y-105539455D01*
X209397192Y-105539457D01*
X209224270Y-105616448D01*
X209224265Y-105616451D01*
X209071129Y-105727711D01*
X208944466Y-105868385D01*
X208849821Y-106032315D01*
X208849818Y-106032322D01*
X208798590Y-106189988D01*
X208791326Y-106212344D01*
X208771540Y-106400600D01*
X208791326Y-106588856D01*
X208791327Y-106588859D01*
X208849818Y-106768877D01*
X208849821Y-106768884D01*
X208944467Y-106932816D01*
X209035079Y-107033450D01*
X209071129Y-107073488D01*
X209224265Y-107184748D01*
X209224270Y-107184751D01*
X209397191Y-107261742D01*
X209397193Y-107261742D01*
X209397197Y-107261744D01*
X209552130Y-107294675D01*
X209613607Y-107327866D01*
X209614026Y-107328283D01*
X209981581Y-107695838D01*
X210015066Y-107757161D01*
X210017900Y-107783519D01*
X210017900Y-111469281D01*
X209998215Y-111536320D01*
X209981581Y-111556962D01*
X208877426Y-112661116D01*
X208816103Y-112694601D01*
X208815526Y-112694725D01*
X208660597Y-112727655D01*
X208660592Y-112727657D01*
X208487670Y-112804648D01*
X208487665Y-112804651D01*
X208334529Y-112915911D01*
X208207866Y-113056585D01*
X208113221Y-113220515D01*
X208113218Y-113220522D01*
X208067731Y-113360518D01*
X208028293Y-113418194D01*
X207963935Y-113445392D01*
X207895088Y-113433477D01*
X207843613Y-113386233D01*
X207831869Y-113360518D01*
X207786381Y-113220522D01*
X207786380Y-113220521D01*
X207786379Y-113220516D01*
X207691733Y-113056584D01*
X207565071Y-112915912D01*
X207565070Y-112915911D01*
X207411934Y-112804651D01*
X207411929Y-112804648D01*
X207239007Y-112727657D01*
X207239002Y-112727655D01*
X207085725Y-112695076D01*
X207053846Y-112688300D01*
X206864554Y-112688300D01*
X206832675Y-112695076D01*
X206679397Y-112727655D01*
X206679392Y-112727657D01*
X206506470Y-112804648D01*
X206506465Y-112804651D01*
X206353329Y-112915911D01*
X206226666Y-113056585D01*
X206132021Y-113220515D01*
X206132018Y-113220522D01*
X206073527Y-113400539D01*
X206073525Y-113400550D01*
X206068334Y-113449929D01*
X206041749Y-113514543D01*
X206032695Y-113524646D01*
X205740160Y-113817182D01*
X205678840Y-113850666D01*
X205652481Y-113853500D01*
X204934652Y-113853500D01*
X204867613Y-113833815D01*
X204821858Y-113781011D01*
X204811914Y-113711853D01*
X204827264Y-113667501D01*
X204835664Y-113652952D01*
X204865379Y-113601484D01*
X204923874Y-113421456D01*
X204943660Y-113233200D01*
X204923874Y-113044944D01*
X204865379Y-112864916D01*
X204786132Y-112727656D01*
X204770735Y-112700987D01*
X204770731Y-112700982D01*
X204770544Y-112700774D01*
X204770473Y-112700627D01*
X204766914Y-112695728D01*
X204767810Y-112695076D01*
X204740319Y-112637780D01*
X204738700Y-112617808D01*
X204738700Y-103865900D01*
X204758385Y-103798861D01*
X204811189Y-103753106D01*
X204862700Y-103741900D01*
X209463389Y-103741900D01*
X210624481Y-103741900D01*
X210691520Y-103761585D01*
G37*
%TD.AperFunction*%
%TA.AperFunction,Conductor*%
G36*
X219100960Y-38989005D02*
G01*
X219384016Y-38991530D01*
X219391731Y-38991840D01*
X219956974Y-39032267D01*
X219965732Y-39033208D01*
X220526110Y-39113778D01*
X220534801Y-39115347D01*
X221087967Y-39235681D01*
X221096543Y-39237869D01*
X221639735Y-39397365D01*
X221648094Y-39400147D01*
X222178548Y-39597996D01*
X222186681Y-39601365D01*
X222701655Y-39836546D01*
X222709554Y-39840500D01*
X223206421Y-40111811D01*
X223214017Y-40116317D01*
X223690288Y-40422398D01*
X223697520Y-40427420D01*
X224150714Y-40766676D01*
X224157607Y-40772230D01*
X224585449Y-41142958D01*
X224591927Y-41148990D01*
X224992209Y-41549272D01*
X224998241Y-41555750D01*
X225368969Y-41983592D01*
X225374523Y-41990485D01*
X225421901Y-42053774D01*
X225594977Y-42284978D01*
X225713772Y-42443669D01*
X225718805Y-42450917D01*
X226024872Y-42927166D01*
X226029388Y-42934778D01*
X226300699Y-43431645D01*
X226304658Y-43439555D01*
X226539828Y-43954504D01*
X226543210Y-43962669D01*
X226741045Y-44493086D01*
X226743840Y-44501484D01*
X226903329Y-45044655D01*
X226905518Y-45053232D01*
X227025850Y-45606388D01*
X227027422Y-45615099D01*
X227107988Y-46175446D01*
X227108934Y-46184247D01*
X227149358Y-46749456D01*
X227149669Y-46757195D01*
X227152195Y-47040238D01*
X227152200Y-47041345D01*
X227152200Y-48615577D01*
X227154612Y-48824512D01*
X227154612Y-48824513D01*
X227193163Y-49240557D01*
X227193163Y-49240558D01*
X227269943Y-49651291D01*
X227384286Y-50053163D01*
X227384285Y-50053163D01*
X227535225Y-50442783D01*
X227721469Y-50816811D01*
X227941429Y-51172059D01*
X228193230Y-51505497D01*
X228216982Y-51531552D01*
X228474721Y-51814278D01*
X228708959Y-52027814D01*
X228783503Y-52095770D01*
X229116941Y-52347571D01*
X229472189Y-52567531D01*
X229846217Y-52753775D01*
X230235834Y-52904713D01*
X230637708Y-53019055D01*
X230637708Y-53019056D01*
X230637710Y-53019056D01*
X230637716Y-53019058D01*
X231048434Y-53095835D01*
X231048439Y-53095835D01*
X231048442Y-53095836D01*
X231122973Y-53102742D01*
X231464484Y-53134388D01*
X231673400Y-53136800D01*
X238402282Y-53136800D01*
X238406510Y-53136872D01*
X238612944Y-53143915D01*
X238623146Y-53144688D01*
X239036840Y-53193306D01*
X239048379Y-53195218D01*
X239454948Y-53282516D01*
X239466242Y-53285505D01*
X239862746Y-53410781D01*
X239873738Y-53414835D01*
X240256622Y-53576961D01*
X240267184Y-53582034D01*
X240633070Y-53779580D01*
X240643089Y-53785617D01*
X240813392Y-53899541D01*
X240988695Y-54016811D01*
X240998114Y-54023777D01*
X241320359Y-54286556D01*
X241329079Y-54294381D01*
X241625084Y-54586400D01*
X241633026Y-54595013D01*
X241900145Y-54913659D01*
X241907238Y-54922982D01*
X242090161Y-55188567D01*
X242143091Y-55265415D01*
X242149274Y-55275368D01*
X242351764Y-55638549D01*
X242356979Y-55649039D01*
X242524280Y-56029687D01*
X242528477Y-56040610D01*
X242659112Y-56435363D01*
X242662263Y-56446647D01*
X242755059Y-56851971D01*
X242757131Y-56863502D01*
X242811257Y-57275760D01*
X242812232Y-57287436D01*
X242827208Y-57702975D01*
X242827076Y-57714690D01*
X242802768Y-58129780D01*
X242801531Y-58141430D01*
X242738157Y-58552372D01*
X242735826Y-58563855D01*
X242633953Y-58966969D01*
X242630549Y-58978179D01*
X242491076Y-59369905D01*
X242486630Y-59380744D01*
X242310817Y-59757545D01*
X242305367Y-59767916D01*
X242094776Y-60126444D01*
X242088371Y-60136255D01*
X241844885Y-60473301D01*
X241837584Y-60482463D01*
X241563373Y-60795029D01*
X241555239Y-60803462D01*
X241252745Y-61088760D01*
X241243851Y-61096387D01*
X240915789Y-61351857D01*
X240906216Y-61358610D01*
X240555510Y-61581976D01*
X240545342Y-61587796D01*
X240175118Y-61777068D01*
X240164445Y-61781903D01*
X239778005Y-61935390D01*
X239766925Y-61939195D01*
X239367731Y-62055523D01*
X239356340Y-62058266D01*
X238947952Y-62136400D01*
X238936354Y-62138056D01*
X238521682Y-62177367D01*
X238511423Y-62177912D01*
X238305335Y-62180311D01*
X238303486Y-62180333D01*
X238302044Y-62180341D01*
X235302800Y-62180341D01*
X235353599Y-126948058D01*
X235353600Y-126948059D01*
X238351482Y-126948059D01*
X238355710Y-126948131D01*
X238562144Y-126955174D01*
X238572346Y-126955947D01*
X238986040Y-127004565D01*
X238997579Y-127006477D01*
X239404143Y-127093774D01*
X239415451Y-127096767D01*
X239811958Y-127222043D01*
X239822921Y-127226086D01*
X240205822Y-127388220D01*
X240216367Y-127393284D01*
X240582287Y-127590847D01*
X240592290Y-127596876D01*
X240762638Y-127710831D01*
X240937895Y-127828070D01*
X240947314Y-127835036D01*
X241269560Y-128097816D01*
X241278280Y-128105641D01*
X241574285Y-128397659D01*
X241582227Y-128406272D01*
X241849349Y-128724923D01*
X241856443Y-128734248D01*
X242092288Y-129076671D01*
X242098471Y-129086622D01*
X242300963Y-129449804D01*
X242306178Y-129460295D01*
X242473482Y-129840950D01*
X242477682Y-129851879D01*
X242608313Y-130246623D01*
X242611464Y-130257907D01*
X242704260Y-130663231D01*
X242706332Y-130674762D01*
X242760458Y-131087020D01*
X242761433Y-131098696D01*
X242776409Y-131514235D01*
X242776277Y-131525950D01*
X242751969Y-131941040D01*
X242750732Y-131952690D01*
X242687358Y-132363632D01*
X242685027Y-132375115D01*
X242583154Y-132778229D01*
X242579751Y-132789439D01*
X242440278Y-133181166D01*
X242435831Y-133192005D01*
X242260018Y-133568806D01*
X242254568Y-133579177D01*
X242043977Y-133937705D01*
X242037572Y-133947516D01*
X241794086Y-134284562D01*
X241786785Y-134293724D01*
X241512573Y-134606291D01*
X241504439Y-134614724D01*
X241201946Y-134900021D01*
X241193052Y-134907648D01*
X240864991Y-135163118D01*
X240855426Y-135169865D01*
X240574445Y-135348824D01*
X240504706Y-135393241D01*
X240494537Y-135399060D01*
X240124326Y-135588324D01*
X240113655Y-135593159D01*
X239727202Y-135746652D01*
X239716121Y-135750457D01*
X239316932Y-135866784D01*
X239305541Y-135869527D01*
X238897152Y-135947661D01*
X238885554Y-135949317D01*
X238470883Y-135988628D01*
X238460622Y-135989173D01*
X238252688Y-135991592D01*
X238251246Y-135991600D01*
X85930318Y-135991600D01*
X85926090Y-135991528D01*
X85837845Y-135988517D01*
X85719675Y-135984485D01*
X85709431Y-135983709D01*
X85295769Y-135935094D01*
X85284210Y-135933179D01*
X84877667Y-135845887D01*
X84866341Y-135842889D01*
X84469853Y-135717618D01*
X84458861Y-135713564D01*
X84075977Y-135551438D01*
X84065416Y-135546365D01*
X83699537Y-135348824D01*
X83689502Y-135342777D01*
X83343904Y-135111588D01*
X83334485Y-135104622D01*
X83012240Y-134841843D01*
X83003520Y-134834018D01*
X82707515Y-134541999D01*
X82699573Y-134533386D01*
X82661972Y-134488532D01*
X82432451Y-134214736D01*
X82425360Y-134205416D01*
X82247730Y-133947516D01*
X82189503Y-133862977D01*
X82183325Y-133853031D01*
X81980835Y-133489850D01*
X81975620Y-133479360D01*
X81808313Y-133098698D01*
X81804126Y-133087801D01*
X81673482Y-132693018D01*
X81670336Y-132681752D01*
X81600134Y-132375115D01*
X81577538Y-132276419D01*
X81575468Y-132264897D01*
X81575007Y-132261386D01*
X81521340Y-131852621D01*
X81520368Y-131840981D01*
X81507756Y-131491055D01*
X82304066Y-131491055D01*
X82304066Y-131491056D01*
X82324363Y-131878343D01*
X82385030Y-132261379D01*
X82385031Y-132261386D01*
X82485406Y-132635992D01*
X82624388Y-132998050D01*
X82800454Y-133343599D01*
X83011667Y-133668839D01*
X83011669Y-133668841D01*
X83220240Y-133926404D01*
X84714891Y-132431753D01*
X84788732Y-132533386D01*
X84966814Y-132711468D01*
X85068445Y-132785307D01*
X83573794Y-134279958D01*
X83831358Y-134488531D01*
X83831360Y-134488532D01*
X84156600Y-134699745D01*
X84502149Y-134875811D01*
X84864207Y-135014793D01*
X85238813Y-135115168D01*
X85238820Y-135115169D01*
X85621856Y-135175836D01*
X86009143Y-135196134D01*
X86009145Y-135196134D01*
X86396431Y-135175836D01*
X86779467Y-135115169D01*
X86779474Y-135115168D01*
X87154080Y-135014793D01*
X87516138Y-134875811D01*
X87861687Y-134699745D01*
X88186915Y-134488540D01*
X88186928Y-134488530D01*
X88444492Y-134279958D01*
X86949842Y-132785308D01*
X87051474Y-132711468D01*
X87229556Y-132533386D01*
X87303396Y-132431754D01*
X88798046Y-133926404D01*
X89006618Y-133668840D01*
X89006628Y-133668827D01*
X89217833Y-133343599D01*
X89393899Y-132998050D01*
X89532881Y-132635992D01*
X89633256Y-132261386D01*
X89633257Y-132261379D01*
X89693924Y-131878343D01*
X89714222Y-131491056D01*
X89714222Y-131491055D01*
X89693924Y-131103768D01*
X89633257Y-130720732D01*
X89633256Y-130720725D01*
X89532881Y-130346119D01*
X89393899Y-129984061D01*
X89217833Y-129638512D01*
X89006620Y-129313272D01*
X89006619Y-129313270D01*
X88798046Y-129055706D01*
X87303395Y-130550357D01*
X87229556Y-130448726D01*
X87051474Y-130270644D01*
X86949842Y-130196804D01*
X88444493Y-128702152D01*
X88186929Y-128493581D01*
X88186927Y-128493579D01*
X87861687Y-128282366D01*
X87516138Y-128106300D01*
X87154080Y-127967318D01*
X86779474Y-127866943D01*
X86779467Y-127866942D01*
X86396431Y-127806275D01*
X86009145Y-127785978D01*
X86009143Y-127785978D01*
X85621856Y-127806275D01*
X85238820Y-127866942D01*
X85238813Y-127866943D01*
X84864207Y-127967318D01*
X84502149Y-128106300D01*
X84156600Y-128282366D01*
X83831350Y-128493587D01*
X83573793Y-128702151D01*
X83573793Y-128702152D01*
X85068445Y-130196804D01*
X84966814Y-130270644D01*
X84788732Y-130448726D01*
X84714892Y-130550357D01*
X83220240Y-129055705D01*
X83220239Y-129055705D01*
X83011675Y-129313262D01*
X82800454Y-129638512D01*
X82624388Y-129984061D01*
X82485406Y-130346119D01*
X82385031Y-130720725D01*
X82385030Y-130720732D01*
X82324363Y-131103768D01*
X82304066Y-131491055D01*
X81507756Y-131491055D01*
X81505391Y-131425422D01*
X81505523Y-131413709D01*
X81521698Y-131137502D01*
X81529831Y-130998610D01*
X81531068Y-130986969D01*
X81594444Y-130576014D01*
X81596769Y-130564563D01*
X81698650Y-130161414D01*
X81702050Y-130150220D01*
X81841523Y-129758494D01*
X81845969Y-129747655D01*
X82021786Y-129370846D01*
X82027227Y-129360491D01*
X82237836Y-129001933D01*
X82244213Y-128992165D01*
X82487716Y-128655094D01*
X82495015Y-128645936D01*
X82769241Y-128333354D01*
X82777346Y-128324951D01*
X83079861Y-128039632D01*
X83088741Y-128032017D01*
X83416818Y-127776536D01*
X83426374Y-127769795D01*
X83777095Y-127546419D01*
X83787251Y-127540606D01*
X84157501Y-127351321D01*
X84168133Y-127346505D01*
X84554609Y-127193003D01*
X84565658Y-127189209D01*
X84964872Y-127072874D01*
X84976255Y-127070133D01*
X85384650Y-126991998D01*
X85396242Y-126990343D01*
X85810921Y-126951031D01*
X85821173Y-126950487D01*
X86029113Y-126948067D01*
X86030556Y-126948059D01*
X89029800Y-126948059D01*
X89029800Y-116145649D01*
X99490041Y-116145649D01*
X99490041Y-116145650D01*
X99510636Y-116381053D01*
X99510638Y-116381063D01*
X99571794Y-116609305D01*
X99571796Y-116609309D01*
X99571797Y-116609313D01*
X99632659Y-116739831D01*
X99671665Y-116823480D01*
X99671667Y-116823484D01*
X99779981Y-116978171D01*
X99807201Y-117017046D01*
X99807206Y-117017052D01*
X99974297Y-117184143D01*
X99974303Y-117184148D01*
X100159858Y-117314075D01*
X100203483Y-117368652D01*
X100210677Y-117438150D01*
X100179154Y-117500505D01*
X100159858Y-117517225D01*
X99974297Y-117647155D01*
X99807205Y-117814247D01*
X99671665Y-118007819D01*
X99671664Y-118007821D01*
X99571798Y-118221985D01*
X99571794Y-118221994D01*
X99510638Y-118450236D01*
X99510636Y-118450246D01*
X99490041Y-118685649D01*
X99490041Y-118685650D01*
X99510636Y-118921053D01*
X99510638Y-118921063D01*
X99571794Y-119149305D01*
X99571796Y-119149309D01*
X99571797Y-119149313D01*
X99651704Y-119320673D01*
X99671665Y-119363480D01*
X99671667Y-119363484D01*
X99779981Y-119518171D01*
X99807205Y-119557051D01*
X99974299Y-119724145D01*
X100006094Y-119746408D01*
X100167865Y-119859682D01*
X100167867Y-119859683D01*
X100167870Y-119859685D01*
X100382037Y-119959553D01*
X100610292Y-120020713D01*
X100798618Y-120037189D01*
X100845699Y-120041309D01*
X100845700Y-120041309D01*
X100845701Y-120041309D01*
X100884934Y-120037876D01*
X101081108Y-120020713D01*
X101309363Y-119959553D01*
X101523530Y-119859685D01*
X101717101Y-119724145D01*
X101884195Y-119557051D01*
X102014125Y-119371492D01*
X102068702Y-119327867D01*
X102138200Y-119320673D01*
X102200555Y-119352196D01*
X102217275Y-119371492D01*
X102347201Y-119557046D01*
X102347206Y-119557052D01*
X102448881Y-119658727D01*
X102482366Y-119720050D01*
X102485200Y-119746408D01*
X102485200Y-127502796D01*
X102519803Y-127676758D01*
X102519805Y-127676766D01*
X102553746Y-127758706D01*
X102553746Y-127758707D01*
X102587684Y-127840642D01*
X102587685Y-127840644D01*
X102646763Y-127929060D01*
X102646764Y-127929061D01*
X102686234Y-127988134D01*
X102686235Y-127988135D01*
X102686236Y-127988136D01*
X105372862Y-130674762D01*
X108058995Y-133360894D01*
X108059016Y-133360917D01*
X108341164Y-133643064D01*
X108341166Y-133643066D01*
X108400236Y-133682533D01*
X108400239Y-133682536D01*
X108488649Y-133741610D01*
X108488653Y-133741613D01*
X108570593Y-133775553D01*
X108652534Y-133809495D01*
X108826503Y-133844099D01*
X108826507Y-133844100D01*
X108826508Y-133844100D01*
X216826893Y-133844100D01*
X216826894Y-133844099D01*
X217000866Y-133809495D01*
X217082806Y-133775553D01*
X217164747Y-133741613D01*
X217164749Y-133741611D01*
X217164752Y-133741610D01*
X217253155Y-133682539D01*
X217253155Y-133682538D01*
X217253159Y-133682536D01*
X217312236Y-133643064D01*
X219464245Y-131491055D01*
X234513866Y-131491055D01*
X234513866Y-131491056D01*
X234534163Y-131878343D01*
X234594830Y-132261379D01*
X234594831Y-132261386D01*
X234695206Y-132635992D01*
X234834188Y-132998050D01*
X235010254Y-133343599D01*
X235221467Y-133668839D01*
X235221469Y-133668841D01*
X235430040Y-133926404D01*
X236924691Y-132431753D01*
X236998532Y-132533386D01*
X237176614Y-132711468D01*
X237278245Y-132785307D01*
X235783594Y-134279958D01*
X236041158Y-134488531D01*
X236041160Y-134488532D01*
X236366400Y-134699745D01*
X236711949Y-134875811D01*
X237074007Y-135014793D01*
X237448613Y-135115168D01*
X237448620Y-135115169D01*
X237831656Y-135175836D01*
X238218943Y-135196134D01*
X238218945Y-135196134D01*
X238606231Y-135175836D01*
X238989267Y-135115169D01*
X238989274Y-135115168D01*
X239363880Y-135014793D01*
X239725938Y-134875811D01*
X240071487Y-134699745D01*
X240396715Y-134488540D01*
X240396728Y-134488530D01*
X240654292Y-134279958D01*
X239159642Y-132785308D01*
X239261274Y-132711468D01*
X239439356Y-132533386D01*
X239513196Y-132431754D01*
X241007846Y-133926404D01*
X241216418Y-133668840D01*
X241216428Y-133668827D01*
X241427633Y-133343599D01*
X241603699Y-132998050D01*
X241742681Y-132635992D01*
X241843056Y-132261386D01*
X241843057Y-132261379D01*
X241903724Y-131878343D01*
X241924022Y-131491056D01*
X241924022Y-131491055D01*
X241903724Y-131103768D01*
X241843057Y-130720732D01*
X241843056Y-130720725D01*
X241742681Y-130346119D01*
X241603699Y-129984061D01*
X241427633Y-129638512D01*
X241216420Y-129313272D01*
X241216419Y-129313270D01*
X241007846Y-129055706D01*
X239513195Y-130550357D01*
X239439356Y-130448726D01*
X239261274Y-130270644D01*
X239159642Y-130196804D01*
X240654293Y-128702152D01*
X240396729Y-128493581D01*
X240396727Y-128493579D01*
X240071487Y-128282366D01*
X239725938Y-128106300D01*
X239363880Y-127967318D01*
X238989274Y-127866943D01*
X238989267Y-127866942D01*
X238606231Y-127806275D01*
X238218945Y-127785978D01*
X238218943Y-127785978D01*
X237831656Y-127806275D01*
X237448620Y-127866942D01*
X237448613Y-127866943D01*
X237074007Y-127967318D01*
X236711949Y-128106300D01*
X236366400Y-128282366D01*
X236041150Y-128493587D01*
X235783593Y-128702151D01*
X235783593Y-128702152D01*
X237278245Y-130196804D01*
X237176614Y-130270644D01*
X236998532Y-130448726D01*
X236924692Y-130550357D01*
X235430040Y-129055705D01*
X235430039Y-129055705D01*
X235221475Y-129313262D01*
X235010254Y-129638512D01*
X234834188Y-129984061D01*
X234695206Y-130346119D01*
X234594831Y-130720725D01*
X234594830Y-130720732D01*
X234534163Y-131103768D01*
X234513866Y-131491055D01*
X219464245Y-131491055D01*
X230562281Y-120393019D01*
X230623604Y-120359534D01*
X230649962Y-120356700D01*
X231457293Y-120356700D01*
X231457294Y-120356699D01*
X231515282Y-120345164D01*
X231631258Y-120322096D01*
X231631261Y-120322094D01*
X231631266Y-120322094D01*
X231795147Y-120254213D01*
X231942635Y-120155664D01*
X232068064Y-120030235D01*
X232166613Y-119882747D01*
X232234494Y-119718866D01*
X232242351Y-119679369D01*
X232269099Y-119544895D01*
X232269100Y-119544893D01*
X232269100Y-76111306D01*
X232269099Y-76111304D01*
X232234496Y-75937341D01*
X232234493Y-75937332D01*
X232166616Y-75773459D01*
X232166609Y-75773446D01*
X232068065Y-75625966D01*
X232005667Y-75563568D01*
X231942635Y-75500536D01*
X221147636Y-64705536D01*
X221147635Y-64705535D01*
X221147630Y-64705531D01*
X221088561Y-64666064D01*
X221088560Y-64666063D01*
X221000144Y-64606985D01*
X221000142Y-64606984D01*
X220918207Y-64573046D01*
X220918206Y-64573046D01*
X220836266Y-64539105D01*
X220836258Y-64539103D01*
X220662296Y-64504500D01*
X220662292Y-64504500D01*
X220662291Y-64504500D01*
X173602046Y-64504500D01*
X173412754Y-64504500D01*
X173412750Y-64504500D01*
X173326734Y-64522783D01*
X173325145Y-64523110D01*
X173244736Y-64539105D01*
X173238914Y-64540871D01*
X173238782Y-64540437D01*
X173228120Y-64543744D01*
X173227600Y-64543854D01*
X173227599Y-64543854D01*
X173153369Y-64576904D01*
X173150386Y-64578185D01*
X173080857Y-64606984D01*
X173080850Y-64606988D01*
X173079746Y-64607726D01*
X173061311Y-64617892D01*
X173054672Y-64620848D01*
X173054664Y-64620853D01*
X172994376Y-64664653D01*
X172990386Y-64667434D01*
X172933368Y-64705533D01*
X172933358Y-64705542D01*
X172927653Y-64711246D01*
X172912872Y-64723870D01*
X172901529Y-64732111D01*
X172901526Y-64732114D01*
X172856142Y-64782517D01*
X172851677Y-64787222D01*
X172807939Y-64830961D01*
X172807932Y-64830969D01*
X172799710Y-64843275D01*
X172788762Y-64857350D01*
X172774872Y-64872776D01*
X172774867Y-64872784D01*
X172744314Y-64925703D01*
X172740030Y-64932591D01*
X172709388Y-64978450D01*
X172701141Y-64998360D01*
X172693969Y-65012902D01*
X172680224Y-65036710D01*
X172680221Y-65036715D01*
X172663410Y-65088451D01*
X172660043Y-65097578D01*
X172641506Y-65142333D01*
X172635989Y-65170066D01*
X172632305Y-65184183D01*
X172621725Y-65216747D01*
X172616740Y-65264171D01*
X172615038Y-65275396D01*
X172606900Y-65316310D01*
X172606900Y-65351306D01*
X172606221Y-65364266D01*
X172601940Y-65404999D01*
X172606221Y-65445731D01*
X172606900Y-65458692D01*
X172606900Y-65493695D01*
X172615037Y-65534602D01*
X172616741Y-65545831D01*
X172621725Y-65593253D01*
X172621725Y-65593254D01*
X172632304Y-65625811D01*
X172635990Y-65639938D01*
X172641504Y-65667662D01*
X172641505Y-65667664D01*
X172660044Y-65712423D01*
X172663412Y-65721554D01*
X172680219Y-65773279D01*
X172680222Y-65773286D01*
X172693969Y-65797097D01*
X172701142Y-65811643D01*
X172709384Y-65831542D01*
X172740034Y-65877413D01*
X172744319Y-65884304D01*
X172774868Y-65937218D01*
X172774869Y-65937219D01*
X172788757Y-65952643D01*
X172799707Y-65966721D01*
X172807934Y-65979033D01*
X172851674Y-66022773D01*
X172856144Y-66027483D01*
X172901529Y-66077888D01*
X172901531Y-66077890D01*
X172912867Y-66086126D01*
X172927663Y-66098763D01*
X172933361Y-66104461D01*
X172933365Y-66104464D01*
X172990394Y-66142570D01*
X172994367Y-66145339D01*
X173054670Y-66189151D01*
X173061302Y-66192104D01*
X173079761Y-66202283D01*
X173080853Y-66203013D01*
X173150442Y-66231836D01*
X173153387Y-66233102D01*
X173227597Y-66266144D01*
X173228096Y-66266250D01*
X173238770Y-66269562D01*
X173238903Y-66269125D01*
X173244730Y-66270892D01*
X173244734Y-66270894D01*
X173325216Y-66286902D01*
X173326682Y-66287204D01*
X173412754Y-66305500D01*
X173418709Y-66305500D01*
X220149238Y-66305500D01*
X220216277Y-66325185D01*
X220236919Y-66341819D01*
X230431781Y-76536680D01*
X230465266Y-76598003D01*
X230468100Y-76624361D01*
X230468100Y-118431700D01*
X230448415Y-118498739D01*
X230395611Y-118544494D01*
X230344100Y-118555700D01*
X230136903Y-118555700D01*
X229962941Y-118590303D01*
X229962929Y-118590306D01*
X229880992Y-118624245D01*
X229880993Y-118624246D01*
X229799055Y-118658185D01*
X229710640Y-118717263D01*
X229710639Y-118717264D01*
X229651561Y-118756737D01*
X229651560Y-118756738D01*
X216401519Y-132006781D01*
X216340196Y-132040266D01*
X216313838Y-132043100D01*
X109339561Y-132043100D01*
X109272522Y-132023415D01*
X109251880Y-132006781D01*
X104322519Y-127077419D01*
X104289034Y-127016096D01*
X104286200Y-126989738D01*
X104286200Y-119746408D01*
X104305885Y-119679369D01*
X104322519Y-119658727D01*
X104371953Y-119609293D01*
X104424195Y-119557051D01*
X104559735Y-119363480D01*
X104659603Y-119149313D01*
X104720763Y-118921058D01*
X104741359Y-118685650D01*
X104720763Y-118450242D01*
X104659603Y-118221987D01*
X104559735Y-118007821D01*
X104554125Y-117999808D01*
X104424194Y-117814247D01*
X104257102Y-117647156D01*
X104257096Y-117647151D01*
X104071542Y-117517225D01*
X104027917Y-117462648D01*
X104020723Y-117393150D01*
X104052246Y-117330795D01*
X104071542Y-117314075D01*
X104122634Y-117278300D01*
X104257101Y-117184145D01*
X104424195Y-117017051D01*
X104559735Y-116823480D01*
X104659603Y-116609313D01*
X104720763Y-116381058D01*
X104741359Y-116145650D01*
X104720763Y-115910242D01*
X104659603Y-115681987D01*
X104559735Y-115467821D01*
X104554125Y-115459808D01*
X104424194Y-115274247D01*
X104257102Y-115107156D01*
X104257096Y-115107151D01*
X104071542Y-114977225D01*
X104027917Y-114922648D01*
X104020723Y-114853150D01*
X104052246Y-114790795D01*
X104071542Y-114774075D01*
X104101173Y-114753327D01*
X104257101Y-114644145D01*
X104424195Y-114477051D01*
X104559735Y-114283480D01*
X104659603Y-114069313D01*
X104720763Y-113841058D01*
X104741359Y-113605650D01*
X104720763Y-113370242D01*
X104659603Y-113141987D01*
X104559735Y-112927821D01*
X104551397Y-112915912D01*
X104424194Y-112734247D01*
X104257102Y-112567156D01*
X104257095Y-112567151D01*
X104063534Y-112431617D01*
X104063530Y-112431615D01*
X104039479Y-112420400D01*
X103849363Y-112331747D01*
X103849359Y-112331746D01*
X103849355Y-112331744D01*
X103621113Y-112270588D01*
X103621103Y-112270586D01*
X103385701Y-112249991D01*
X103385699Y-112249991D01*
X103150296Y-112270586D01*
X103150286Y-112270588D01*
X102922044Y-112331744D01*
X102922035Y-112331748D01*
X102707871Y-112431614D01*
X102707869Y-112431615D01*
X102514300Y-112567153D01*
X102392373Y-112689080D01*
X102331050Y-112722564D01*
X102261358Y-112717580D01*
X102205425Y-112675708D01*
X102188510Y-112644731D01*
X102139497Y-112513321D01*
X102139493Y-112513314D01*
X102053247Y-112398105D01*
X102053244Y-112398102D01*
X101938035Y-112311856D01*
X101938028Y-112311852D01*
X101803182Y-112261558D01*
X101803183Y-112261558D01*
X101743583Y-112255151D01*
X101743581Y-112255150D01*
X101743573Y-112255150D01*
X101743564Y-112255150D01*
X99947829Y-112255150D01*
X99947823Y-112255151D01*
X99888216Y-112261558D01*
X99753371Y-112311852D01*
X99753364Y-112311856D01*
X99638155Y-112398102D01*
X99638152Y-112398105D01*
X99551906Y-112513314D01*
X99551902Y-112513321D01*
X99501608Y-112648167D01*
X99495201Y-112707766D01*
X99495200Y-112707785D01*
X99495200Y-114503520D01*
X99495201Y-114503526D01*
X99501608Y-114563133D01*
X99551902Y-114697978D01*
X99551906Y-114697985D01*
X99638152Y-114813194D01*
X99638155Y-114813197D01*
X99753364Y-114899443D01*
X99753371Y-114899447D01*
X99884781Y-114948460D01*
X99940715Y-114990331D01*
X99965132Y-115055795D01*
X99950280Y-115124068D01*
X99929130Y-115152323D01*
X99807203Y-115274250D01*
X99671665Y-115467819D01*
X99671664Y-115467821D01*
X99571798Y-115681985D01*
X99571794Y-115681994D01*
X99510638Y-115910236D01*
X99510636Y-115910246D01*
X99490041Y-116145649D01*
X89029800Y-116145649D01*
X89029800Y-98907600D01*
X90559940Y-98907600D01*
X90579726Y-99095856D01*
X90579727Y-99095859D01*
X90638218Y-99275877D01*
X90638221Y-99275884D01*
X90732867Y-99439816D01*
X90854502Y-99574905D01*
X90859529Y-99580488D01*
X91012665Y-99691748D01*
X91012670Y-99691751D01*
X91185592Y-99768742D01*
X91185597Y-99768744D01*
X91370754Y-99808100D01*
X91370755Y-99808100D01*
X91560044Y-99808100D01*
X91560046Y-99808100D01*
X91745203Y-99768744D01*
X91918130Y-99691751D01*
X92071271Y-99580488D01*
X92197933Y-99439816D01*
X92292579Y-99275884D01*
X92351074Y-99095856D01*
X92356264Y-99046469D01*
X92382847Y-98981858D01*
X92391894Y-98971761D01*
X95678607Y-95685049D01*
X99490041Y-95685049D01*
X99490041Y-95685050D01*
X99510636Y-95920453D01*
X99510638Y-95920463D01*
X99571794Y-96148705D01*
X99571796Y-96148709D01*
X99571797Y-96148713D01*
X99579665Y-96165585D01*
X99671665Y-96362880D01*
X99671667Y-96362884D01*
X99774360Y-96509544D01*
X99807201Y-96556446D01*
X99807206Y-96556452D01*
X99974297Y-96723543D01*
X99974303Y-96723548D01*
X100159858Y-96853475D01*
X100203483Y-96908052D01*
X100210677Y-96977550D01*
X100179154Y-97039905D01*
X100159858Y-97056625D01*
X99974297Y-97186555D01*
X99807205Y-97353647D01*
X99671665Y-97547219D01*
X99671664Y-97547221D01*
X99647846Y-97598300D01*
X99574130Y-97756385D01*
X99571798Y-97761385D01*
X99571794Y-97761394D01*
X99510638Y-97989636D01*
X99510636Y-97989646D01*
X99490041Y-98225049D01*
X99490041Y-98225050D01*
X99510636Y-98460453D01*
X99510638Y-98460463D01*
X99571794Y-98688705D01*
X99571796Y-98688709D01*
X99571797Y-98688713D01*
X99629161Y-98811730D01*
X99671665Y-98902880D01*
X99671667Y-98902884D01*
X99726966Y-98981858D01*
X99807201Y-99096446D01*
X99807206Y-99096452D01*
X99974297Y-99263543D01*
X99974303Y-99263548D01*
X100159858Y-99393475D01*
X100203483Y-99448052D01*
X100210677Y-99517550D01*
X100179154Y-99579905D01*
X100159858Y-99596625D01*
X99974297Y-99726555D01*
X99807205Y-99893647D01*
X99671665Y-100087219D01*
X99671664Y-100087221D01*
X99578101Y-100287866D01*
X99574130Y-100296385D01*
X99571798Y-100301385D01*
X99571794Y-100301394D01*
X99510638Y-100529636D01*
X99510636Y-100529646D01*
X99490041Y-100765049D01*
X99490041Y-100765050D01*
X99510636Y-101000453D01*
X99510638Y-101000463D01*
X99571794Y-101228705D01*
X99571796Y-101228709D01*
X99571797Y-101228713D01*
X99575700Y-101237082D01*
X99671665Y-101442880D01*
X99671667Y-101442884D01*
X99779981Y-101597571D01*
X99807201Y-101636446D01*
X99807206Y-101636452D01*
X99974297Y-101803543D01*
X99974303Y-101803548D01*
X100159858Y-101933475D01*
X100203483Y-101988052D01*
X100210677Y-102057550D01*
X100179154Y-102119905D01*
X100159858Y-102136625D01*
X99974297Y-102266555D01*
X99807205Y-102433647D01*
X99671665Y-102627219D01*
X99671664Y-102627221D01*
X99599902Y-102781116D01*
X99574130Y-102836385D01*
X99571798Y-102841385D01*
X99571794Y-102841394D01*
X99510638Y-103069636D01*
X99510636Y-103069646D01*
X99490041Y-103305049D01*
X99490041Y-103305050D01*
X99510636Y-103540453D01*
X99510638Y-103540463D01*
X99571794Y-103768705D01*
X99571796Y-103768709D01*
X99571797Y-103768713D01*
X99649330Y-103934982D01*
X99671665Y-103982880D01*
X99671667Y-103982884D01*
X99744390Y-104086742D01*
X99807205Y-104176451D01*
X99974299Y-104343545D01*
X100024877Y-104378960D01*
X100167865Y-104479082D01*
X100167867Y-104479083D01*
X100167870Y-104479085D01*
X100382037Y-104578953D01*
X100610292Y-104640113D01*
X100788551Y-104655709D01*
X100845699Y-104660709D01*
X100845700Y-104660709D01*
X100845701Y-104660709D01*
X100902849Y-104655709D01*
X101081108Y-104640113D01*
X101309363Y-104578953D01*
X101523530Y-104479085D01*
X101717101Y-104343545D01*
X101884195Y-104176451D01*
X102014125Y-103990892D01*
X102068702Y-103947267D01*
X102138200Y-103940073D01*
X102200555Y-103971596D01*
X102217275Y-103990892D01*
X102347200Y-104176445D01*
X102347205Y-104176451D01*
X102514299Y-104343545D01*
X102564877Y-104378960D01*
X102707865Y-104479082D01*
X102707867Y-104479083D01*
X102707870Y-104479085D01*
X102922037Y-104578953D01*
X103150292Y-104640113D01*
X103328551Y-104655709D01*
X103385699Y-104660709D01*
X103385700Y-104660709D01*
X103385701Y-104660709D01*
X103442849Y-104655709D01*
X103621108Y-104640113D01*
X103849363Y-104578953D01*
X104063530Y-104479085D01*
X104257101Y-104343545D01*
X104424195Y-104176451D01*
X104559735Y-103982880D01*
X104659603Y-103768713D01*
X104720763Y-103540458D01*
X104741359Y-103305050D01*
X104740921Y-103300049D01*
X104720763Y-103069646D01*
X104720763Y-103069642D01*
X104659603Y-102841387D01*
X104559735Y-102627221D01*
X104554125Y-102619208D01*
X104424194Y-102433647D01*
X104257102Y-102266556D01*
X104257101Y-102266555D01*
X104071542Y-102136625D01*
X104071541Y-102136624D01*
X104027916Y-102082047D01*
X104020724Y-102012548D01*
X104052246Y-101950194D01*
X104071536Y-101933478D01*
X104237620Y-101817185D01*
X104303825Y-101794859D01*
X104371592Y-101811869D01*
X104396423Y-101831080D01*
X106908381Y-104343038D01*
X106941866Y-104404361D01*
X106944700Y-104430719D01*
X106944700Y-120860406D01*
X106944700Y-120998394D01*
X106944700Y-120998396D01*
X106944699Y-120998396D01*
X106971618Y-121133722D01*
X106971621Y-121133732D01*
X107024422Y-121261207D01*
X107101087Y-121375945D01*
X113370854Y-127645712D01*
X113485592Y-127722377D01*
X113600071Y-127769795D01*
X113613072Y-127775180D01*
X113613076Y-127775180D01*
X113613077Y-127775181D01*
X113748403Y-127802100D01*
X113748406Y-127802100D01*
X213886196Y-127802100D01*
X213977240Y-127783989D01*
X214021528Y-127775180D01*
X214085269Y-127748777D01*
X214149007Y-127722377D01*
X214149008Y-127722376D01*
X214149011Y-127722375D01*
X214263743Y-127645714D01*
X228077314Y-113832143D01*
X228153975Y-113717411D01*
X228206780Y-113589929D01*
X228216456Y-113541284D01*
X228226991Y-113488322D01*
X228233700Y-113454595D01*
X228233700Y-77197804D01*
X228233699Y-77197802D01*
X228206781Y-77062477D01*
X228206778Y-77062466D01*
X228202918Y-77053148D01*
X228202915Y-77053141D01*
X228191313Y-77025132D01*
X228153973Y-76934985D01*
X228077315Y-76820259D01*
X228077314Y-76820258D01*
X227979742Y-76722686D01*
X226341726Y-75084670D01*
X221426546Y-70169488D01*
X221426545Y-70169487D01*
X221311807Y-70092822D01*
X221184332Y-70040021D01*
X221184322Y-70040018D01*
X221048996Y-70013100D01*
X221048994Y-70013100D01*
X221048993Y-70013100D01*
X220089556Y-70013100D01*
X220022517Y-69993415D01*
X220016671Y-69989418D01*
X219934134Y-69929451D01*
X219934129Y-69929448D01*
X219761207Y-69852457D01*
X219761202Y-69852455D01*
X219615401Y-69821465D01*
X219576046Y-69813100D01*
X219386754Y-69813100D01*
X219354297Y-69819998D01*
X219201597Y-69852455D01*
X219201592Y-69852457D01*
X219028670Y-69929448D01*
X219028665Y-69929451D01*
X218875529Y-70040711D01*
X218748866Y-70181385D01*
X218654221Y-70345315D01*
X218654218Y-70345322D01*
X218616031Y-70462851D01*
X218595726Y-70525344D01*
X218575940Y-70713600D01*
X218595726Y-70901856D01*
X218595727Y-70901859D01*
X218654218Y-71081877D01*
X218654221Y-71081884D01*
X218748867Y-71245816D01*
X218802163Y-71305007D01*
X218875529Y-71386488D01*
X219028665Y-71497748D01*
X219028670Y-71497751D01*
X219201592Y-71574742D01*
X219201597Y-71574744D01*
X219386754Y-71614100D01*
X219386755Y-71614100D01*
X219576044Y-71614100D01*
X219576046Y-71614100D01*
X219761203Y-71574744D01*
X219934130Y-71497751D01*
X219984152Y-71461408D01*
X220016671Y-71437782D01*
X220082477Y-71414302D01*
X220089556Y-71414100D01*
X220638481Y-71414100D01*
X220705520Y-71433785D01*
X220726162Y-71450419D01*
X226796381Y-77520637D01*
X226829866Y-77581960D01*
X226832700Y-77608318D01*
X226832700Y-113044081D01*
X226813015Y-113111120D01*
X226796381Y-113131762D01*
X213563362Y-126364781D01*
X213502039Y-126398266D01*
X213475681Y-126401100D01*
X114158919Y-126401100D01*
X114091880Y-126381415D01*
X114071238Y-126364781D01*
X108382019Y-120675562D01*
X108348534Y-120614239D01*
X108345700Y-120587881D01*
X108345700Y-104020207D01*
X108343619Y-104009748D01*
X108340647Y-103994806D01*
X108339868Y-103990892D01*
X108318781Y-103884879D01*
X108318780Y-103884872D01*
X108308259Y-103859472D01*
X108265977Y-103757392D01*
X108189312Y-103642654D01*
X104767595Y-100220937D01*
X104652864Y-100144277D01*
X104652863Y-100144276D01*
X104652861Y-100144275D01*
X104611351Y-100127081D01*
X104557230Y-100083644D01*
X104424195Y-99893649D01*
X104257101Y-99726555D01*
X104257099Y-99726554D01*
X104257096Y-99726551D01*
X104071542Y-99596625D01*
X104027917Y-99542048D01*
X104020723Y-99472550D01*
X104052246Y-99410195D01*
X104071542Y-99393475D01*
X104093726Y-99377941D01*
X104257101Y-99263545D01*
X104424195Y-99096451D01*
X104559735Y-98902880D01*
X104659603Y-98688713D01*
X104720763Y-98460458D01*
X104741359Y-98225050D01*
X104740921Y-98220049D01*
X104725734Y-98046457D01*
X104720763Y-97989642D01*
X104659603Y-97761387D01*
X104559735Y-97547221D01*
X104554125Y-97539208D01*
X104424194Y-97353647D01*
X104257102Y-97186556D01*
X104257096Y-97186551D01*
X104071542Y-97056625D01*
X104027917Y-97002048D01*
X104020723Y-96932550D01*
X104052246Y-96870195D01*
X104071542Y-96853475D01*
X104202250Y-96761952D01*
X104257101Y-96723545D01*
X104424195Y-96556451D01*
X104559735Y-96362880D01*
X104659603Y-96148713D01*
X104720763Y-95920458D01*
X104741359Y-95685050D01*
X104740921Y-95680049D01*
X104720763Y-95449646D01*
X104720763Y-95449642D01*
X104659603Y-95221387D01*
X104559735Y-95007221D01*
X104554125Y-94999208D01*
X104424194Y-94813647D01*
X104257102Y-94646556D01*
X104257096Y-94646551D01*
X104071542Y-94516625D01*
X104027917Y-94462048D01*
X104020723Y-94392550D01*
X104052246Y-94330195D01*
X104071542Y-94313475D01*
X104158486Y-94252596D01*
X104257101Y-94183545D01*
X104424195Y-94016451D01*
X104506836Y-93898426D01*
X104561413Y-93854802D01*
X104608411Y-93845550D01*
X105831346Y-93845550D01*
X105945312Y-93822880D01*
X105966678Y-93818630D01*
X106048559Y-93784714D01*
X106094157Y-93765827D01*
X106094158Y-93765826D01*
X106094161Y-93765825D01*
X106208893Y-93689164D01*
X108798914Y-91099143D01*
X108875575Y-90984411D01*
X108928380Y-90856928D01*
X108955300Y-90721594D01*
X108955300Y-90583606D01*
X108955300Y-88457789D01*
X110634100Y-88457789D01*
X110634100Y-105699810D01*
X110660799Y-105868385D01*
X110661198Y-105870901D01*
X110714727Y-106035645D01*
X110793368Y-106189988D01*
X110895186Y-106330128D01*
X118895272Y-114330214D01*
X119035412Y-114432032D01*
X119189755Y-114510673D01*
X119354499Y-114564202D01*
X119525589Y-114591300D01*
X119698811Y-114591300D01*
X121136154Y-114591300D01*
X121203193Y-114610985D01*
X121207277Y-114613725D01*
X121272258Y-114659225D01*
X121315883Y-114713802D01*
X121323077Y-114783300D01*
X121291554Y-114845655D01*
X121272258Y-114862375D01*
X121086697Y-114992305D01*
X120919605Y-115159397D01*
X120784065Y-115352969D01*
X120784064Y-115352971D01*
X120684198Y-115567135D01*
X120684194Y-115567144D01*
X120623038Y-115795386D01*
X120623036Y-115795396D01*
X120602441Y-116030799D01*
X120602441Y-116030800D01*
X120623036Y-116266203D01*
X120623038Y-116266213D01*
X120684194Y-116494455D01*
X120684196Y-116494459D01*
X120684197Y-116494463D01*
X120739292Y-116612614D01*
X120784065Y-116708630D01*
X120784067Y-116708634D01*
X120860978Y-116818473D01*
X120919601Y-116902196D01*
X120919606Y-116902202D01*
X121086697Y-117069293D01*
X121086703Y-117069298D01*
X121272258Y-117199225D01*
X121315883Y-117253802D01*
X121323077Y-117323300D01*
X121291554Y-117385655D01*
X121272258Y-117402375D01*
X121086697Y-117532305D01*
X120919605Y-117699397D01*
X120784065Y-117892969D01*
X120784064Y-117892971D01*
X120684198Y-118107135D01*
X120684194Y-118107144D01*
X120623038Y-118335386D01*
X120623036Y-118335396D01*
X120602441Y-118570799D01*
X120602441Y-118570800D01*
X120623036Y-118806203D01*
X120623038Y-118806213D01*
X120684194Y-119034455D01*
X120684196Y-119034459D01*
X120684197Y-119034463D01*
X120688100Y-119042832D01*
X120784065Y-119248630D01*
X120784067Y-119248634D01*
X120864484Y-119363480D01*
X120919601Y-119442196D01*
X120919606Y-119442202D01*
X121086697Y-119609293D01*
X121086703Y-119609298D01*
X121272258Y-119739225D01*
X121315883Y-119793802D01*
X121323077Y-119863300D01*
X121291554Y-119925655D01*
X121272258Y-119942375D01*
X121086697Y-120072305D01*
X120919605Y-120239397D01*
X120784065Y-120432969D01*
X120784064Y-120432971D01*
X120684198Y-120647135D01*
X120684194Y-120647144D01*
X120623038Y-120875386D01*
X120623036Y-120875396D01*
X120602441Y-121110799D01*
X120602441Y-121110800D01*
X120623036Y-121346203D01*
X120623038Y-121346213D01*
X120684194Y-121574455D01*
X120684196Y-121574459D01*
X120684197Y-121574463D01*
X120688100Y-121582832D01*
X120784065Y-121788630D01*
X120784067Y-121788634D01*
X120892381Y-121943321D01*
X120919605Y-121982201D01*
X121086699Y-122149295D01*
X121175251Y-122211300D01*
X121280265Y-122284832D01*
X121280267Y-122284833D01*
X121280270Y-122284835D01*
X121494437Y-122384703D01*
X121722692Y-122445863D01*
X121911018Y-122462339D01*
X121958099Y-122466459D01*
X121958100Y-122466459D01*
X121958101Y-122466459D01*
X121997334Y-122463026D01*
X122193508Y-122445863D01*
X122421763Y-122384703D01*
X122635930Y-122284835D01*
X122829501Y-122149295D01*
X122996595Y-121982201D01*
X123126525Y-121796642D01*
X123181102Y-121753017D01*
X123250600Y-121745823D01*
X123312955Y-121777346D01*
X123329675Y-121796642D01*
X123459600Y-121982195D01*
X123459605Y-121982201D01*
X123626699Y-122149295D01*
X123715251Y-122211300D01*
X123820265Y-122284832D01*
X123820267Y-122284833D01*
X123820270Y-122284835D01*
X124034437Y-122384703D01*
X124262692Y-122445863D01*
X124451018Y-122462339D01*
X124498099Y-122466459D01*
X124498100Y-122466459D01*
X124498101Y-122466459D01*
X124537334Y-122463026D01*
X124733508Y-122445863D01*
X124961763Y-122384703D01*
X125175930Y-122284835D01*
X125248923Y-122233724D01*
X125315129Y-122211398D01*
X125320046Y-122211300D01*
X177578210Y-122211300D01*
X177578211Y-122211300D01*
X177749301Y-122184202D01*
X177914045Y-122130673D01*
X178068388Y-122052032D01*
X178208528Y-121950214D01*
X196241614Y-103917128D01*
X196380523Y-103778219D01*
X196441846Y-103744734D01*
X196468204Y-103741900D01*
X203062589Y-103741900D01*
X203207681Y-103741900D01*
X203274720Y-103761585D01*
X203295362Y-103778219D01*
X203301381Y-103784238D01*
X203334866Y-103845561D01*
X203337700Y-103871919D01*
X203337700Y-112617808D01*
X203318015Y-112684847D01*
X203305856Y-112700774D01*
X203305668Y-112700982D01*
X203305664Y-112700987D01*
X203211021Y-112864915D01*
X203211018Y-112864922D01*
X203161031Y-113018767D01*
X203152526Y-113044944D01*
X203132740Y-113233200D01*
X203152526Y-113421456D01*
X203152527Y-113421459D01*
X203211018Y-113601477D01*
X203211020Y-113601481D01*
X203211021Y-113601484D01*
X203219293Y-113615811D01*
X203249136Y-113667501D01*
X203265608Y-113735401D01*
X203242755Y-113801428D01*
X203187833Y-113844618D01*
X203141748Y-113853500D01*
X200976119Y-113853500D01*
X200909080Y-113833815D01*
X200888438Y-113817181D01*
X200595903Y-113524646D01*
X200562418Y-113463323D01*
X200560264Y-113449929D01*
X200555074Y-113400544D01*
X200555072Y-113400539D01*
X200496581Y-113220522D01*
X200496580Y-113220521D01*
X200496579Y-113220516D01*
X200401933Y-113056584D01*
X200275271Y-112915912D01*
X200275270Y-112915911D01*
X200122134Y-112804651D01*
X200122129Y-112804648D01*
X199949207Y-112727657D01*
X199949202Y-112727655D01*
X199795925Y-112695076D01*
X199764046Y-112688300D01*
X199574754Y-112688300D01*
X199542875Y-112695076D01*
X199389597Y-112727655D01*
X199389592Y-112727657D01*
X199216670Y-112804648D01*
X199216665Y-112804651D01*
X199063529Y-112915911D01*
X198936866Y-113056585D01*
X198842221Y-113220515D01*
X198842218Y-113220522D01*
X198783727Y-113400540D01*
X198783726Y-113400544D01*
X198763940Y-113588800D01*
X198783726Y-113777056D01*
X198783727Y-113777059D01*
X198842218Y-113957077D01*
X198842221Y-113957084D01*
X198936867Y-114121016D01*
X199038829Y-114234256D01*
X199063529Y-114261688D01*
X199216665Y-114372948D01*
X199216670Y-114372951D01*
X199389591Y-114449942D01*
X199389593Y-114449942D01*
X199389597Y-114449944D01*
X199544530Y-114482875D01*
X199606007Y-114516066D01*
X199606426Y-114516483D01*
X200103361Y-115013419D01*
X200136846Y-115074742D01*
X200131862Y-115144434D01*
X200089990Y-115200367D01*
X200024526Y-115224784D01*
X200015680Y-115225100D01*
X195692919Y-115225100D01*
X195625880Y-115205415D01*
X195605238Y-115188781D01*
X194970619Y-114554162D01*
X194937134Y-114492839D01*
X194934300Y-114466481D01*
X194934300Y-113035791D01*
X194953985Y-112968752D01*
X194966152Y-112952817D01*
X194966333Y-112952616D01*
X195060979Y-112788684D01*
X195119474Y-112608656D01*
X195139260Y-112420400D01*
X195119474Y-112232144D01*
X195060979Y-112052116D01*
X194966333Y-111888184D01*
X194839671Y-111747512D01*
X194839670Y-111747511D01*
X194686534Y-111636251D01*
X194686529Y-111636248D01*
X194513607Y-111559257D01*
X194513602Y-111559255D01*
X194367801Y-111528265D01*
X194328446Y-111519900D01*
X194139154Y-111519900D01*
X194106697Y-111526798D01*
X193953997Y-111559255D01*
X193953992Y-111559257D01*
X193781070Y-111636248D01*
X193781065Y-111636251D01*
X193627929Y-111747511D01*
X193501266Y-111888185D01*
X193406621Y-112052115D01*
X193406618Y-112052122D01*
X193352283Y-112219349D01*
X193348126Y-112232144D01*
X193328340Y-112420400D01*
X193348126Y-112608656D01*
X193348127Y-112608659D01*
X193406618Y-112788677D01*
X193406621Y-112788684D01*
X193501266Y-112952615D01*
X193501448Y-112952817D01*
X193501516Y-112952959D01*
X193505085Y-112957871D01*
X193504186Y-112958523D01*
X193531679Y-113015808D01*
X193533300Y-113035791D01*
X193533300Y-114739006D01*
X193533300Y-114876994D01*
X193533300Y-114876996D01*
X193533299Y-114876996D01*
X193560218Y-115012322D01*
X193560221Y-115012332D01*
X193613022Y-115139807D01*
X193689687Y-115254545D01*
X194904854Y-116469712D01*
X195019592Y-116546377D01*
X195147067Y-116599178D01*
X195147072Y-116599180D01*
X195147076Y-116599180D01*
X195147077Y-116599181D01*
X195282403Y-116626100D01*
X195282406Y-116626100D01*
X218102596Y-116626100D01*
X218193640Y-116607989D01*
X218237928Y-116599180D01*
X218301669Y-116572777D01*
X218365407Y-116546377D01*
X218365408Y-116546376D01*
X218365411Y-116546375D01*
X218480143Y-116469714D01*
X221219314Y-113730543D01*
X221295975Y-113615811D01*
X221300185Y-113605649D01*
X221326848Y-113541277D01*
X221348780Y-113488328D01*
X221362731Y-113418194D01*
X221375700Y-113352996D01*
X221375700Y-109620904D01*
X221348781Y-109485577D01*
X221348780Y-109485576D01*
X221348780Y-109485572D01*
X221317675Y-109410477D01*
X221295976Y-109358091D01*
X221269278Y-109318134D01*
X221269278Y-109318133D01*
X221269276Y-109318132D01*
X221219314Y-109243357D01*
X221219311Y-109243353D01*
X220954003Y-108978046D01*
X220920518Y-108916723D01*
X220918365Y-108903343D01*
X220913174Y-108853944D01*
X220900905Y-108816185D01*
X220854681Y-108673922D01*
X220854680Y-108673921D01*
X220854679Y-108673916D01*
X220760033Y-108509984D01*
X220633371Y-108369312D01*
X220633370Y-108369311D01*
X220480234Y-108258051D01*
X220480229Y-108258048D01*
X220307307Y-108181057D01*
X220307302Y-108181055D01*
X220161501Y-108150065D01*
X220122146Y-108141700D01*
X219932854Y-108141700D01*
X219900397Y-108148598D01*
X219747697Y-108181055D01*
X219747692Y-108181057D01*
X219574770Y-108258048D01*
X219574765Y-108258051D01*
X219421629Y-108369311D01*
X219294966Y-108509985D01*
X219200321Y-108673915D01*
X219200318Y-108673922D01*
X219148690Y-108832819D01*
X219141826Y-108853944D01*
X219133820Y-108930115D01*
X219107236Y-108994728D01*
X219049939Y-109034713D01*
X218980120Y-109037373D01*
X218919946Y-109001864D01*
X218888523Y-108939459D01*
X218886500Y-108917152D01*
X218886500Y-105112404D01*
X218859581Y-104977077D01*
X218859580Y-104977076D01*
X218859580Y-104977072D01*
X218851059Y-104956501D01*
X218806778Y-104849595D01*
X218806771Y-104849582D01*
X218730115Y-104734859D01*
X218730110Y-104734854D01*
X218632542Y-104637286D01*
X217861156Y-103865900D01*
X217084432Y-103089175D01*
X217050947Y-103027852D01*
X217054181Y-102963178D01*
X217075002Y-102899101D01*
X217102100Y-102728011D01*
X217102100Y-102554789D01*
X217075002Y-102383699D01*
X217021473Y-102218955D01*
X216942832Y-102064612D01*
X216841014Y-101924472D01*
X216718528Y-101801986D01*
X216578388Y-101700168D01*
X216453325Y-101636446D01*
X216424047Y-101621528D01*
X216424046Y-101621527D01*
X216424045Y-101621527D01*
X216259301Y-101567998D01*
X216259299Y-101567997D01*
X216259298Y-101567997D01*
X216127871Y-101547181D01*
X216088211Y-101540900D01*
X216088210Y-101540900D01*
X196654462Y-101540900D01*
X196587423Y-101521215D01*
X196541668Y-101468411D01*
X196531724Y-101399253D01*
X196560749Y-101335697D01*
X196566781Y-101329219D01*
X207316062Y-90579938D01*
X218187215Y-79708785D01*
X218237408Y-79639700D01*
X218289032Y-79568646D01*
X218367673Y-79414303D01*
X218384639Y-79362088D01*
X218421203Y-79249559D01*
X218431831Y-79182456D01*
X218448300Y-79078473D01*
X218448300Y-75224389D01*
X218438868Y-75164838D01*
X218421202Y-75053299D01*
X218367673Y-74888555D01*
X218289032Y-74734212D01*
X218187214Y-74594072D01*
X218064728Y-74471586D01*
X217924588Y-74369768D01*
X217770245Y-74291127D01*
X217605501Y-74237598D01*
X217605499Y-74237597D01*
X217605498Y-74237597D01*
X217454463Y-74213676D01*
X217434411Y-74210500D01*
X217289319Y-74210500D01*
X217222280Y-74190815D01*
X217201638Y-74174181D01*
X215808019Y-72780562D01*
X215774534Y-72719239D01*
X215771700Y-72692881D01*
X215771700Y-71481391D01*
X215791385Y-71414352D01*
X215803552Y-71398417D01*
X215803733Y-71398216D01*
X215898379Y-71234284D01*
X215956874Y-71054256D01*
X215976660Y-70866000D01*
X215956874Y-70677744D01*
X215898379Y-70497716D01*
X215803733Y-70333784D01*
X215677071Y-70193112D01*
X215677070Y-70193111D01*
X215523934Y-70081851D01*
X215523929Y-70081848D01*
X215351007Y-70004857D01*
X215351002Y-70004855D01*
X215205201Y-69973865D01*
X215165846Y-69965500D01*
X214976554Y-69965500D01*
X214944097Y-69972398D01*
X214791397Y-70004855D01*
X214791392Y-70004857D01*
X214618470Y-70081848D01*
X214618465Y-70081851D01*
X214465329Y-70193111D01*
X214338666Y-70333785D01*
X214244021Y-70497715D01*
X214244018Y-70497722D01*
X214204546Y-70619206D01*
X214185526Y-70677744D01*
X214165740Y-70866000D01*
X214185526Y-71054256D01*
X214185527Y-71054259D01*
X214244018Y-71234277D01*
X214244021Y-71234284D01*
X214338666Y-71398215D01*
X214338848Y-71398417D01*
X214338916Y-71398559D01*
X214342485Y-71403471D01*
X214341586Y-71404123D01*
X214369079Y-71461408D01*
X214370700Y-71481391D01*
X214370700Y-72965406D01*
X214370700Y-73103394D01*
X214370700Y-73103396D01*
X214370699Y-73103396D01*
X214397618Y-73238722D01*
X214397621Y-73238732D01*
X214450422Y-73366207D01*
X214527087Y-73480945D01*
X214527088Y-73480946D01*
X216210981Y-75164838D01*
X216244466Y-75226161D01*
X216247300Y-75252519D01*
X216247300Y-78484654D01*
X216227615Y-78551693D01*
X216210981Y-78572335D01*
X177349335Y-117433981D01*
X177288012Y-117467466D01*
X177261654Y-117470300D01*
X125320046Y-117470300D01*
X125253007Y-117450615D01*
X125248923Y-117447875D01*
X125183942Y-117402375D01*
X125140317Y-117347798D01*
X125133123Y-117278300D01*
X125164646Y-117215945D01*
X125183942Y-117199225D01*
X125206126Y-117183691D01*
X125369501Y-117069295D01*
X125536595Y-116902201D01*
X125672135Y-116708630D01*
X125772003Y-116494463D01*
X125833163Y-116266208D01*
X125853759Y-116030800D01*
X125833163Y-115795392D01*
X125772003Y-115567137D01*
X125672135Y-115352971D01*
X125670584Y-115350755D01*
X125536594Y-115159397D01*
X125369502Y-114992306D01*
X125369501Y-114992305D01*
X125236885Y-114899446D01*
X125183941Y-114862374D01*
X125140316Y-114807797D01*
X125133124Y-114738298D01*
X125164646Y-114675944D01*
X125183935Y-114659229D01*
X125248924Y-114613723D01*
X125315130Y-114591397D01*
X125320046Y-114591300D01*
X149483396Y-114591300D01*
X149550435Y-114610985D01*
X149571077Y-114627619D01*
X151581472Y-116638014D01*
X151721612Y-116739832D01*
X151875955Y-116818473D01*
X152040699Y-116872002D01*
X152211789Y-116899100D01*
X152211790Y-116899100D01*
X153172410Y-116899100D01*
X153172411Y-116899100D01*
X153323139Y-116875227D01*
X153342537Y-116873700D01*
X158709610Y-116873700D01*
X158709611Y-116873700D01*
X158880701Y-116846602D01*
X159045445Y-116793073D01*
X159199788Y-116714432D01*
X159339928Y-116612614D01*
X159462414Y-116490128D01*
X159564232Y-116349988D01*
X159642873Y-116195645D01*
X159696402Y-116030901D01*
X159723500Y-115859811D01*
X159723500Y-115686589D01*
X159696402Y-115515499D01*
X159642873Y-115350755D01*
X159564232Y-115196412D01*
X159462414Y-115056272D01*
X159339928Y-114933786D01*
X159199788Y-114831968D01*
X159045445Y-114753327D01*
X158880701Y-114699798D01*
X158880699Y-114699797D01*
X158880698Y-114699797D01*
X158730099Y-114675945D01*
X158709611Y-114672700D01*
X157363411Y-114672700D01*
X153197811Y-114672700D01*
X153024589Y-114672700D01*
X152885183Y-114694779D01*
X152873861Y-114696573D01*
X152854463Y-114698100D01*
X152805604Y-114698100D01*
X152738565Y-114678415D01*
X152717923Y-114661781D01*
X150707530Y-112651388D01*
X150707528Y-112651386D01*
X150567388Y-112549568D01*
X150413045Y-112470927D01*
X150248301Y-112417398D01*
X150248299Y-112417397D01*
X150248298Y-112417397D01*
X150116871Y-112396581D01*
X150077211Y-112390300D01*
X150077210Y-112390300D01*
X125320046Y-112390300D01*
X125253007Y-112370615D01*
X125248923Y-112367875D01*
X125183942Y-112322375D01*
X125140317Y-112267798D01*
X125133123Y-112198300D01*
X125164646Y-112135945D01*
X125183942Y-112119225D01*
X125245626Y-112076033D01*
X125369501Y-111989295D01*
X125536595Y-111822201D01*
X125672135Y-111628630D01*
X125772003Y-111414463D01*
X125808728Y-111277400D01*
X154212340Y-111277400D01*
X154232126Y-111465656D01*
X154232127Y-111465659D01*
X154290618Y-111645677D01*
X154290621Y-111645684D01*
X154385267Y-111809616D01*
X154511929Y-111950288D01*
X154665065Y-112061548D01*
X154665070Y-112061551D01*
X154837992Y-112138542D01*
X154837997Y-112138544D01*
X155023154Y-112177900D01*
X155023155Y-112177900D01*
X155212444Y-112177900D01*
X155212446Y-112177900D01*
X155397603Y-112138544D01*
X155570530Y-112061551D01*
X155723671Y-111950288D01*
X155850333Y-111809616D01*
X155944979Y-111645684D01*
X156003474Y-111465656D01*
X156023260Y-111277400D01*
X156003474Y-111089144D01*
X155944979Y-110909116D01*
X155850333Y-110745184D01*
X155850144Y-110744974D01*
X155850073Y-110744827D01*
X155846514Y-110739928D01*
X155847410Y-110739276D01*
X155819919Y-110681980D01*
X155818300Y-110662008D01*
X155818300Y-105522919D01*
X155837985Y-105455880D01*
X155854619Y-105435238D01*
X157327438Y-103962419D01*
X157388761Y-103928934D01*
X157415119Y-103926100D01*
X158115407Y-103926100D01*
X158182446Y-103945785D01*
X158228201Y-103998589D01*
X158238145Y-104067747D01*
X158222794Y-104112100D01*
X158126021Y-104279715D01*
X158126018Y-104279722D01*
X158067527Y-104459740D01*
X158067526Y-104459744D01*
X158047740Y-104648000D01*
X158067526Y-104836256D01*
X158067527Y-104836259D01*
X158126018Y-105016277D01*
X158126021Y-105016284D01*
X158220666Y-105180215D01*
X158220848Y-105180417D01*
X158220916Y-105180559D01*
X158224485Y-105185471D01*
X158223586Y-105186123D01*
X158251079Y-105243408D01*
X158252700Y-105263391D01*
X158252700Y-108960208D01*
X158233015Y-109027247D01*
X158220856Y-109043174D01*
X158220668Y-109043382D01*
X158220664Y-109043387D01*
X158126021Y-109207315D01*
X158126018Y-109207322D01*
X158077031Y-109358091D01*
X158067526Y-109387344D01*
X158047740Y-109575600D01*
X158067526Y-109763856D01*
X158067527Y-109763859D01*
X158126018Y-109943877D01*
X158126021Y-109943884D01*
X158220667Y-110107816D01*
X158326399Y-110225243D01*
X158347329Y-110248488D01*
X158500465Y-110359748D01*
X158500470Y-110359751D01*
X158673391Y-110436742D01*
X158673393Y-110436742D01*
X158673397Y-110436744D01*
X158795842Y-110462770D01*
X158857320Y-110495961D01*
X158891097Y-110557123D01*
X158893379Y-110597020D01*
X158885940Y-110667800D01*
X158905726Y-110856056D01*
X158905727Y-110856059D01*
X158964218Y-111036077D01*
X158964221Y-111036084D01*
X159058867Y-111200016D01*
X159112163Y-111259207D01*
X159185529Y-111340688D01*
X159338665Y-111451948D01*
X159338670Y-111451951D01*
X159511592Y-111528942D01*
X159511597Y-111528944D01*
X159696754Y-111568300D01*
X159696755Y-111568300D01*
X159886044Y-111568300D01*
X159886046Y-111568300D01*
X160071203Y-111528944D01*
X160244130Y-111451951D01*
X160295739Y-111414455D01*
X160326671Y-111391982D01*
X160392477Y-111368502D01*
X160399556Y-111368300D01*
X161536796Y-111368300D01*
X161627840Y-111350189D01*
X161672128Y-111341380D01*
X161735869Y-111314977D01*
X161799607Y-111288577D01*
X161799608Y-111288576D01*
X161799611Y-111288575D01*
X161914343Y-111211914D01*
X164393333Y-108732921D01*
X164393338Y-108732918D01*
X164403541Y-108722714D01*
X164403543Y-108722714D01*
X166710914Y-106415343D01*
X166787575Y-106300611D01*
X166798133Y-106275123D01*
X166840378Y-106173132D01*
X166840380Y-106173128D01*
X166861134Y-106068789D01*
X166867300Y-106037793D01*
X166867300Y-103764791D01*
X166886985Y-103697752D01*
X166899152Y-103681817D01*
X166899333Y-103681616D01*
X166993979Y-103517684D01*
X167052474Y-103337656D01*
X167072260Y-103149400D01*
X167052474Y-102961144D01*
X166993979Y-102781116D01*
X166899333Y-102617184D01*
X166772671Y-102476512D01*
X166772670Y-102476511D01*
X166619534Y-102365251D01*
X166619529Y-102365248D01*
X166446607Y-102288257D01*
X166446602Y-102288255D01*
X166300801Y-102257265D01*
X166261446Y-102248900D01*
X166072154Y-102248900D01*
X166039697Y-102255798D01*
X165886997Y-102288255D01*
X165886992Y-102288257D01*
X165714070Y-102365248D01*
X165714065Y-102365251D01*
X165560929Y-102476511D01*
X165434266Y-102617185D01*
X165339621Y-102781115D01*
X165339618Y-102781122D01*
X165301287Y-102899095D01*
X165281126Y-102961144D01*
X165261340Y-103149400D01*
X165281126Y-103337656D01*
X165281127Y-103337659D01*
X165339618Y-103517677D01*
X165339621Y-103517684D01*
X165434266Y-103681615D01*
X165434448Y-103681817D01*
X165434516Y-103681959D01*
X165438085Y-103686871D01*
X165437186Y-103687523D01*
X165464679Y-103744808D01*
X165466300Y-103764791D01*
X165466300Y-105627281D01*
X165446615Y-105694320D01*
X165429981Y-105714962D01*
X161213962Y-109930981D01*
X161152639Y-109964466D01*
X161126281Y-109967300D01*
X160399556Y-109967300D01*
X160332517Y-109947615D01*
X160326671Y-109943618D01*
X160244134Y-109883651D01*
X160244129Y-109883648D01*
X160071207Y-109806657D01*
X160071202Y-109806655D01*
X159948760Y-109780630D01*
X159887278Y-109747438D01*
X159853502Y-109686275D01*
X159851220Y-109646384D01*
X159858660Y-109575600D01*
X159838874Y-109387344D01*
X159780379Y-109207316D01*
X159685733Y-109043384D01*
X159685544Y-109043174D01*
X159685473Y-109043027D01*
X159681914Y-109038128D01*
X159682810Y-109037476D01*
X159655319Y-108980180D01*
X159653700Y-108960208D01*
X159653700Y-105263391D01*
X159673385Y-105196352D01*
X159685552Y-105180417D01*
X159685733Y-105180216D01*
X159780379Y-105016284D01*
X159838874Y-104836256D01*
X159858660Y-104648000D01*
X159838874Y-104459744D01*
X159780379Y-104279716D01*
X159685733Y-104115784D01*
X159685732Y-104115783D01*
X159683606Y-104112100D01*
X159667133Y-104044200D01*
X159689986Y-103978173D01*
X159744907Y-103934982D01*
X159790993Y-103926100D01*
X161316844Y-103926100D01*
X161383883Y-103945785D01*
X161389729Y-103949782D01*
X161472265Y-104009748D01*
X161472270Y-104009751D01*
X161645192Y-104086742D01*
X161645197Y-104086744D01*
X161830354Y-104126100D01*
X161830355Y-104126100D01*
X162019644Y-104126100D01*
X162019646Y-104126100D01*
X162204803Y-104086744D01*
X162377730Y-104009751D01*
X162530871Y-103898488D01*
X162657533Y-103757816D01*
X162752179Y-103593884D01*
X162810674Y-103413856D01*
X162830460Y-103225600D01*
X162810674Y-103037344D01*
X162752179Y-102857316D01*
X162657533Y-102693384D01*
X162530871Y-102552712D01*
X162529916Y-102552018D01*
X162377734Y-102441451D01*
X162377729Y-102441448D01*
X162204807Y-102364457D01*
X162204802Y-102364455D01*
X162059001Y-102333465D01*
X162019646Y-102325100D01*
X161830354Y-102325100D01*
X161797897Y-102331998D01*
X161645197Y-102364455D01*
X161645192Y-102364457D01*
X161472270Y-102441448D01*
X161472265Y-102441451D01*
X161389729Y-102501418D01*
X161323923Y-102524898D01*
X161316844Y-102525100D01*
X157004604Y-102525100D01*
X156869277Y-102552018D01*
X156869267Y-102552021D01*
X156741792Y-102604822D01*
X156627054Y-102681487D01*
X154573687Y-104734854D01*
X154551362Y-104768266D01*
X154529138Y-104801528D01*
X154513026Y-104825641D01*
X154497023Y-104849591D01*
X154444221Y-104977067D01*
X154444218Y-104977077D01*
X154417300Y-105112404D01*
X154417300Y-110662008D01*
X154397615Y-110729047D01*
X154385456Y-110744974D01*
X154385268Y-110745182D01*
X154385264Y-110745187D01*
X154290621Y-110909115D01*
X154290618Y-110909122D01*
X154249366Y-111036084D01*
X154232126Y-111089144D01*
X154212340Y-111277400D01*
X125808728Y-111277400D01*
X125833163Y-111186208D01*
X125853759Y-110950800D01*
X125833163Y-110715392D01*
X125772003Y-110487137D01*
X125672135Y-110272971D01*
X125621024Y-110199976D01*
X125598697Y-110133770D01*
X125598600Y-110128854D01*
X125598600Y-108460289D01*
X125584316Y-108370103D01*
X125571502Y-108289199D01*
X125528439Y-108156666D01*
X125517973Y-108124454D01*
X125439332Y-107970112D01*
X125337514Y-107829972D01*
X124364128Y-106856586D01*
X124223988Y-106754768D01*
X124069645Y-106676127D01*
X123904901Y-106622598D01*
X123904899Y-106622597D01*
X123904898Y-106622597D01*
X123773471Y-106601781D01*
X123733811Y-106595500D01*
X123733810Y-106595500D01*
X119734804Y-106595500D01*
X119667765Y-106575815D01*
X119647123Y-106559181D01*
X117367219Y-104279277D01*
X117333734Y-104217954D01*
X117330900Y-104191596D01*
X117330900Y-79450404D01*
X117350585Y-79383365D01*
X117367219Y-79362723D01*
X118363531Y-78366411D01*
X118771614Y-77958328D01*
X119508214Y-77221728D01*
X119610032Y-77081588D01*
X119688673Y-76927245D01*
X119742202Y-76762501D01*
X119758665Y-76658558D01*
X119769300Y-76591415D01*
X119769300Y-76418189D01*
X119758880Y-76352400D01*
X119742202Y-76247099D01*
X119688673Y-76082354D01*
X119688671Y-76082351D01*
X119688671Y-76082349D01*
X119636303Y-75979572D01*
X119610032Y-75928012D01*
X119508214Y-75787872D01*
X119385728Y-75665386D01*
X119245588Y-75563568D01*
X119091250Y-75484928D01*
X118926501Y-75431398D01*
X118900899Y-75427343D01*
X118755411Y-75404300D01*
X118582190Y-75404300D01*
X118582185Y-75404300D01*
X118411102Y-75431397D01*
X118246352Y-75484928D01*
X118092011Y-75563568D01*
X118012056Y-75621659D01*
X117951872Y-75665386D01*
X117951870Y-75665388D01*
X117951869Y-75665388D01*
X115390988Y-78226269D01*
X115390988Y-78226270D01*
X115390986Y-78226272D01*
X115361573Y-78266755D01*
X115289168Y-78366411D01*
X115210528Y-78520752D01*
X115156997Y-78685502D01*
X115143807Y-78768781D01*
X115129900Y-78856589D01*
X115129900Y-104612189D01*
X115129900Y-104785411D01*
X115137954Y-104836259D01*
X115141853Y-104860878D01*
X115132897Y-104930172D01*
X115087900Y-104983623D01*
X115021148Y-105004262D01*
X114953835Y-104985536D01*
X114931698Y-104967956D01*
X114192219Y-104228477D01*
X114158734Y-104167154D01*
X114155900Y-104140796D01*
X114155900Y-88991189D01*
X114128802Y-88820102D01*
X114128802Y-88820099D01*
X114075273Y-88655355D01*
X113996632Y-88501012D01*
X113894814Y-88360872D01*
X113772328Y-88238386D01*
X113632188Y-88136568D01*
X113477845Y-88057927D01*
X113313101Y-88004398D01*
X113313099Y-88004397D01*
X113313098Y-88004397D01*
X113181671Y-87983581D01*
X113142011Y-87977300D01*
X112968789Y-87977300D01*
X112932278Y-87983082D01*
X112797689Y-88004399D01*
X112797224Y-88004511D01*
X112797042Y-88004501D01*
X112792887Y-88005160D01*
X112792748Y-88004286D01*
X112727442Y-88001003D01*
X112670635Y-87960326D01*
X112667988Y-87956816D01*
X112574014Y-87827472D01*
X112451528Y-87704986D01*
X112311388Y-87603168D01*
X112157045Y-87524527D01*
X111992301Y-87470998D01*
X111992299Y-87470997D01*
X111992298Y-87470997D01*
X111860871Y-87450181D01*
X111821211Y-87443900D01*
X111647989Y-87443900D01*
X111608328Y-87450181D01*
X111476902Y-87470997D01*
X111312152Y-87524528D01*
X111157811Y-87603168D01*
X111077856Y-87661259D01*
X111017672Y-87704986D01*
X111017670Y-87704988D01*
X111017669Y-87704988D01*
X110895188Y-87827469D01*
X110895188Y-87827470D01*
X110895186Y-87827472D01*
X110864205Y-87870114D01*
X110793368Y-87967611D01*
X110714728Y-88121952D01*
X110661197Y-88286702D01*
X110634100Y-88457789D01*
X108955300Y-88457789D01*
X108955300Y-76516119D01*
X108974985Y-76449080D01*
X108991619Y-76428438D01*
X113025993Y-72394064D01*
X113087316Y-72360579D01*
X113113674Y-72357745D01*
X113827219Y-72357745D01*
X113894258Y-72377430D01*
X113900104Y-72381427D01*
X113982640Y-72441393D01*
X113982645Y-72441396D01*
X114155566Y-72518387D01*
X114155568Y-72518387D01*
X114155572Y-72518389D01*
X114261442Y-72540892D01*
X114322920Y-72574083D01*
X114356697Y-72635245D01*
X114352045Y-72704960D01*
X114310441Y-72761093D01*
X114261440Y-72783471D01*
X114170971Y-72802701D01*
X114170967Y-72802702D01*
X113998045Y-72879693D01*
X113998040Y-72879696D01*
X113844904Y-72990956D01*
X113718241Y-73131630D01*
X113623596Y-73295560D01*
X113623593Y-73295567D01*
X113565102Y-73475585D01*
X113565101Y-73475589D01*
X113545315Y-73663845D01*
X113565101Y-73852101D01*
X113565102Y-73852104D01*
X113623593Y-74032122D01*
X113623596Y-74032129D01*
X113718242Y-74196061D01*
X113781529Y-74266348D01*
X113844904Y-74336733D01*
X113998040Y-74447993D01*
X113998045Y-74447996D01*
X114170967Y-74524987D01*
X114170972Y-74524989D01*
X114356129Y-74564345D01*
X114356130Y-74564345D01*
X114545419Y-74564345D01*
X114545421Y-74564345D01*
X114730578Y-74524989D01*
X114903505Y-74447996D01*
X114919095Y-74436668D01*
X114986046Y-74388027D01*
X115051852Y-74364547D01*
X115058931Y-74364345D01*
X115660551Y-74364345D01*
X115751595Y-74346234D01*
X115795883Y-74337425D01*
X115859624Y-74311022D01*
X115923362Y-74284622D01*
X115923363Y-74284621D01*
X115923366Y-74284620D01*
X116038098Y-74207959D01*
X118247714Y-71998343D01*
X118324375Y-71883611D01*
X118340160Y-71845504D01*
X118365440Y-71784471D01*
X118377180Y-71756128D01*
X118385989Y-71711840D01*
X118404100Y-71620796D01*
X118404100Y-65191389D01*
X119625700Y-65191389D01*
X119625700Y-65364611D01*
X119652798Y-65535701D01*
X119706327Y-65700445D01*
X119784968Y-65854788D01*
X119886786Y-65994928D01*
X120009272Y-66117414D01*
X120149412Y-66219232D01*
X120303755Y-66297873D01*
X120468499Y-66351402D01*
X120639589Y-66378500D01*
X120690389Y-66378500D01*
X124409996Y-66378500D01*
X124477035Y-66398185D01*
X124497677Y-66414819D01*
X126320381Y-68237523D01*
X126353866Y-68298846D01*
X126356700Y-68325204D01*
X126356700Y-89495945D01*
X126337015Y-89562984D01*
X126320381Y-89583626D01*
X124127686Y-91776320D01*
X124072099Y-91808414D01*
X123856641Y-91866145D01*
X123856635Y-91866148D01*
X123642471Y-91966014D01*
X123642469Y-91966015D01*
X123448900Y-92101553D01*
X123326973Y-92223480D01*
X123265650Y-92256964D01*
X123195958Y-92251980D01*
X123140025Y-92210108D01*
X123123110Y-92179131D01*
X123074097Y-92047721D01*
X123074093Y-92047714D01*
X122999446Y-91948000D01*
X122987846Y-91932504D01*
X122987842Y-91932501D01*
X122930488Y-91889565D01*
X122888618Y-91833631D01*
X122880800Y-91790299D01*
X122880800Y-85076504D01*
X122900485Y-85009465D01*
X122917119Y-84988823D01*
X123594343Y-84311599D01*
X124385014Y-83520928D01*
X124486832Y-83380788D01*
X124565473Y-83226446D01*
X124619002Y-83061701D01*
X124646100Y-82890611D01*
X124646100Y-82717389D01*
X124619002Y-82546299D01*
X124565473Y-82381555D01*
X124486832Y-82227212D01*
X124385014Y-82087072D01*
X124262528Y-81964586D01*
X124122388Y-81862768D01*
X123968045Y-81784127D01*
X123803301Y-81730598D01*
X123803299Y-81730597D01*
X123803298Y-81730597D01*
X123671871Y-81709781D01*
X123632211Y-81703500D01*
X123458989Y-81703500D01*
X123373444Y-81717049D01*
X123287898Y-81730598D01*
X123123149Y-81784128D01*
X122968811Y-81862768D01*
X122888856Y-81920859D01*
X122828672Y-81964586D01*
X122828670Y-81964588D01*
X122828669Y-81964588D01*
X120940888Y-83852369D01*
X120940888Y-83852370D01*
X120940886Y-83852372D01*
X120921467Y-83879100D01*
X120839068Y-83992511D01*
X120760428Y-84146852D01*
X120706897Y-84311602D01*
X120679800Y-84482689D01*
X120679800Y-91790299D01*
X120660115Y-91857338D01*
X120630112Y-91889565D01*
X120572757Y-91932501D01*
X120572751Y-91932507D01*
X120486506Y-92047714D01*
X120486502Y-92047721D01*
X120436208Y-92182567D01*
X120429801Y-92242166D01*
X120429800Y-92242185D01*
X120429800Y-94037920D01*
X120429801Y-94037926D01*
X120436208Y-94097533D01*
X120486502Y-94232378D01*
X120486506Y-94232385D01*
X120572752Y-94347594D01*
X120572755Y-94347597D01*
X120687964Y-94433843D01*
X120687971Y-94433847D01*
X120819381Y-94482860D01*
X120875315Y-94524731D01*
X120899732Y-94590195D01*
X120884880Y-94658468D01*
X120863730Y-94686723D01*
X120741803Y-94808650D01*
X120606265Y-95002219D01*
X120606264Y-95002221D01*
X120546579Y-95130217D01*
X120507969Y-95213017D01*
X120506398Y-95216385D01*
X120506394Y-95216394D01*
X120445238Y-95444636D01*
X120445236Y-95444646D01*
X120424641Y-95680049D01*
X120424641Y-95680050D01*
X120445236Y-95915453D01*
X120445238Y-95915463D01*
X120506394Y-96143705D01*
X120506396Y-96143709D01*
X120506397Y-96143713D01*
X120586304Y-96315073D01*
X120606265Y-96357880D01*
X120606267Y-96357884D01*
X120712459Y-96509540D01*
X120741801Y-96551446D01*
X120741806Y-96551452D01*
X120908897Y-96718543D01*
X120908903Y-96718548D01*
X121094458Y-96848475D01*
X121138083Y-96903052D01*
X121145277Y-96972550D01*
X121113754Y-97034905D01*
X121094458Y-97051625D01*
X120908897Y-97181555D01*
X120741805Y-97348647D01*
X120606265Y-97542219D01*
X120606264Y-97542221D01*
X120512701Y-97742866D01*
X120507969Y-97753017D01*
X120506398Y-97756385D01*
X120506394Y-97756394D01*
X120445238Y-97984636D01*
X120445236Y-97984646D01*
X120424641Y-98220049D01*
X120424641Y-98220050D01*
X120445236Y-98455453D01*
X120445238Y-98455463D01*
X120506394Y-98683705D01*
X120506396Y-98683709D01*
X120506397Y-98683713D01*
X120586304Y-98855073D01*
X120606265Y-98897880D01*
X120606267Y-98897884D01*
X120665067Y-98981858D01*
X120741801Y-99091446D01*
X120741806Y-99091452D01*
X120908897Y-99258543D01*
X120908903Y-99258548D01*
X121094458Y-99388475D01*
X121138083Y-99443052D01*
X121145277Y-99512550D01*
X121113754Y-99574905D01*
X121094458Y-99591625D01*
X120908897Y-99721555D01*
X120741805Y-99888647D01*
X120606265Y-100082219D01*
X120606264Y-100082221D01*
X120541580Y-100220937D01*
X120507969Y-100293017D01*
X120506398Y-100296385D01*
X120506394Y-100296394D01*
X120445238Y-100524636D01*
X120445236Y-100524646D01*
X120424641Y-100760049D01*
X120424641Y-100760050D01*
X120445236Y-100995453D01*
X120445238Y-100995463D01*
X120506394Y-101223705D01*
X120506396Y-101223709D01*
X120506397Y-101223713D01*
X120558616Y-101335697D01*
X120606265Y-101437880D01*
X120606267Y-101437884D01*
X120678400Y-101540900D01*
X120741805Y-101631451D01*
X120908899Y-101798545D01*
X120908901Y-101798547D01*
X120908903Y-101798548D01*
X121094458Y-101928475D01*
X121138083Y-101983052D01*
X121145277Y-102052550D01*
X121113754Y-102114905D01*
X121094458Y-102131625D01*
X120908897Y-102261555D01*
X120741805Y-102428647D01*
X120606265Y-102622219D01*
X120606264Y-102622221D01*
X120512701Y-102822866D01*
X120507969Y-102833017D01*
X120506398Y-102836385D01*
X120506394Y-102836394D01*
X120445238Y-103064636D01*
X120445236Y-103064646D01*
X120424641Y-103300049D01*
X120424641Y-103300050D01*
X120445236Y-103535453D01*
X120445238Y-103535463D01*
X120506394Y-103763705D01*
X120506396Y-103763709D01*
X120506397Y-103763713D01*
X120562277Y-103883547D01*
X120606265Y-103977880D01*
X120606267Y-103977884D01*
X120710050Y-104126100D01*
X120741805Y-104171451D01*
X120908899Y-104338545D01*
X120966618Y-104378960D01*
X121102465Y-104474082D01*
X121102467Y-104474083D01*
X121102470Y-104474085D01*
X121316637Y-104573953D01*
X121544892Y-104635113D01*
X121733218Y-104651589D01*
X121780299Y-104655709D01*
X121780300Y-104655709D01*
X121780301Y-104655709D01*
X121819534Y-104652276D01*
X122015708Y-104635113D01*
X122243963Y-104573953D01*
X122458130Y-104474085D01*
X122651701Y-104338545D01*
X122818795Y-104171451D01*
X122948725Y-103985892D01*
X123003302Y-103942267D01*
X123072800Y-103935073D01*
X123135155Y-103966596D01*
X123151875Y-103985892D01*
X123281800Y-104171445D01*
X123281805Y-104171451D01*
X123448899Y-104338545D01*
X123506618Y-104378960D01*
X123642465Y-104474082D01*
X123642467Y-104474083D01*
X123642470Y-104474085D01*
X123856637Y-104573953D01*
X124084892Y-104635113D01*
X124273218Y-104651589D01*
X124320299Y-104655709D01*
X124320300Y-104655709D01*
X124320301Y-104655709D01*
X124359534Y-104652276D01*
X124555708Y-104635113D01*
X124783963Y-104573953D01*
X124998130Y-104474085D01*
X125191701Y-104338545D01*
X125358795Y-104171451D01*
X125494335Y-103977880D01*
X125594203Y-103763713D01*
X125655363Y-103535458D01*
X125675959Y-103300050D01*
X125655363Y-103064642D01*
X125608926Y-102891335D01*
X125594205Y-102836394D01*
X125594204Y-102836393D01*
X125594203Y-102836387D01*
X125494335Y-102622221D01*
X125492226Y-102619208D01*
X125358794Y-102428647D01*
X125191702Y-102261556D01*
X125191701Y-102261555D01*
X125013283Y-102136625D01*
X125006141Y-102131624D01*
X124962516Y-102077047D01*
X124955324Y-102007548D01*
X124986846Y-101945194D01*
X125006135Y-101928479D01*
X125071124Y-101882973D01*
X125137330Y-101860647D01*
X125142246Y-101860550D01*
X185457560Y-101860550D01*
X185457561Y-101860550D01*
X185628651Y-101833452D01*
X185793395Y-101779923D01*
X185947738Y-101701282D01*
X186087878Y-101599464D01*
X209856014Y-77831328D01*
X209957832Y-77691188D01*
X210036473Y-77536845D01*
X210090002Y-77372101D01*
X210117100Y-77201011D01*
X210117100Y-77027789D01*
X210117100Y-68874389D01*
X210090002Y-68703299D01*
X210036473Y-68538555D01*
X209957832Y-68384212D01*
X209856014Y-68244072D01*
X209733528Y-68121586D01*
X209593388Y-68019768D01*
X209439045Y-67941127D01*
X209274301Y-67887598D01*
X209274299Y-67887597D01*
X209274298Y-67887597D01*
X209142871Y-67866781D01*
X209103211Y-67860500D01*
X208929989Y-67860500D01*
X208890328Y-67866781D01*
X208758902Y-67887597D01*
X208594152Y-67941128D01*
X208439811Y-68019768D01*
X208396380Y-68051323D01*
X208299672Y-68121586D01*
X208299670Y-68121588D01*
X208299669Y-68121588D01*
X208177188Y-68244069D01*
X208177188Y-68244070D01*
X208177186Y-68244072D01*
X208155557Y-68273842D01*
X208075368Y-68384211D01*
X207996728Y-68538552D01*
X207943197Y-68703302D01*
X207916100Y-68874389D01*
X207916100Y-76607196D01*
X207896415Y-76674235D01*
X207879781Y-76694877D01*
X184951427Y-99623231D01*
X184890104Y-99656716D01*
X184863746Y-99659550D01*
X125142246Y-99659550D01*
X125075207Y-99639865D01*
X125071123Y-99637125D01*
X125006142Y-99591625D01*
X124962517Y-99537048D01*
X124955323Y-99467550D01*
X124986846Y-99405195D01*
X125006142Y-99388475D01*
X125166948Y-99275877D01*
X125191701Y-99258545D01*
X125358795Y-99091451D01*
X125494335Y-98897880D01*
X125594203Y-98683713D01*
X125655363Y-98455458D01*
X125675959Y-98220050D01*
X125655363Y-97984642D01*
X125594203Y-97756387D01*
X125494335Y-97542221D01*
X125492226Y-97539208D01*
X125358794Y-97348647D01*
X125191702Y-97181556D01*
X125191701Y-97181555D01*
X125070046Y-97096371D01*
X125006141Y-97051624D01*
X124962516Y-96997047D01*
X124955324Y-96927548D01*
X124986846Y-96865194D01*
X125006135Y-96848479D01*
X125071124Y-96802973D01*
X125137330Y-96780647D01*
X125142246Y-96780550D01*
X157682246Y-96780550D01*
X157749285Y-96800235D01*
X157769927Y-96816869D01*
X159887272Y-98934214D01*
X160027412Y-99036032D01*
X160047904Y-99046473D01*
X160181749Y-99114671D01*
X160181751Y-99114671D01*
X160181754Y-99114673D01*
X160346499Y-99168202D01*
X160517589Y-99195300D01*
X160517590Y-99195300D01*
X160690810Y-99195300D01*
X160690811Y-99195300D01*
X160861901Y-99168202D01*
X161026645Y-99114673D01*
X161180988Y-99036032D01*
X161321128Y-98934214D01*
X161443614Y-98811728D01*
X161545432Y-98671588D01*
X161624073Y-98517245D01*
X161677602Y-98352501D01*
X161704700Y-98181411D01*
X161704700Y-98008189D01*
X161677602Y-97837099D01*
X161624073Y-97672354D01*
X161624071Y-97672351D01*
X161624071Y-97672349D01*
X161566287Y-97558942D01*
X161545432Y-97518012D01*
X161443614Y-97377872D01*
X158906378Y-94840636D01*
X158766238Y-94738818D01*
X158611895Y-94660177D01*
X158447151Y-94606648D01*
X158447149Y-94606647D01*
X158447148Y-94606647D01*
X158315721Y-94585831D01*
X158276061Y-94579550D01*
X158276060Y-94579550D01*
X125142246Y-94579550D01*
X125075207Y-94559865D01*
X125071123Y-94557125D01*
X125006142Y-94511625D01*
X124962517Y-94457048D01*
X124955323Y-94387550D01*
X124986846Y-94325195D01*
X125006142Y-94308475D01*
X125085951Y-94252592D01*
X125191701Y-94178545D01*
X125358795Y-94011451D01*
X125494335Y-93817880D01*
X125594203Y-93603713D01*
X125651936Y-93388246D01*
X125684027Y-93332663D01*
X128296615Y-90720077D01*
X128330021Y-90674097D01*
X128398432Y-90579938D01*
X128477073Y-90425595D01*
X128530603Y-90260850D01*
X128546861Y-90158196D01*
X128557700Y-90089764D01*
X128557700Y-87337900D01*
X132254040Y-87337900D01*
X132273826Y-87526156D01*
X132273827Y-87526159D01*
X132332318Y-87706177D01*
X132332321Y-87706184D01*
X132426967Y-87870116D01*
X132508193Y-87960326D01*
X132553629Y-88010788D01*
X132706765Y-88122048D01*
X132706770Y-88122051D01*
X132879691Y-88199042D01*
X132879693Y-88199042D01*
X132879697Y-88199044D01*
X133034630Y-88231975D01*
X133096107Y-88265166D01*
X133096526Y-88265583D01*
X138237453Y-93406511D01*
X138237454Y-93406512D01*
X138352192Y-93483177D01*
X138466483Y-93530517D01*
X138479672Y-93535980D01*
X138479676Y-93535980D01*
X138479677Y-93535981D01*
X138615003Y-93562900D01*
X138615006Y-93562900D01*
X138615007Y-93562900D01*
X158935007Y-93562900D01*
X159399081Y-93562900D01*
X159466120Y-93582585D01*
X159486762Y-93599219D01*
X162649495Y-96761952D01*
X162682980Y-96823275D01*
X162685134Y-96836669D01*
X162690325Y-96886049D01*
X162690327Y-96886060D01*
X162748818Y-97066077D01*
X162748821Y-97066084D01*
X162843467Y-97230016D01*
X162950283Y-97348647D01*
X162970129Y-97370688D01*
X163123265Y-97481948D01*
X163123270Y-97481951D01*
X163296192Y-97558942D01*
X163296197Y-97558944D01*
X163481354Y-97598300D01*
X163481355Y-97598300D01*
X163670644Y-97598300D01*
X163670646Y-97598300D01*
X163855803Y-97558944D01*
X164028730Y-97481951D01*
X164181871Y-97370688D01*
X164308533Y-97230016D01*
X164403179Y-97066084D01*
X164461674Y-96886056D01*
X164481460Y-96697800D01*
X164461674Y-96509544D01*
X164403179Y-96329516D01*
X164308533Y-96165584D01*
X164181871Y-96024912D01*
X164181870Y-96024911D01*
X164028734Y-95913651D01*
X164028729Y-95913648D01*
X163855807Y-95836657D01*
X163855802Y-95836655D01*
X163719490Y-95807682D01*
X163700872Y-95803724D01*
X163639391Y-95770533D01*
X163638973Y-95770116D01*
X160187146Y-92318288D01*
X160187145Y-92318287D01*
X160072407Y-92241622D01*
X159944932Y-92188821D01*
X159944922Y-92188818D01*
X159809596Y-92161900D01*
X159809594Y-92161900D01*
X159809593Y-92161900D01*
X159072993Y-92161900D01*
X139025519Y-92161900D01*
X138958480Y-92142215D01*
X138937838Y-92125581D01*
X138760256Y-91947999D01*
X169014841Y-91947999D01*
X169014841Y-91948000D01*
X169035436Y-92183403D01*
X169035438Y-92183413D01*
X169096594Y-92411655D01*
X169096596Y-92411659D01*
X169096597Y-92411663D01*
X169137970Y-92500387D01*
X169196465Y-92625830D01*
X169196467Y-92625834D01*
X169304781Y-92780521D01*
X169332001Y-92819396D01*
X169332006Y-92819402D01*
X169453930Y-92941326D01*
X169487415Y-93002649D01*
X169482431Y-93072341D01*
X169440559Y-93128274D01*
X169409583Y-93145189D01*
X169278169Y-93194203D01*
X169278164Y-93194206D01*
X169162955Y-93280452D01*
X169162952Y-93280455D01*
X169076706Y-93395664D01*
X169076702Y-93395671D01*
X169026408Y-93530517D01*
X169020001Y-93590116D01*
X169020000Y-93590135D01*
X169020000Y-95385870D01*
X169020001Y-95385876D01*
X169026408Y-95445483D01*
X169076702Y-95580328D01*
X169076706Y-95580335D01*
X169162952Y-95695544D01*
X169162955Y-95695547D01*
X169278164Y-95781793D01*
X169278171Y-95781797D01*
X169413017Y-95832091D01*
X169413016Y-95832091D01*
X169419944Y-95832835D01*
X169472627Y-95838500D01*
X171268372Y-95838499D01*
X171327983Y-95832091D01*
X171462831Y-95781796D01*
X171578046Y-95695546D01*
X171664296Y-95580331D01*
X171713310Y-95448916D01*
X171755181Y-95392984D01*
X171820645Y-95368566D01*
X171888918Y-95383417D01*
X171917173Y-95404569D01*
X172039099Y-95526495D01*
X172135884Y-95594265D01*
X172232665Y-95662032D01*
X172232667Y-95662033D01*
X172232670Y-95662035D01*
X172446837Y-95761903D01*
X172675092Y-95823063D01*
X172851534Y-95838500D01*
X172910499Y-95843659D01*
X172910500Y-95843659D01*
X172910501Y-95843659D01*
X172969466Y-95838500D01*
X173145908Y-95823063D01*
X173374163Y-95761903D01*
X173588330Y-95662035D01*
X173781901Y-95526495D01*
X173948995Y-95359401D01*
X174078925Y-95173842D01*
X174133502Y-95130217D01*
X174203000Y-95123023D01*
X174265355Y-95154546D01*
X174282075Y-95173842D01*
X174412000Y-95359395D01*
X174412005Y-95359401D01*
X174579099Y-95526495D01*
X174675884Y-95594265D01*
X174772665Y-95662032D01*
X174772667Y-95662033D01*
X174772670Y-95662035D01*
X174986837Y-95761903D01*
X175215092Y-95823063D01*
X175391534Y-95838500D01*
X175450499Y-95843659D01*
X175450500Y-95843659D01*
X175450501Y-95843659D01*
X175509466Y-95838500D01*
X175685908Y-95823063D01*
X175914163Y-95761903D01*
X176128330Y-95662035D01*
X176321901Y-95526495D01*
X176488995Y-95359401D01*
X176618925Y-95173842D01*
X176673502Y-95130217D01*
X176743000Y-95123023D01*
X176805355Y-95154546D01*
X176822075Y-95173842D01*
X176952000Y-95359395D01*
X176952005Y-95359401D01*
X177119099Y-95526495D01*
X177215884Y-95594265D01*
X177312665Y-95662032D01*
X177312667Y-95662033D01*
X177312670Y-95662035D01*
X177526837Y-95761903D01*
X177755092Y-95823063D01*
X177931534Y-95838500D01*
X177990499Y-95843659D01*
X177990500Y-95843659D01*
X177990501Y-95843659D01*
X178049466Y-95838500D01*
X178225908Y-95823063D01*
X178454163Y-95761903D01*
X178668330Y-95662035D01*
X178861901Y-95526495D01*
X179028995Y-95359401D01*
X179164535Y-95165830D01*
X179264403Y-94951663D01*
X179325563Y-94723408D01*
X179346159Y-94488000D01*
X179325563Y-94252592D01*
X179267385Y-94035467D01*
X179264405Y-94024344D01*
X179264404Y-94024343D01*
X179264403Y-94024337D01*
X179164535Y-93810171D01*
X179158925Y-93802158D01*
X179028994Y-93616597D01*
X178861902Y-93449506D01*
X178861896Y-93449501D01*
X178676342Y-93319575D01*
X178632717Y-93264998D01*
X178625523Y-93195500D01*
X178657046Y-93133145D01*
X178676342Y-93116425D01*
X178788554Y-93037853D01*
X178861901Y-92986495D01*
X179028995Y-92819401D01*
X179164535Y-92625830D01*
X179264403Y-92411663D01*
X179325563Y-92183408D01*
X179346159Y-91948000D01*
X179325563Y-91712592D01*
X179264403Y-91484337D01*
X179164535Y-91270171D01*
X179158925Y-91262158D01*
X179028994Y-91076597D01*
X178861902Y-90909506D01*
X178861895Y-90909501D01*
X178668334Y-90773967D01*
X178668330Y-90773965D01*
X178668328Y-90773964D01*
X178454163Y-90674097D01*
X178454159Y-90674096D01*
X178454155Y-90674094D01*
X178225913Y-90612938D01*
X178225903Y-90612936D01*
X177990501Y-90592341D01*
X177990499Y-90592341D01*
X177755096Y-90612936D01*
X177755086Y-90612938D01*
X177526844Y-90674094D01*
X177526837Y-90674096D01*
X177526837Y-90674097D01*
X177513316Y-90680401D01*
X177312671Y-90773964D01*
X177312669Y-90773965D01*
X177119097Y-90909505D01*
X176952005Y-91076597D01*
X176822075Y-91262158D01*
X176767498Y-91305783D01*
X176698000Y-91312977D01*
X176635645Y-91281454D01*
X176618925Y-91262158D01*
X176488994Y-91076597D01*
X176321902Y-90909506D01*
X176321895Y-90909501D01*
X176128334Y-90773967D01*
X176128330Y-90773965D01*
X176128328Y-90773964D01*
X175914163Y-90674097D01*
X175914159Y-90674096D01*
X175914155Y-90674094D01*
X175685913Y-90612938D01*
X175685903Y-90612936D01*
X175450501Y-90592341D01*
X175450499Y-90592341D01*
X175215096Y-90612936D01*
X175215086Y-90612938D01*
X174986844Y-90674094D01*
X174986837Y-90674096D01*
X174986837Y-90674097D01*
X174973316Y-90680401D01*
X174772671Y-90773964D01*
X174772669Y-90773965D01*
X174579097Y-90909505D01*
X174412005Y-91076597D01*
X174282075Y-91262158D01*
X174227498Y-91305783D01*
X174158000Y-91312977D01*
X174095645Y-91281454D01*
X174078925Y-91262158D01*
X173948994Y-91076597D01*
X173781902Y-90909506D01*
X173781895Y-90909501D01*
X173588334Y-90773967D01*
X173588330Y-90773965D01*
X173588328Y-90773964D01*
X173374163Y-90674097D01*
X173374159Y-90674096D01*
X173374155Y-90674094D01*
X173145913Y-90612938D01*
X173145903Y-90612936D01*
X172910501Y-90592341D01*
X172910499Y-90592341D01*
X172675096Y-90612936D01*
X172675086Y-90612938D01*
X172446844Y-90674094D01*
X172446837Y-90674096D01*
X172446837Y-90674097D01*
X172433316Y-90680401D01*
X172232671Y-90773964D01*
X172232669Y-90773965D01*
X172039097Y-90909505D01*
X171872005Y-91076597D01*
X171742075Y-91262158D01*
X171687498Y-91305783D01*
X171618000Y-91312977D01*
X171555645Y-91281454D01*
X171538925Y-91262158D01*
X171408994Y-91076597D01*
X171241902Y-90909506D01*
X171241895Y-90909501D01*
X171048334Y-90773967D01*
X171048330Y-90773965D01*
X171048328Y-90773964D01*
X170834163Y-90674097D01*
X170834159Y-90674096D01*
X170834155Y-90674094D01*
X170605913Y-90612938D01*
X170605903Y-90612936D01*
X170370501Y-90592341D01*
X170370499Y-90592341D01*
X170135096Y-90612936D01*
X170135086Y-90612938D01*
X169906844Y-90674094D01*
X169906837Y-90674096D01*
X169906837Y-90674097D01*
X169893316Y-90680401D01*
X169692671Y-90773964D01*
X169692669Y-90773965D01*
X169499097Y-90909505D01*
X169332005Y-91076597D01*
X169196465Y-91270169D01*
X169196464Y-91270171D01*
X169096598Y-91484335D01*
X169096594Y-91484344D01*
X169035438Y-91712586D01*
X169035436Y-91712596D01*
X169014841Y-91947999D01*
X138760256Y-91947999D01*
X134086003Y-87273746D01*
X134052518Y-87212423D01*
X134050365Y-87199043D01*
X134045174Y-87149644D01*
X133986679Y-86969616D01*
X133892033Y-86805684D01*
X133765371Y-86665012D01*
X133765370Y-86665011D01*
X133612234Y-86553751D01*
X133612229Y-86553748D01*
X133439307Y-86476757D01*
X133439302Y-86476755D01*
X133293501Y-86445765D01*
X133254146Y-86437400D01*
X133064854Y-86437400D01*
X133032397Y-86444298D01*
X132879697Y-86476755D01*
X132879692Y-86476757D01*
X132706770Y-86553748D01*
X132706765Y-86553751D01*
X132553629Y-86665011D01*
X132426966Y-86805685D01*
X132332321Y-86969615D01*
X132332318Y-86969622D01*
X132273827Y-87149640D01*
X132273826Y-87149644D01*
X132254040Y-87337900D01*
X128557700Y-87337900D01*
X128557700Y-80253589D01*
X129252300Y-80253589D01*
X129252300Y-80426811D01*
X129260477Y-80478439D01*
X129275143Y-80571040D01*
X129279398Y-80597901D01*
X129332927Y-80762645D01*
X129411568Y-80916988D01*
X129513386Y-81057128D01*
X132074272Y-83618014D01*
X132214412Y-83719832D01*
X132287331Y-83756986D01*
X132368749Y-83798471D01*
X132368751Y-83798471D01*
X132368754Y-83798473D01*
X132533499Y-83852002D01*
X132704589Y-83879100D01*
X132704590Y-83879100D01*
X144612610Y-83879100D01*
X144612611Y-83879100D01*
X144783701Y-83852002D01*
X144948445Y-83798473D01*
X145102788Y-83719832D01*
X145242928Y-83618014D01*
X145365414Y-83495528D01*
X145467232Y-83355388D01*
X145545873Y-83201045D01*
X145599402Y-83036301D01*
X145626500Y-82865211D01*
X145626500Y-82691989D01*
X145599402Y-82520899D01*
X145545873Y-82356155D01*
X145467232Y-82201812D01*
X145365414Y-82061672D01*
X145242928Y-81939186D01*
X145102788Y-81837368D01*
X144948449Y-81758728D01*
X144895069Y-81741383D01*
X144856923Y-81728989D01*
X144799249Y-81689552D01*
X144772051Y-81625193D01*
X144772770Y-81591661D01*
X144780407Y-81543448D01*
X144788300Y-81493611D01*
X144788300Y-81320389D01*
X144761202Y-81149299D01*
X144707673Y-80984555D01*
X144629032Y-80830212D01*
X144527214Y-80690072D01*
X144404728Y-80567586D01*
X144264588Y-80465768D01*
X144110245Y-80387127D01*
X143945501Y-80333598D01*
X143945499Y-80333597D01*
X143945498Y-80333597D01*
X143814071Y-80312781D01*
X143774411Y-80306500D01*
X143774410Y-80306500D01*
X134136605Y-80306500D01*
X134069566Y-80286815D01*
X134048924Y-80270181D01*
X131628530Y-77849788D01*
X131628528Y-77849786D01*
X131488388Y-77747968D01*
X131334045Y-77669327D01*
X131169301Y-77615798D01*
X131169299Y-77615797D01*
X131169298Y-77615797D01*
X131037871Y-77594981D01*
X130998211Y-77588700D01*
X130824989Y-77588700D01*
X130785328Y-77594981D01*
X130653902Y-77615797D01*
X130489152Y-77669328D01*
X130334811Y-77747968D01*
X130254856Y-77806059D01*
X130194672Y-77849786D01*
X130194670Y-77849788D01*
X130194669Y-77849788D01*
X130072188Y-77972269D01*
X130072188Y-77972270D01*
X130072186Y-77972272D01*
X130028459Y-78032456D01*
X129970368Y-78112411D01*
X129891728Y-78266752D01*
X129838197Y-78431502D01*
X129811100Y-78602589D01*
X129811100Y-78775810D01*
X129838197Y-78946897D01*
X129891728Y-79111647D01*
X129927807Y-79182456D01*
X129940703Y-79251125D01*
X129914427Y-79315866D01*
X129873617Y-79349236D01*
X129776011Y-79398968D01*
X129754905Y-79414303D01*
X129635872Y-79500786D01*
X129635870Y-79500788D01*
X129635869Y-79500788D01*
X129513388Y-79623269D01*
X129513388Y-79623270D01*
X129513386Y-79623272D01*
X129501449Y-79639702D01*
X129411568Y-79763411D01*
X129332928Y-79917752D01*
X129279397Y-80082502D01*
X129252300Y-80253589D01*
X128557700Y-80253589D01*
X128557700Y-76352400D01*
X159038340Y-76352400D01*
X159058126Y-76540656D01*
X159058127Y-76540659D01*
X159116618Y-76720677D01*
X159116621Y-76720684D01*
X159211267Y-76884616D01*
X159337789Y-77025132D01*
X159337929Y-77025288D01*
X159491065Y-77136548D01*
X159491070Y-77136551D01*
X159663992Y-77213542D01*
X159663997Y-77213544D01*
X159849154Y-77252900D01*
X159849155Y-77252900D01*
X160038444Y-77252900D01*
X160038446Y-77252900D01*
X160223603Y-77213544D01*
X160396530Y-77136551D01*
X160549671Y-77025288D01*
X160676333Y-76884616D01*
X160770979Y-76720684D01*
X160829474Y-76540656D01*
X160834664Y-76491269D01*
X160861247Y-76426658D01*
X160870294Y-76416561D01*
X161859513Y-75427343D01*
X161874910Y-75404300D01*
X161936175Y-75312611D01*
X161938438Y-75307146D01*
X161982278Y-75252742D01*
X162048571Y-75230676D01*
X162116271Y-75247954D01*
X162163883Y-75299090D01*
X162177000Y-75354597D01*
X162177000Y-80143908D01*
X162157315Y-80210947D01*
X162145156Y-80226874D01*
X162144968Y-80227082D01*
X162144964Y-80227087D01*
X162050321Y-80391015D01*
X162050318Y-80391022D01*
X161992949Y-80567588D01*
X161991826Y-80571044D01*
X161972040Y-80759300D01*
X161991826Y-80947556D01*
X161991827Y-80947559D01*
X162050318Y-81127577D01*
X162050321Y-81127584D01*
X162144967Y-81291516D01*
X162271629Y-81432188D01*
X162424765Y-81543448D01*
X162424770Y-81543451D01*
X162597692Y-81620442D01*
X162597697Y-81620444D01*
X162782854Y-81659800D01*
X162782855Y-81659800D01*
X162972144Y-81659800D01*
X162972146Y-81659800D01*
X163157303Y-81620444D01*
X163330230Y-81543451D01*
X163483371Y-81432188D01*
X163610033Y-81291516D01*
X163704679Y-81127584D01*
X163763174Y-80947556D01*
X163765144Y-80928808D01*
X163791725Y-80864193D01*
X163849020Y-80824206D01*
X163862657Y-80820481D01*
X163982803Y-80794944D01*
X163982807Y-80794942D01*
X163982808Y-80794942D01*
X164062860Y-80759300D01*
X164155730Y-80717951D01*
X164308871Y-80606688D01*
X164435533Y-80466016D01*
X164530179Y-80302084D01*
X164588674Y-80122056D01*
X164593864Y-80072669D01*
X164620447Y-80008058D01*
X164629494Y-79997961D01*
X166691172Y-77936284D01*
X166705870Y-77914288D01*
X166767834Y-77821552D01*
X166798766Y-77746875D01*
X166820639Y-77694070D01*
X166837424Y-77609684D01*
X166847559Y-77558734D01*
X166847559Y-76027171D01*
X166867244Y-75960132D01*
X166879411Y-75944197D01*
X166879592Y-75943996D01*
X166974238Y-75780064D01*
X167032733Y-75600036D01*
X167052433Y-75412600D01*
X172017740Y-75412600D01*
X172037526Y-75600856D01*
X172037527Y-75600859D01*
X172096018Y-75780877D01*
X172096021Y-75780884D01*
X172190667Y-75944816D01*
X172264820Y-76027171D01*
X172317329Y-76085488D01*
X172470465Y-76196748D01*
X172470470Y-76196751D01*
X172643392Y-76273742D01*
X172643397Y-76273744D01*
X172828554Y-76313100D01*
X172828555Y-76313100D01*
X173017844Y-76313100D01*
X173017846Y-76313100D01*
X173203003Y-76273744D01*
X173375930Y-76196751D01*
X173420810Y-76164144D01*
X173458471Y-76136782D01*
X173524277Y-76113302D01*
X173531356Y-76113100D01*
X180154996Y-76113100D01*
X180246040Y-76094989D01*
X180290328Y-76086180D01*
X180354069Y-76059777D01*
X180417807Y-76033377D01*
X180417808Y-76033376D01*
X180417811Y-76033375D01*
X180532543Y-75956714D01*
X185354514Y-71134743D01*
X185431175Y-71020011D01*
X185449900Y-70974806D01*
X185467190Y-70933063D01*
X185483980Y-70892528D01*
X185510900Y-70757194D01*
X185510900Y-70619206D01*
X185510900Y-68128591D01*
X185530585Y-68061552D01*
X185542752Y-68045617D01*
X185542933Y-68045416D01*
X185637579Y-67881484D01*
X185696074Y-67701456D01*
X185715860Y-67513200D01*
X185696074Y-67324944D01*
X185637579Y-67144916D01*
X185542933Y-66980984D01*
X185416271Y-66840312D01*
X185416270Y-66840311D01*
X185263134Y-66729051D01*
X185263129Y-66729048D01*
X185090207Y-66652057D01*
X185090202Y-66652055D01*
X184944401Y-66621065D01*
X184905046Y-66612700D01*
X184715754Y-66612700D01*
X184683297Y-66619598D01*
X184530597Y-66652055D01*
X184530592Y-66652057D01*
X184357670Y-66729048D01*
X184357665Y-66729051D01*
X184204529Y-66840311D01*
X184077866Y-66980985D01*
X183983221Y-67144915D01*
X183983218Y-67144922D01*
X183951932Y-67241212D01*
X183924726Y-67324944D01*
X183904940Y-67513200D01*
X183924726Y-67701456D01*
X183924727Y-67701459D01*
X183983218Y-67881477D01*
X183983221Y-67881484D01*
X184077866Y-68045415D01*
X184078048Y-68045617D01*
X184078116Y-68045759D01*
X184081685Y-68050671D01*
X184080786Y-68051323D01*
X184108279Y-68108608D01*
X184109900Y-68128591D01*
X184109900Y-70346681D01*
X184090215Y-70413720D01*
X184073581Y-70434362D01*
X179832162Y-74675781D01*
X179770839Y-74709266D01*
X179744481Y-74712100D01*
X173531356Y-74712100D01*
X173464317Y-74692415D01*
X173458471Y-74688418D01*
X173375934Y-74628451D01*
X173375929Y-74628448D01*
X173203007Y-74551457D01*
X173203002Y-74551455D01*
X173057201Y-74520465D01*
X173017846Y-74512100D01*
X172828554Y-74512100D01*
X172796097Y-74518998D01*
X172643397Y-74551455D01*
X172643392Y-74551457D01*
X172470470Y-74628448D01*
X172470465Y-74628451D01*
X172317329Y-74739711D01*
X172190666Y-74880385D01*
X172096021Y-75044315D01*
X172096018Y-75044322D01*
X172037792Y-75223524D01*
X172037526Y-75224344D01*
X172017740Y-75412600D01*
X167052433Y-75412600D01*
X167052519Y-75411780D01*
X167032733Y-75223524D01*
X166974238Y-75043496D01*
X166879592Y-74879564D01*
X166752930Y-74738892D01*
X166746489Y-74734212D01*
X166599793Y-74627631D01*
X166599788Y-74627628D01*
X166426866Y-74550637D01*
X166426861Y-74550635D01*
X166281060Y-74519645D01*
X166241705Y-74511280D01*
X166052413Y-74511280D01*
X166019956Y-74518178D01*
X165867256Y-74550635D01*
X165867251Y-74550637D01*
X165694329Y-74627628D01*
X165694324Y-74627631D01*
X165541188Y-74738891D01*
X165414525Y-74879565D01*
X165319880Y-75043495D01*
X165319877Y-75043502D01*
X165261728Y-75222467D01*
X165261385Y-75223524D01*
X165241599Y-75411780D01*
X165261385Y-75600036D01*
X165261386Y-75600039D01*
X165319877Y-75780057D01*
X165319880Y-75780064D01*
X165414525Y-75943995D01*
X165414707Y-75944197D01*
X165414775Y-75944339D01*
X165418344Y-75949251D01*
X165417445Y-75949903D01*
X165444938Y-76007188D01*
X165446559Y-76027171D01*
X165446559Y-77148222D01*
X165426874Y-77215261D01*
X165410240Y-77235903D01*
X163789681Y-78856462D01*
X163728358Y-78889947D01*
X163658666Y-78884963D01*
X163602733Y-78843091D01*
X163578316Y-78777627D01*
X163578000Y-78768781D01*
X163578000Y-74039619D01*
X163597685Y-73972580D01*
X163614319Y-73951938D01*
X164072485Y-73493772D01*
X164553375Y-73012881D01*
X164614696Y-72979398D01*
X164614762Y-72979383D01*
X164770203Y-72946344D01*
X164770207Y-72946342D01*
X164770208Y-72946342D01*
X164837920Y-72916194D01*
X164943130Y-72869351D01*
X165096271Y-72758088D01*
X165222933Y-72617416D01*
X165317579Y-72453484D01*
X165376074Y-72273456D01*
X165395860Y-72085200D01*
X165376074Y-71896944D01*
X165317579Y-71716916D01*
X165235471Y-71574700D01*
X165218998Y-71506799D01*
X165241851Y-71440773D01*
X165296772Y-71397582D01*
X165342858Y-71388700D01*
X175742308Y-71388700D01*
X175809347Y-71408385D01*
X175855102Y-71461189D01*
X175860239Y-71474382D01*
X175906018Y-71615278D01*
X175906021Y-71615284D01*
X176000666Y-71779215D01*
X176000848Y-71779417D01*
X176000916Y-71779559D01*
X176004485Y-71784471D01*
X176003586Y-71785123D01*
X176031079Y-71842408D01*
X176032700Y-71862391D01*
X176032700Y-72505681D01*
X176013015Y-72572720D01*
X175996381Y-72593362D01*
X175844362Y-72745381D01*
X175783039Y-72778866D01*
X175756681Y-72781700D01*
X171194556Y-72781700D01*
X171127517Y-72762015D01*
X171121671Y-72758018D01*
X171039134Y-72698051D01*
X171039129Y-72698048D01*
X170866207Y-72621057D01*
X170866202Y-72621055D01*
X170720401Y-72590065D01*
X170681046Y-72581700D01*
X170491754Y-72581700D01*
X170459297Y-72588598D01*
X170306597Y-72621055D01*
X170306592Y-72621057D01*
X170133670Y-72698048D01*
X170133665Y-72698051D01*
X169980529Y-72809311D01*
X169853866Y-72949985D01*
X169759221Y-73113915D01*
X169759218Y-73113922D01*
X169700727Y-73293940D01*
X169700726Y-73293944D01*
X169680940Y-73482200D01*
X169700726Y-73670456D01*
X169700727Y-73670459D01*
X169759218Y-73850477D01*
X169759221Y-73850484D01*
X169853867Y-74014416D01*
X169933606Y-74102975D01*
X169980529Y-74155088D01*
X170133665Y-74266348D01*
X170133670Y-74266351D01*
X170306592Y-74343342D01*
X170306597Y-74343344D01*
X170491754Y-74382700D01*
X170491755Y-74382700D01*
X170681044Y-74382700D01*
X170681046Y-74382700D01*
X170866203Y-74343344D01*
X171039130Y-74266351D01*
X171078707Y-74237597D01*
X171121671Y-74206382D01*
X171187477Y-74182902D01*
X171194556Y-74182700D01*
X176167196Y-74182700D01*
X176258240Y-74164589D01*
X176302528Y-74155780D01*
X176366269Y-74129377D01*
X176430007Y-74102977D01*
X176430008Y-74102976D01*
X176430011Y-74102975D01*
X176544743Y-74026314D01*
X177277314Y-73293743D01*
X177353975Y-73179011D01*
X177406780Y-73051528D01*
X177415589Y-73007240D01*
X177433700Y-72916196D01*
X177433700Y-71862391D01*
X177453385Y-71795352D01*
X177465552Y-71779417D01*
X177465733Y-71779216D01*
X177560379Y-71615284D01*
X177618874Y-71435256D01*
X177638660Y-71247000D01*
X177618874Y-71058744D01*
X177560379Y-70878716D01*
X177465733Y-70714784D01*
X177339071Y-70574112D01*
X177339070Y-70574111D01*
X177185934Y-70462851D01*
X177185929Y-70462848D01*
X177013007Y-70385857D01*
X177013002Y-70385855D01*
X176876690Y-70356882D01*
X176858072Y-70352924D01*
X176796591Y-70319733D01*
X176796173Y-70319316D01*
X176620946Y-70144088D01*
X176620945Y-70144087D01*
X176506207Y-70067422D01*
X176378732Y-70014621D01*
X176378722Y-70014618D01*
X176243396Y-69987700D01*
X176243394Y-69987700D01*
X176243393Y-69987700D01*
X162070194Y-69987700D01*
X161932206Y-69987700D01*
X161932204Y-69987700D01*
X161796877Y-70014618D01*
X161796867Y-70014621D01*
X161669392Y-70067422D01*
X161554654Y-70144087D01*
X160771287Y-70927454D01*
X160733267Y-70984357D01*
X160694623Y-71042191D01*
X160641821Y-71169667D01*
X160641818Y-71169677D01*
X160614900Y-71305004D01*
X160614900Y-74639281D01*
X160595215Y-74706320D01*
X160578581Y-74726962D01*
X159880826Y-75424716D01*
X159819503Y-75458201D01*
X159818926Y-75458325D01*
X159663997Y-75491255D01*
X159663992Y-75491257D01*
X159491070Y-75568248D01*
X159491065Y-75568251D01*
X159337929Y-75679511D01*
X159211266Y-75820185D01*
X159116621Y-75984115D01*
X159116618Y-75984122D01*
X159058127Y-76164140D01*
X159058126Y-76164144D01*
X159038340Y-76352400D01*
X128557700Y-76352400D01*
X128557700Y-67731389D01*
X128530602Y-67560299D01*
X128477073Y-67395554D01*
X128477071Y-67395551D01*
X128477071Y-67395549D01*
X128398431Y-67241211D01*
X128296614Y-67101072D01*
X125634128Y-64438586D01*
X125493988Y-64336768D01*
X125339645Y-64258127D01*
X125174901Y-64204598D01*
X125174899Y-64204597D01*
X125174898Y-64204597D01*
X125043471Y-64183781D01*
X125003811Y-64177500D01*
X120863611Y-64177500D01*
X120639589Y-64177500D01*
X120599928Y-64183781D01*
X120468502Y-64204597D01*
X120303752Y-64258128D01*
X120149411Y-64336768D01*
X120069456Y-64394859D01*
X120009272Y-64438586D01*
X120009270Y-64438588D01*
X120009269Y-64438588D01*
X119886788Y-64561069D01*
X119886788Y-64561070D01*
X119886786Y-64561072D01*
X119874849Y-64577502D01*
X119784968Y-64701211D01*
X119706328Y-64855552D01*
X119652797Y-65020302D01*
X119629077Y-65170066D01*
X119625700Y-65191389D01*
X118404100Y-65191389D01*
X118404100Y-65009919D01*
X118423785Y-64942880D01*
X118440419Y-64922238D01*
X120294457Y-63068200D01*
X135975140Y-63068200D01*
X135994926Y-63256456D01*
X135994927Y-63256459D01*
X136053418Y-63436477D01*
X136053421Y-63436484D01*
X136148067Y-63600416D01*
X136227806Y-63688975D01*
X136274729Y-63741088D01*
X136427865Y-63852348D01*
X136427870Y-63852351D01*
X136600792Y-63929342D01*
X136600797Y-63929344D01*
X136785954Y-63968700D01*
X136785955Y-63968700D01*
X136975244Y-63968700D01*
X136975246Y-63968700D01*
X137160403Y-63929344D01*
X137333330Y-63852351D01*
X137348920Y-63841023D01*
X137415871Y-63792382D01*
X137481677Y-63768902D01*
X137488756Y-63768700D01*
X180231196Y-63768700D01*
X180322240Y-63750589D01*
X180366528Y-63741780D01*
X180430269Y-63715377D01*
X180494007Y-63688977D01*
X180494008Y-63688976D01*
X180494011Y-63688975D01*
X180608743Y-63612314D01*
X185191457Y-59029599D01*
X191697041Y-59029599D01*
X191697041Y-59029600D01*
X191717636Y-59265003D01*
X191717638Y-59265013D01*
X191778794Y-59493255D01*
X191778796Y-59493259D01*
X191778797Y-59493263D01*
X191782700Y-59501632D01*
X191878665Y-59707430D01*
X191878667Y-59707434D01*
X191965217Y-59831039D01*
X192014205Y-59901001D01*
X192181299Y-60068095D01*
X192264630Y-60126444D01*
X192374865Y-60203632D01*
X192374867Y-60203633D01*
X192374870Y-60203635D01*
X192589037Y-60303503D01*
X192589043Y-60303504D01*
X192589044Y-60303505D01*
X192643985Y-60318226D01*
X192817292Y-60364663D01*
X193005618Y-60381139D01*
X193052699Y-60385259D01*
X193052700Y-60385259D01*
X193052701Y-60385259D01*
X193091934Y-60381826D01*
X193288108Y-60364663D01*
X193516363Y-60303503D01*
X193730530Y-60203635D01*
X193924101Y-60068095D01*
X194091195Y-59901001D01*
X194221125Y-59715442D01*
X194275702Y-59671817D01*
X194345200Y-59664623D01*
X194407555Y-59696146D01*
X194424275Y-59715442D01*
X194554200Y-59900995D01*
X194554205Y-59901001D01*
X194721299Y-60068095D01*
X194804630Y-60126444D01*
X194914865Y-60203632D01*
X194914867Y-60203633D01*
X194914870Y-60203635D01*
X195129037Y-60303503D01*
X195129043Y-60303504D01*
X195129044Y-60303505D01*
X195183985Y-60318226D01*
X195357292Y-60364663D01*
X195545618Y-60381139D01*
X195592699Y-60385259D01*
X195592700Y-60385259D01*
X195592701Y-60385259D01*
X195631934Y-60381826D01*
X195828108Y-60364663D01*
X196056363Y-60303503D01*
X196270530Y-60203635D01*
X196464101Y-60068095D01*
X196631195Y-59901001D01*
X196766735Y-59707430D01*
X196866603Y-59493263D01*
X196927763Y-59265008D01*
X196948359Y-59029600D01*
X196927763Y-58794192D01*
X196866603Y-58565937D01*
X196766735Y-58351771D01*
X196761125Y-58343758D01*
X196631194Y-58158197D01*
X196464102Y-57991106D01*
X196464096Y-57991101D01*
X196278542Y-57861175D01*
X196234917Y-57806598D01*
X196227723Y-57737100D01*
X196259246Y-57674745D01*
X196278542Y-57658025D01*
X196285354Y-57653255D01*
X234534222Y-57653255D01*
X234534222Y-57653256D01*
X234554519Y-58040543D01*
X234615186Y-58423579D01*
X234615187Y-58423586D01*
X234715562Y-58798192D01*
X234854544Y-59160250D01*
X235030610Y-59505799D01*
X235241823Y-59831039D01*
X235241825Y-59831041D01*
X235450396Y-60088604D01*
X236945047Y-58593953D01*
X237018888Y-58695586D01*
X237196970Y-58873668D01*
X237298601Y-58947507D01*
X235803950Y-60442158D01*
X236061514Y-60650731D01*
X236061516Y-60650732D01*
X236386756Y-60861945D01*
X236732305Y-61038011D01*
X237094363Y-61176993D01*
X237468969Y-61277368D01*
X237468976Y-61277369D01*
X237852012Y-61338036D01*
X238239299Y-61358334D01*
X238239301Y-61358334D01*
X238626587Y-61338036D01*
X239009623Y-61277369D01*
X239009630Y-61277368D01*
X239384236Y-61176993D01*
X239746294Y-61038011D01*
X240091843Y-60861945D01*
X240417071Y-60650740D01*
X240417084Y-60650730D01*
X240674648Y-60442158D01*
X239179998Y-58947508D01*
X239281630Y-58873668D01*
X239459712Y-58695586D01*
X239533552Y-58593954D01*
X241028202Y-60088604D01*
X241236774Y-59831040D01*
X241236784Y-59831027D01*
X241447989Y-59505799D01*
X241624055Y-59160250D01*
X241763037Y-58798192D01*
X241863412Y-58423586D01*
X241863413Y-58423579D01*
X241924080Y-58040543D01*
X241944378Y-57653256D01*
X241944378Y-57653255D01*
X241924080Y-57265968D01*
X241863413Y-56882932D01*
X241863412Y-56882925D01*
X241763037Y-56508319D01*
X241624055Y-56146261D01*
X241447989Y-55800712D01*
X241236776Y-55475472D01*
X241236775Y-55475470D01*
X241028202Y-55217906D01*
X239533551Y-56712557D01*
X239459712Y-56610926D01*
X239281630Y-56432844D01*
X239179998Y-56359004D01*
X240674649Y-54864352D01*
X240417085Y-54655781D01*
X240417083Y-54655779D01*
X240091843Y-54444566D01*
X239746294Y-54268500D01*
X239384236Y-54129518D01*
X239009630Y-54029143D01*
X239009623Y-54029142D01*
X238626587Y-53968475D01*
X238239301Y-53948178D01*
X238239299Y-53948178D01*
X237852012Y-53968475D01*
X237468976Y-54029142D01*
X237468969Y-54029143D01*
X237094363Y-54129518D01*
X236732305Y-54268500D01*
X236386756Y-54444566D01*
X236061506Y-54655787D01*
X235803949Y-54864351D01*
X235803949Y-54864352D01*
X237298601Y-56359004D01*
X237196970Y-56432844D01*
X237018888Y-56610926D01*
X236945048Y-56712557D01*
X235450396Y-55217905D01*
X235450395Y-55217905D01*
X235241831Y-55475462D01*
X235030610Y-55800712D01*
X234854544Y-56146261D01*
X234715562Y-56508319D01*
X234615187Y-56882925D01*
X234615186Y-56882932D01*
X234554519Y-57265968D01*
X234534222Y-57653255D01*
X196285354Y-57653255D01*
X196348834Y-57608806D01*
X196464101Y-57528095D01*
X196631195Y-57361001D01*
X196766735Y-57167430D01*
X196866603Y-56953263D01*
X196927763Y-56725008D01*
X196948359Y-56489600D01*
X196927763Y-56254192D01*
X196866603Y-56025937D01*
X196766735Y-55811771D01*
X196758992Y-55800712D01*
X196631194Y-55618197D01*
X196464102Y-55451106D01*
X196464095Y-55451101D01*
X196270534Y-55315567D01*
X196270530Y-55315565D01*
X196270528Y-55315564D01*
X196056363Y-55215697D01*
X196056359Y-55215696D01*
X196056355Y-55215694D01*
X195828113Y-55154538D01*
X195828103Y-55154536D01*
X195592701Y-55133941D01*
X195592699Y-55133941D01*
X195357296Y-55154536D01*
X195357286Y-55154538D01*
X195129044Y-55215694D01*
X195129035Y-55215698D01*
X194914871Y-55315564D01*
X194914869Y-55315565D01*
X194721300Y-55451103D01*
X194599373Y-55573030D01*
X194538050Y-55606514D01*
X194468358Y-55601530D01*
X194412425Y-55559658D01*
X194395510Y-55528681D01*
X194346497Y-55397271D01*
X194346493Y-55397264D01*
X194260247Y-55282055D01*
X194260244Y-55282052D01*
X194145035Y-55195806D01*
X194145028Y-55195802D01*
X194010182Y-55145508D01*
X194010183Y-55145508D01*
X193950583Y-55139101D01*
X193950581Y-55139100D01*
X193950573Y-55139100D01*
X193950564Y-55139100D01*
X192154829Y-55139100D01*
X192154823Y-55139101D01*
X192095216Y-55145508D01*
X191960371Y-55195802D01*
X191960364Y-55195806D01*
X191845155Y-55282052D01*
X191845152Y-55282055D01*
X191758906Y-55397264D01*
X191758902Y-55397271D01*
X191708608Y-55532117D01*
X191702201Y-55591716D01*
X191702200Y-55591735D01*
X191702200Y-57387470D01*
X191702201Y-57387476D01*
X191708608Y-57447083D01*
X191758902Y-57581928D01*
X191758906Y-57581935D01*
X191845152Y-57697144D01*
X191845155Y-57697147D01*
X191960364Y-57783393D01*
X191960371Y-57783397D01*
X192091781Y-57832410D01*
X192147715Y-57874281D01*
X192172132Y-57939745D01*
X192157280Y-58008018D01*
X192136130Y-58036273D01*
X192014203Y-58158200D01*
X191878665Y-58351769D01*
X191878664Y-58351771D01*
X191778798Y-58565935D01*
X191778794Y-58565944D01*
X191717638Y-58794186D01*
X191717636Y-58794196D01*
X191697041Y-59029599D01*
X185191457Y-59029599D01*
X196443437Y-47777618D01*
X196504760Y-47744134D01*
X196531118Y-47741300D01*
X197467972Y-47741300D01*
X197535011Y-47760985D01*
X197580766Y-47813789D01*
X197590968Y-47849550D01*
X197608282Y-47984761D01*
X197708168Y-48448232D01*
X197708170Y-48448240D01*
X197846999Y-48901565D01*
X197847001Y-48901570D01*
X198023770Y-49341477D01*
X198023774Y-49341488D01*
X198237213Y-49764818D01*
X198237223Y-49764836D01*
X198485804Y-50168558D01*
X198767728Y-50549744D01*
X198767733Y-50549749D01*
X198767734Y-50549751D01*
X199080961Y-50905646D01*
X199423260Y-51233713D01*
X199423262Y-51233714D01*
X199792126Y-51531551D01*
X199792127Y-51531552D01*
X199942794Y-51633384D01*
X200184936Y-51797044D01*
X200368895Y-51899809D01*
X200598834Y-52028262D01*
X200598856Y-52028273D01*
X201029837Y-52223088D01*
X201030870Y-52223555D01*
X201477901Y-52381501D01*
X201936716Y-52500967D01*
X202404010Y-52581093D01*
X202550246Y-52593539D01*
X202876396Y-52621299D01*
X202876413Y-52621299D01*
X202876415Y-52621300D01*
X202876416Y-52621300D01*
X203350528Y-52621300D01*
X203350529Y-52621300D01*
X203350530Y-52621299D01*
X203350547Y-52621299D01*
X203631714Y-52597367D01*
X203822934Y-52581093D01*
X204290228Y-52500967D01*
X204749043Y-52381501D01*
X205196074Y-52223555D01*
X205628100Y-52028267D01*
X206042008Y-51797044D01*
X206434815Y-51531553D01*
X206803681Y-51233714D01*
X206803683Y-51233713D01*
X206803687Y-51233708D01*
X206803692Y-51233705D01*
X207145982Y-50905647D01*
X207459216Y-50549744D01*
X207741140Y-50168558D01*
X207989721Y-49764836D01*
X208203169Y-49341488D01*
X208379945Y-48901563D01*
X208518776Y-48448232D01*
X208618662Y-47984760D01*
X208678883Y-47514486D01*
X208678886Y-47514431D01*
X208699005Y-47040806D01*
X208699005Y-47040793D01*
X213528440Y-47040793D01*
X213528440Y-47040806D01*
X213548558Y-47514431D01*
X213608776Y-47984674D01*
X213708653Y-48448106D01*
X213708655Y-48448114D01*
X213847471Y-48901398D01*
X213847476Y-48901412D01*
X214024227Y-49341271D01*
X214024231Y-49341282D01*
X214237651Y-49764574D01*
X214237661Y-49764594D01*
X214486222Y-50168281D01*
X214768120Y-50549433D01*
X214768126Y-50549441D01*
X214994297Y-50806420D01*
X216786290Y-49014427D01*
X216835680Y-49076360D01*
X217077912Y-49318592D01*
X217139843Y-49367980D01*
X215347455Y-51160368D01*
X215423592Y-51233337D01*
X215423594Y-51233338D01*
X215792424Y-51531148D01*
X215792425Y-51531149D01*
X216185188Y-51796609D01*
X216185207Y-51796621D01*
X216599060Y-52027814D01*
X216599082Y-52027825D01*
X217031051Y-52223088D01*
X217031057Y-52223090D01*
X217478051Y-52381023D01*
X217936823Y-52500477D01*
X218404069Y-52580595D01*
X218404077Y-52580596D01*
X218876418Y-52620799D01*
X218876438Y-52620800D01*
X219350506Y-52620800D01*
X219350525Y-52620799D01*
X219822866Y-52580596D01*
X219822874Y-52580595D01*
X220290120Y-52500477D01*
X220748892Y-52381023D01*
X221195886Y-52223090D01*
X221195892Y-52223088D01*
X221627861Y-52027825D01*
X221627883Y-52027814D01*
X222041736Y-51796621D01*
X222041755Y-51796609D01*
X222434511Y-51531153D01*
X222803358Y-51233331D01*
X222879487Y-51160368D01*
X221087100Y-49367981D01*
X221149032Y-49318592D01*
X221391264Y-49076360D01*
X221440653Y-49014428D01*
X223232645Y-50806420D01*
X223458818Y-50549438D01*
X223458832Y-50549421D01*
X223740721Y-50168281D01*
X223989282Y-49764594D01*
X223989292Y-49764574D01*
X224202712Y-49341282D01*
X224202716Y-49341271D01*
X224379467Y-48901412D01*
X224379472Y-48901398D01*
X224518288Y-48448114D01*
X224518290Y-48448106D01*
X224618167Y-47984674D01*
X224678385Y-47514431D01*
X224698504Y-47040806D01*
X224698504Y-47040793D01*
X224678385Y-46567168D01*
X224618167Y-46096925D01*
X224518290Y-45633493D01*
X224518288Y-45633485D01*
X224379472Y-45180201D01*
X224379467Y-45180187D01*
X224202716Y-44740328D01*
X224202712Y-44740317D01*
X223989292Y-44317025D01*
X223989282Y-44317005D01*
X223740721Y-43913318D01*
X223458823Y-43532166D01*
X223458817Y-43532158D01*
X223232645Y-43275178D01*
X221440652Y-45067171D01*
X221391264Y-45005240D01*
X221149032Y-44763008D01*
X221087098Y-44713618D01*
X222879487Y-42921230D01*
X222803351Y-42848262D01*
X222803349Y-42848261D01*
X222434519Y-42550451D01*
X222434518Y-42550450D01*
X222041755Y-42284990D01*
X222041736Y-42284978D01*
X221627883Y-42053785D01*
X221627861Y-42053774D01*
X221195892Y-41858511D01*
X221195886Y-41858509D01*
X220748892Y-41700576D01*
X220290120Y-41581122D01*
X219822874Y-41501004D01*
X219822866Y-41501003D01*
X219350525Y-41460800D01*
X218876418Y-41460800D01*
X218404077Y-41501003D01*
X218404069Y-41501004D01*
X217936823Y-41581122D01*
X217478051Y-41700576D01*
X217031057Y-41858509D01*
X217031051Y-41858511D01*
X216599082Y-42053774D01*
X216599060Y-42053785D01*
X216185207Y-42284978D01*
X216185188Y-42284990D01*
X215792425Y-42550450D01*
X215792424Y-42550451D01*
X215423595Y-42848260D01*
X215423579Y-42848274D01*
X215347456Y-42921231D01*
X217139843Y-44713618D01*
X217077912Y-44763008D01*
X216835680Y-45005240D01*
X216786290Y-45067171D01*
X214994298Y-43275179D01*
X214768120Y-43532166D01*
X214768117Y-43532170D01*
X214486222Y-43913318D01*
X214237661Y-44317005D01*
X214237651Y-44317025D01*
X214024231Y-44740317D01*
X214024227Y-44740328D01*
X213847476Y-45180187D01*
X213847471Y-45180201D01*
X213708655Y-45633485D01*
X213708653Y-45633493D01*
X213608776Y-46096925D01*
X213548558Y-46567168D01*
X213528440Y-47040793D01*
X208699005Y-47040793D01*
X208678884Y-46567126D01*
X208678883Y-46567120D01*
X208678883Y-46567114D01*
X208618662Y-46096840D01*
X208518776Y-45633368D01*
X208379945Y-45180037D01*
X208328987Y-45053224D01*
X208203173Y-44740122D01*
X208203169Y-44740111D01*
X207989730Y-44316781D01*
X207989719Y-44316761D01*
X207771679Y-43962641D01*
X207741140Y-43913042D01*
X207459216Y-43531856D01*
X207145982Y-43175953D01*
X206880210Y-42921231D01*
X206803683Y-42847886D01*
X206803681Y-42847885D01*
X206434817Y-42550048D01*
X206434816Y-42550047D01*
X206042018Y-42284563D01*
X206042008Y-42284556D01*
X206031134Y-42278481D01*
X205628109Y-42053337D01*
X205628087Y-42053326D01*
X205196080Y-41858047D01*
X204749038Y-41700097D01*
X204290226Y-41580632D01*
X203822944Y-41500508D01*
X203822918Y-41500505D01*
X203350547Y-41460300D01*
X203350529Y-41460300D01*
X202876415Y-41460300D01*
X202876396Y-41460300D01*
X202404025Y-41500505D01*
X202403999Y-41500508D01*
X201936717Y-41580632D01*
X201477905Y-41700097D01*
X201030863Y-41858047D01*
X200598856Y-42053326D01*
X200598834Y-42053337D01*
X200184944Y-42284551D01*
X200184925Y-42284563D01*
X199792127Y-42550047D01*
X199792126Y-42550048D01*
X199423262Y-42847885D01*
X199423260Y-42847886D01*
X199080961Y-43175953D01*
X198767734Y-43531848D01*
X198485803Y-43913043D01*
X198237224Y-44316761D01*
X198237213Y-44316781D01*
X198023774Y-44740111D01*
X198023770Y-44740122D01*
X197847001Y-45180029D01*
X197846999Y-45180034D01*
X197708170Y-45633359D01*
X197708168Y-45633367D01*
X197608282Y-46096838D01*
X197590968Y-46232050D01*
X197562927Y-46296047D01*
X197504739Y-46334724D01*
X197467972Y-46340300D01*
X196120603Y-46340300D01*
X196012190Y-46361865D01*
X196012189Y-46361865D01*
X195998731Y-46364542D01*
X195985273Y-46367219D01*
X195932466Y-46389091D01*
X195932466Y-46389092D01*
X195885374Y-46408598D01*
X195857786Y-46420026D01*
X195847634Y-46426810D01*
X195847523Y-46426884D01*
X195743057Y-46496686D01*
X195743053Y-46496689D01*
X179908362Y-62331381D01*
X179847039Y-62364866D01*
X179820681Y-62367700D01*
X167834643Y-62367700D01*
X167767604Y-62348015D01*
X167721849Y-62295211D01*
X167711905Y-62226053D01*
X167740930Y-62162497D01*
X167778349Y-62133215D01*
X167784986Y-62129833D01*
X167784985Y-62129833D01*
X167784988Y-62129832D01*
X167925128Y-62028014D01*
X177502066Y-52451074D01*
X177563387Y-52417591D01*
X177620989Y-52418757D01*
X177936716Y-52500967D01*
X178404010Y-52581093D01*
X178550246Y-52593539D01*
X178876396Y-52621299D01*
X178876413Y-52621299D01*
X178876415Y-52621300D01*
X178876416Y-52621300D01*
X179350528Y-52621300D01*
X179350529Y-52621300D01*
X179350530Y-52621299D01*
X179350547Y-52621299D01*
X179631714Y-52597367D01*
X179822934Y-52581093D01*
X180290228Y-52500967D01*
X180749043Y-52381501D01*
X181196074Y-52223555D01*
X181628100Y-52028267D01*
X182042008Y-51797044D01*
X182434815Y-51531553D01*
X182803681Y-51233714D01*
X182803683Y-51233713D01*
X182803687Y-51233708D01*
X182803692Y-51233705D01*
X183145982Y-50905647D01*
X183459216Y-50549744D01*
X183741140Y-50168558D01*
X183989721Y-49764836D01*
X184203169Y-49341488D01*
X184379945Y-48901563D01*
X184518776Y-48448232D01*
X184618662Y-47984760D01*
X184678883Y-47514486D01*
X184678886Y-47514431D01*
X184699005Y-47040806D01*
X184699005Y-47040793D01*
X184678884Y-46567126D01*
X184678883Y-46567120D01*
X184678883Y-46567114D01*
X184618662Y-46096840D01*
X184518776Y-45633368D01*
X184379945Y-45180037D01*
X184328987Y-45053224D01*
X184203173Y-44740122D01*
X184203169Y-44740111D01*
X183989730Y-44316781D01*
X183989719Y-44316761D01*
X183771679Y-43962641D01*
X183741140Y-43913042D01*
X183459216Y-43531856D01*
X183145982Y-43175953D01*
X182880210Y-42921231D01*
X182803683Y-42847886D01*
X182803681Y-42847885D01*
X182434817Y-42550048D01*
X182434816Y-42550047D01*
X182042018Y-42284563D01*
X182042008Y-42284556D01*
X182031134Y-42278481D01*
X181628109Y-42053337D01*
X181628087Y-42053326D01*
X181196080Y-41858047D01*
X180749038Y-41700097D01*
X180290226Y-41580632D01*
X179822944Y-41500508D01*
X179822918Y-41500505D01*
X179350547Y-41460300D01*
X179350529Y-41460300D01*
X178876415Y-41460300D01*
X178876396Y-41460300D01*
X178404025Y-41500505D01*
X178403999Y-41500508D01*
X177936717Y-41580632D01*
X177477905Y-41700097D01*
X177030863Y-41858047D01*
X176598856Y-42053326D01*
X176598834Y-42053337D01*
X176184944Y-42284551D01*
X176184925Y-42284563D01*
X175792127Y-42550047D01*
X175792126Y-42550048D01*
X175423262Y-42847885D01*
X175423260Y-42847886D01*
X175080961Y-43175953D01*
X174767734Y-43531848D01*
X174485803Y-43913043D01*
X174237224Y-44316761D01*
X174237213Y-44316781D01*
X174023774Y-44740111D01*
X174023770Y-44740122D01*
X173847001Y-45180029D01*
X173846999Y-45180034D01*
X173708170Y-45633359D01*
X173708168Y-45633367D01*
X173608282Y-46096838D01*
X173548059Y-46567126D01*
X173527939Y-47040793D01*
X173527939Y-47040806D01*
X173548059Y-47514473D01*
X173608282Y-47984761D01*
X173708168Y-48448232D01*
X173708170Y-48448240D01*
X173846999Y-48901565D01*
X173847001Y-48901570D01*
X174023770Y-49341477D01*
X174023774Y-49341488D01*
X174237213Y-49764818D01*
X174237218Y-49764827D01*
X174237223Y-49764836D01*
X174297710Y-49863073D01*
X174412933Y-50050209D01*
X174431320Y-50117616D01*
X174410345Y-50184263D01*
X174395024Y-50202904D01*
X166120949Y-58476981D01*
X166059626Y-58510466D01*
X166033268Y-58513300D01*
X158612589Y-58513300D01*
X158572928Y-58519581D01*
X158441502Y-58540397D01*
X158276752Y-58593928D01*
X158122411Y-58672568D01*
X158042456Y-58730659D01*
X157982272Y-58774386D01*
X157982270Y-58774388D01*
X157982269Y-58774388D01*
X157859788Y-58896869D01*
X157859788Y-58896870D01*
X157859786Y-58896872D01*
X157816059Y-58957056D01*
X157757968Y-59037011D01*
X157679328Y-59191352D01*
X157679327Y-59191354D01*
X157679327Y-59191355D01*
X157655394Y-59265013D01*
X157625797Y-59356102D01*
X157598700Y-59527189D01*
X157598700Y-59700410D01*
X157623989Y-59860083D01*
X157625798Y-59871501D01*
X157679327Y-60036245D01*
X157757968Y-60190588D01*
X157859786Y-60330728D01*
X157859793Y-60330735D01*
X157862950Y-60334432D01*
X157861903Y-60335325D01*
X157892406Y-60391186D01*
X157887422Y-60460878D01*
X157871559Y-60490427D01*
X157840095Y-60533734D01*
X157783368Y-60611811D01*
X157704728Y-60766152D01*
X157651197Y-60930902D01*
X157624100Y-61101989D01*
X157624100Y-61275210D01*
X157636239Y-61351857D01*
X157651198Y-61446301D01*
X157704727Y-61611045D01*
X157783368Y-61765388D01*
X157885186Y-61905528D01*
X158007672Y-62028014D01*
X158112777Y-62104377D01*
X158147813Y-62129833D01*
X158154451Y-62133215D01*
X158205247Y-62181189D01*
X158222043Y-62249010D01*
X158199506Y-62315145D01*
X158144791Y-62358597D01*
X158098157Y-62367700D01*
X137488756Y-62367700D01*
X137421717Y-62348015D01*
X137415871Y-62344018D01*
X137333334Y-62284051D01*
X137333329Y-62284048D01*
X137160407Y-62207057D01*
X137160402Y-62207055D01*
X137014601Y-62176065D01*
X136975246Y-62167700D01*
X136785954Y-62167700D01*
X136753497Y-62174598D01*
X136600797Y-62207055D01*
X136600792Y-62207057D01*
X136427870Y-62284048D01*
X136427865Y-62284051D01*
X136274729Y-62395311D01*
X136148066Y-62535985D01*
X136053421Y-62699915D01*
X136053418Y-62699922D01*
X135994927Y-62879940D01*
X135994926Y-62879944D01*
X135975140Y-63068200D01*
X120294457Y-63068200D01*
X123723238Y-59639419D01*
X123784561Y-59605934D01*
X123810919Y-59603100D01*
X139277389Y-59603100D01*
X139344428Y-59622785D01*
X139378964Y-59655977D01*
X139461605Y-59774002D01*
X139547686Y-59860082D01*
X139628699Y-59941095D01*
X139725484Y-60008865D01*
X139822265Y-60076632D01*
X139822267Y-60076633D01*
X139822270Y-60076635D01*
X140036437Y-60176503D01*
X140264692Y-60237663D01*
X140441134Y-60253100D01*
X140500099Y-60258259D01*
X140500100Y-60258259D01*
X140500101Y-60258259D01*
X140559066Y-60253100D01*
X140735508Y-60237663D01*
X140963763Y-60176503D01*
X141177930Y-60076635D01*
X141371501Y-59941095D01*
X141493429Y-59819166D01*
X141554748Y-59785684D01*
X141624440Y-59790668D01*
X141680374Y-59832539D01*
X141697289Y-59863517D01*
X141746302Y-59994928D01*
X141746306Y-59994935D01*
X141832552Y-60110144D01*
X141832555Y-60110147D01*
X141947764Y-60196393D01*
X141947771Y-60196397D01*
X142082617Y-60246691D01*
X142082616Y-60246691D01*
X142089544Y-60247435D01*
X142142227Y-60253100D01*
X143937972Y-60253099D01*
X143997583Y-60246691D01*
X144132431Y-60196396D01*
X144247646Y-60110146D01*
X144333896Y-59994931D01*
X144384191Y-59860083D01*
X144390600Y-59800473D01*
X144390599Y-58004728D01*
X144384191Y-57945117D01*
X144382910Y-57941683D01*
X144333897Y-57810271D01*
X144333893Y-57810264D01*
X144247647Y-57695055D01*
X144247644Y-57695052D01*
X144132435Y-57608806D01*
X144132428Y-57608802D01*
X144001017Y-57559789D01*
X143945083Y-57517918D01*
X143920666Y-57452453D01*
X143935518Y-57384180D01*
X143956663Y-57355932D01*
X144078595Y-57234001D01*
X144214135Y-57040430D01*
X144314003Y-56826263D01*
X144375163Y-56598008D01*
X144395759Y-56362600D01*
X144375163Y-56127192D01*
X144314003Y-55898937D01*
X144214135Y-55684771D01*
X144208525Y-55676758D01*
X144078594Y-55491197D01*
X143911502Y-55324106D01*
X143911495Y-55324101D01*
X143899304Y-55315565D01*
X143872621Y-55296881D01*
X143717934Y-55188567D01*
X143717930Y-55188565D01*
X143644957Y-55154537D01*
X143503763Y-55088697D01*
X143503759Y-55088696D01*
X143503755Y-55088694D01*
X143275513Y-55027538D01*
X143275503Y-55027536D01*
X143040101Y-55006941D01*
X143040099Y-55006941D01*
X142804696Y-55027536D01*
X142804686Y-55027538D01*
X142576444Y-55088694D01*
X142576435Y-55088698D01*
X142362271Y-55188564D01*
X142362269Y-55188565D01*
X142168697Y-55324105D01*
X142001605Y-55491197D01*
X141871675Y-55676758D01*
X141817098Y-55720383D01*
X141747600Y-55727577D01*
X141685245Y-55696054D01*
X141668525Y-55676758D01*
X141538594Y-55491197D01*
X141371502Y-55324106D01*
X141371495Y-55324101D01*
X141359304Y-55315565D01*
X141332621Y-55296881D01*
X141177934Y-55188567D01*
X141177930Y-55188565D01*
X141104957Y-55154537D01*
X140963763Y-55088697D01*
X140963759Y-55088696D01*
X140963755Y-55088694D01*
X140735513Y-55027538D01*
X140735503Y-55027536D01*
X140500101Y-55006941D01*
X140500099Y-55006941D01*
X140264696Y-55027536D01*
X140264686Y-55027538D01*
X140036444Y-55088694D01*
X140036435Y-55088698D01*
X139822271Y-55188564D01*
X139822269Y-55188565D01*
X139628697Y-55324105D01*
X139461605Y-55491197D01*
X139326065Y-55684769D01*
X139326064Y-55684771D01*
X139226198Y-55898935D01*
X139226194Y-55898944D01*
X139165038Y-56127186D01*
X139165036Y-56127196D01*
X139144441Y-56362599D01*
X139144441Y-56362600D01*
X139165036Y-56598003D01*
X139165038Y-56598013D01*
X139226194Y-56826255D01*
X139226196Y-56826259D01*
X139226197Y-56826263D01*
X139285415Y-56953255D01*
X139326065Y-57040430D01*
X139326067Y-57040434D01*
X139391768Y-57134264D01*
X139461601Y-57233996D01*
X139461606Y-57234002D01*
X139628697Y-57401094D01*
X139746723Y-57483736D01*
X139790348Y-57538313D01*
X139799600Y-57585311D01*
X139799600Y-57679888D01*
X139779915Y-57746927D01*
X139746724Y-57781463D01*
X139628694Y-57864108D01*
X139461606Y-58031196D01*
X139378964Y-58149223D01*
X139324387Y-58192848D01*
X139277389Y-58202100D01*
X123400404Y-58202100D01*
X123265077Y-58229018D01*
X123265067Y-58229021D01*
X123137592Y-58281822D01*
X123022854Y-58358487D01*
X117159487Y-64221854D01*
X117082822Y-64336592D01*
X117030021Y-64464067D01*
X117030018Y-64464079D01*
X117007458Y-64577498D01*
X117007458Y-64577502D01*
X117003100Y-64599407D01*
X117003100Y-71210281D01*
X116983415Y-71277320D01*
X116966781Y-71297962D01*
X115337717Y-72927026D01*
X115276394Y-72960511D01*
X115250036Y-72963345D01*
X115058931Y-72963345D01*
X114991892Y-72943660D01*
X114986046Y-72939663D01*
X114903509Y-72879696D01*
X114903504Y-72879693D01*
X114730582Y-72802702D01*
X114730577Y-72802700D01*
X114624710Y-72780198D01*
X114563228Y-72747006D01*
X114529452Y-72685843D01*
X114534104Y-72616128D01*
X114575709Y-72559996D01*
X114624706Y-72537619D01*
X114715178Y-72518389D01*
X114715182Y-72518387D01*
X114715183Y-72518387D01*
X114773433Y-72492451D01*
X114888105Y-72441396D01*
X115041246Y-72330133D01*
X115167908Y-72189461D01*
X115262554Y-72025529D01*
X115321049Y-71845501D01*
X115340835Y-71657245D01*
X115321049Y-71468989D01*
X115262554Y-71288961D01*
X115167908Y-71125029D01*
X115041246Y-70984357D01*
X115040291Y-70983663D01*
X114888109Y-70873096D01*
X114888104Y-70873093D01*
X114715182Y-70796102D01*
X114715177Y-70796100D01*
X114569376Y-70765110D01*
X114530021Y-70756745D01*
X114340729Y-70756745D01*
X114308272Y-70763643D01*
X114155572Y-70796100D01*
X114155567Y-70796102D01*
X113982645Y-70873093D01*
X113982640Y-70873096D01*
X113900104Y-70933063D01*
X113834298Y-70956543D01*
X113827219Y-70956745D01*
X112703159Y-70956745D01*
X112567832Y-70983663D01*
X112567822Y-70983666D01*
X112440347Y-71036467D01*
X112325609Y-71113132D01*
X107710687Y-75728054D01*
X107634023Y-75842792D01*
X107581221Y-75970268D01*
X107581218Y-75970278D01*
X107567972Y-76036872D01*
X107554300Y-76105604D01*
X107554300Y-90311081D01*
X107534615Y-90378120D01*
X107517981Y-90398762D01*
X105508512Y-92408231D01*
X105447189Y-92441716D01*
X105420831Y-92444550D01*
X104608411Y-92444550D01*
X104541372Y-92424865D01*
X104506836Y-92391673D01*
X104424194Y-92273647D01*
X104257102Y-92106556D01*
X104257095Y-92106551D01*
X104063534Y-91971017D01*
X104063530Y-91971015D01*
X104014172Y-91947999D01*
X103849363Y-91871147D01*
X103849359Y-91871146D01*
X103849355Y-91871144D01*
X103621113Y-91809988D01*
X103621103Y-91809986D01*
X103385701Y-91789391D01*
X103385699Y-91789391D01*
X103150296Y-91809986D01*
X103150286Y-91809988D01*
X102922044Y-91871144D01*
X102922035Y-91871148D01*
X102707871Y-91971014D01*
X102707869Y-91971015D01*
X102514300Y-92106553D01*
X102392373Y-92228480D01*
X102331050Y-92261964D01*
X102261358Y-92256980D01*
X102205425Y-92215108D01*
X102188510Y-92184131D01*
X102139497Y-92052721D01*
X102139493Y-92052714D01*
X102053247Y-91937505D01*
X102053244Y-91937502D01*
X101938035Y-91851256D01*
X101938028Y-91851252D01*
X101803182Y-91800958D01*
X101803183Y-91800958D01*
X101743583Y-91794551D01*
X101743581Y-91794550D01*
X101743573Y-91794550D01*
X101743564Y-91794550D01*
X99947829Y-91794550D01*
X99947823Y-91794551D01*
X99888216Y-91800958D01*
X99753371Y-91851252D01*
X99753364Y-91851256D01*
X99638155Y-91937502D01*
X99638152Y-91937505D01*
X99551906Y-92052714D01*
X99551902Y-92052721D01*
X99501608Y-92187567D01*
X99495201Y-92247166D01*
X99495200Y-92247185D01*
X99495200Y-94042920D01*
X99495201Y-94042926D01*
X99501608Y-94102533D01*
X99551902Y-94237378D01*
X99551906Y-94237385D01*
X99638152Y-94352594D01*
X99638155Y-94352597D01*
X99753364Y-94438843D01*
X99753371Y-94438847D01*
X99884781Y-94487860D01*
X99940715Y-94529731D01*
X99965132Y-94595195D01*
X99950280Y-94663468D01*
X99929130Y-94691723D01*
X99807203Y-94813650D01*
X99671665Y-95007219D01*
X99671664Y-95007221D01*
X99597704Y-95165830D01*
X99574130Y-95216385D01*
X99571798Y-95221385D01*
X99571794Y-95221394D01*
X99510638Y-95449636D01*
X99510636Y-95449646D01*
X99490041Y-95685049D01*
X95678607Y-95685049D01*
X97216514Y-94147143D01*
X97293175Y-94032411D01*
X97296517Y-94024344D01*
X97345978Y-93904932D01*
X97345980Y-93904928D01*
X97363146Y-93818630D01*
X97372900Y-93769596D01*
X97372900Y-71385319D01*
X97392585Y-71318280D01*
X97409219Y-71297638D01*
X107657584Y-61049273D01*
X107657586Y-61049271D01*
X107734247Y-60934539D01*
X107735754Y-60930902D01*
X107787050Y-60807060D01*
X107787052Y-60807056D01*
X107813972Y-60671722D01*
X107813972Y-60533734D01*
X107813972Y-52687177D01*
X107833657Y-52620138D01*
X107886461Y-52574383D01*
X107917016Y-52564961D01*
X107971720Y-52555580D01*
X108290228Y-52500967D01*
X108749043Y-52381501D01*
X109196074Y-52223555D01*
X109628100Y-52028267D01*
X110042008Y-51797044D01*
X110434815Y-51531553D01*
X110803681Y-51233714D01*
X110803683Y-51233713D01*
X110803687Y-51233708D01*
X110803692Y-51233705D01*
X111145982Y-50905647D01*
X111459216Y-50549744D01*
X111741140Y-50168558D01*
X111989721Y-49764836D01*
X112203169Y-49341488D01*
X112379945Y-48901563D01*
X112518776Y-48448232D01*
X112618662Y-47984760D01*
X112678883Y-47514486D01*
X112678886Y-47514431D01*
X112699005Y-47040806D01*
X112699005Y-47040793D01*
X117528440Y-47040793D01*
X117528440Y-47040806D01*
X117548558Y-47514431D01*
X117608776Y-47984674D01*
X117708653Y-48448106D01*
X117708655Y-48448114D01*
X117847471Y-48901398D01*
X117847476Y-48901412D01*
X118024227Y-49341271D01*
X118024231Y-49341282D01*
X118237651Y-49764574D01*
X118237661Y-49764594D01*
X118486222Y-50168281D01*
X118768120Y-50549433D01*
X118768126Y-50549441D01*
X118994297Y-50806420D01*
X120786290Y-49014427D01*
X120835680Y-49076360D01*
X121077912Y-49318592D01*
X121139843Y-49367980D01*
X119347455Y-51160368D01*
X119423592Y-51233337D01*
X119423594Y-51233338D01*
X119792424Y-51531148D01*
X119792425Y-51531149D01*
X120185188Y-51796609D01*
X120185207Y-51796621D01*
X120599060Y-52027814D01*
X120599082Y-52027825D01*
X121031051Y-52223088D01*
X121031057Y-52223090D01*
X121478051Y-52381023D01*
X121936823Y-52500477D01*
X122404069Y-52580595D01*
X122404077Y-52580596D01*
X122876418Y-52620799D01*
X122876438Y-52620800D01*
X123350506Y-52620800D01*
X123350525Y-52620799D01*
X123822866Y-52580596D01*
X123822874Y-52580595D01*
X124290120Y-52500477D01*
X124748892Y-52381023D01*
X125195886Y-52223090D01*
X125195892Y-52223088D01*
X125627861Y-52027825D01*
X125627883Y-52027814D01*
X126041736Y-51796621D01*
X126041755Y-51796609D01*
X126434511Y-51531153D01*
X126803358Y-51233331D01*
X126879487Y-51160368D01*
X125087100Y-49367981D01*
X125149032Y-49318592D01*
X125391264Y-49076360D01*
X125440653Y-49014428D01*
X127232645Y-50806420D01*
X127458818Y-50549438D01*
X127458832Y-50549421D01*
X127740721Y-50168281D01*
X127989282Y-49764594D01*
X127989292Y-49764574D01*
X128202712Y-49341282D01*
X128202716Y-49341271D01*
X128379467Y-48901412D01*
X128379472Y-48901398D01*
X128518288Y-48448114D01*
X128518290Y-48448106D01*
X128618167Y-47984674D01*
X128678385Y-47514431D01*
X128698504Y-47040806D01*
X128698504Y-47040793D01*
X141527939Y-47040793D01*
X141527939Y-47040806D01*
X141548059Y-47514473D01*
X141608282Y-47984761D01*
X141708168Y-48448232D01*
X141708170Y-48448240D01*
X141846999Y-48901565D01*
X141847001Y-48901570D01*
X142023770Y-49341477D01*
X142023774Y-49341488D01*
X142237213Y-49764818D01*
X142237223Y-49764836D01*
X142485804Y-50168558D01*
X142767728Y-50549744D01*
X142767733Y-50549749D01*
X142767734Y-50549751D01*
X143080961Y-50905646D01*
X143423260Y-51233713D01*
X143423262Y-51233714D01*
X143792126Y-51531551D01*
X143792127Y-51531552D01*
X143942794Y-51633384D01*
X144184936Y-51797044D01*
X144368895Y-51899809D01*
X144598834Y-52028262D01*
X144598856Y-52028273D01*
X145029837Y-52223088D01*
X145030870Y-52223555D01*
X145477901Y-52381501D01*
X145936716Y-52500967D01*
X146404010Y-52581093D01*
X146550246Y-52593539D01*
X146876396Y-52621299D01*
X146876413Y-52621299D01*
X146876415Y-52621300D01*
X146876416Y-52621300D01*
X147350528Y-52621300D01*
X147350529Y-52621300D01*
X147350530Y-52621299D01*
X147350547Y-52621299D01*
X147631714Y-52597367D01*
X147822934Y-52581093D01*
X148290228Y-52500967D01*
X148749043Y-52381501D01*
X149196074Y-52223555D01*
X149628100Y-52028267D01*
X150042008Y-51797044D01*
X150434815Y-51531553D01*
X150803681Y-51233714D01*
X150803683Y-51233713D01*
X150803687Y-51233708D01*
X150803692Y-51233705D01*
X151145982Y-50905647D01*
X151459216Y-50549744D01*
X151741140Y-50168558D01*
X151989721Y-49764836D01*
X152203169Y-49341488D01*
X152379945Y-48901563D01*
X152518776Y-48448232D01*
X152618662Y-47984760D01*
X152678883Y-47514486D01*
X152678886Y-47514431D01*
X152699005Y-47040806D01*
X152699005Y-47040793D01*
X157528440Y-47040793D01*
X157528440Y-47040806D01*
X157548558Y-47514431D01*
X157608776Y-47984674D01*
X157708653Y-48448106D01*
X157708655Y-48448114D01*
X157847471Y-48901398D01*
X157847476Y-48901412D01*
X158024227Y-49341271D01*
X158024231Y-49341282D01*
X158237651Y-49764574D01*
X158237661Y-49764594D01*
X158486222Y-50168281D01*
X158768120Y-50549433D01*
X158768126Y-50549441D01*
X158994297Y-50806420D01*
X160786290Y-49014427D01*
X160835680Y-49076360D01*
X161077912Y-49318592D01*
X161139843Y-49367980D01*
X159347455Y-51160368D01*
X159423592Y-51233337D01*
X159423594Y-51233338D01*
X159792424Y-51531148D01*
X159792425Y-51531149D01*
X160185188Y-51796609D01*
X160185207Y-51796621D01*
X160599060Y-52027814D01*
X160599082Y-52027825D01*
X161031051Y-52223088D01*
X161031057Y-52223090D01*
X161478051Y-52381023D01*
X161936823Y-52500477D01*
X162404069Y-52580595D01*
X162404077Y-52580596D01*
X162876418Y-52620799D01*
X162876438Y-52620800D01*
X163350506Y-52620800D01*
X163350525Y-52620799D01*
X163822866Y-52580596D01*
X163822874Y-52580595D01*
X164290120Y-52500477D01*
X164748892Y-52381023D01*
X165195886Y-52223090D01*
X165195892Y-52223088D01*
X165627861Y-52027825D01*
X165627883Y-52027814D01*
X166041736Y-51796621D01*
X166041755Y-51796609D01*
X166434511Y-51531153D01*
X166803358Y-51233331D01*
X166879487Y-51160368D01*
X165087100Y-49367981D01*
X165149032Y-49318592D01*
X165391264Y-49076360D01*
X165440653Y-49014428D01*
X167232645Y-50806420D01*
X167458818Y-50549438D01*
X167458832Y-50549421D01*
X167740721Y-50168281D01*
X167989282Y-49764594D01*
X167989292Y-49764574D01*
X168202712Y-49341282D01*
X168202716Y-49341271D01*
X168379467Y-48901412D01*
X168379472Y-48901398D01*
X168518288Y-48448114D01*
X168518290Y-48448106D01*
X168618167Y-47984674D01*
X168678385Y-47514431D01*
X168698504Y-47040806D01*
X168698504Y-47040793D01*
X168678385Y-46567168D01*
X168618167Y-46096925D01*
X168518290Y-45633493D01*
X168518288Y-45633485D01*
X168379472Y-45180201D01*
X168379467Y-45180187D01*
X168202716Y-44740328D01*
X168202712Y-44740317D01*
X167989292Y-44317025D01*
X167989282Y-44317005D01*
X167740721Y-43913318D01*
X167458823Y-43532166D01*
X167458817Y-43532158D01*
X167232645Y-43275178D01*
X165440652Y-45067171D01*
X165391264Y-45005240D01*
X165149032Y-44763008D01*
X165087098Y-44713618D01*
X166879487Y-42921230D01*
X166803351Y-42848262D01*
X166803349Y-42848261D01*
X166434519Y-42550451D01*
X166434518Y-42550450D01*
X166041755Y-42284990D01*
X166041736Y-42284978D01*
X165627883Y-42053785D01*
X165627861Y-42053774D01*
X165195892Y-41858511D01*
X165195886Y-41858509D01*
X164748892Y-41700576D01*
X164290120Y-41581122D01*
X163822874Y-41501004D01*
X163822866Y-41501003D01*
X163350525Y-41460800D01*
X162876418Y-41460800D01*
X162404077Y-41501003D01*
X162404069Y-41501004D01*
X161936823Y-41581122D01*
X161478051Y-41700576D01*
X161031057Y-41858509D01*
X161031051Y-41858511D01*
X160599082Y-42053774D01*
X160599060Y-42053785D01*
X160185207Y-42284978D01*
X160185188Y-42284990D01*
X159792425Y-42550450D01*
X159792424Y-42550451D01*
X159423595Y-42848260D01*
X159423579Y-42848274D01*
X159347456Y-42921231D01*
X161139843Y-44713618D01*
X161077912Y-44763008D01*
X160835680Y-45005240D01*
X160786290Y-45067171D01*
X158994298Y-43275179D01*
X158768120Y-43532166D01*
X158768117Y-43532170D01*
X158486222Y-43913318D01*
X158237661Y-44317005D01*
X158237651Y-44317025D01*
X158024231Y-44740317D01*
X158024227Y-44740328D01*
X157847476Y-45180187D01*
X157847471Y-45180201D01*
X157708655Y-45633485D01*
X157708653Y-45633493D01*
X157608776Y-46096925D01*
X157548558Y-46567168D01*
X157528440Y-47040793D01*
X152699005Y-47040793D01*
X152678884Y-46567126D01*
X152678883Y-46567120D01*
X152678883Y-46567114D01*
X152618662Y-46096840D01*
X152518776Y-45633368D01*
X152379945Y-45180037D01*
X152328987Y-45053224D01*
X152203173Y-44740122D01*
X152203169Y-44740111D01*
X151989730Y-44316781D01*
X151989719Y-44316761D01*
X151771679Y-43962641D01*
X151741140Y-43913042D01*
X151459216Y-43531856D01*
X151145982Y-43175953D01*
X150880210Y-42921231D01*
X150803683Y-42847886D01*
X150803681Y-42847885D01*
X150434817Y-42550048D01*
X150434816Y-42550047D01*
X150042018Y-42284563D01*
X150042008Y-42284556D01*
X150031134Y-42278481D01*
X149628109Y-42053337D01*
X149628087Y-42053326D01*
X149196080Y-41858047D01*
X148749038Y-41700097D01*
X148290226Y-41580632D01*
X147822944Y-41500508D01*
X147822918Y-41500505D01*
X147350547Y-41460300D01*
X147350529Y-41460300D01*
X146876415Y-41460300D01*
X146876396Y-41460300D01*
X146404025Y-41500505D01*
X146403999Y-41500508D01*
X145936717Y-41580632D01*
X145477905Y-41700097D01*
X145030863Y-41858047D01*
X144598856Y-42053326D01*
X144598834Y-42053337D01*
X144184944Y-42284551D01*
X144184925Y-42284563D01*
X143792127Y-42550047D01*
X143792126Y-42550048D01*
X143423262Y-42847885D01*
X143423260Y-42847886D01*
X143080961Y-43175953D01*
X142767734Y-43531848D01*
X142485803Y-43913043D01*
X142237224Y-44316761D01*
X142237213Y-44316781D01*
X142023774Y-44740111D01*
X142023770Y-44740122D01*
X141847001Y-45180029D01*
X141846999Y-45180034D01*
X141708170Y-45633359D01*
X141708168Y-45633367D01*
X141608282Y-46096838D01*
X141548059Y-46567126D01*
X141527939Y-47040793D01*
X128698504Y-47040793D01*
X128678385Y-46567168D01*
X128618167Y-46096925D01*
X128518290Y-45633493D01*
X128518288Y-45633485D01*
X128379472Y-45180201D01*
X128379467Y-45180187D01*
X128202716Y-44740328D01*
X128202712Y-44740317D01*
X127989292Y-44317025D01*
X127989282Y-44317005D01*
X127740721Y-43913318D01*
X127458823Y-43532166D01*
X127458817Y-43532158D01*
X127232645Y-43275178D01*
X125440652Y-45067171D01*
X125391264Y-45005240D01*
X125149032Y-44763008D01*
X125087098Y-44713618D01*
X126879487Y-42921230D01*
X126803351Y-42848262D01*
X126803349Y-42848261D01*
X126434519Y-42550451D01*
X126434518Y-42550450D01*
X126041755Y-42284990D01*
X126041736Y-42284978D01*
X125627883Y-42053785D01*
X125627861Y-42053774D01*
X125195892Y-41858511D01*
X125195886Y-41858509D01*
X124748892Y-41700576D01*
X124290120Y-41581122D01*
X123822874Y-41501004D01*
X123822866Y-41501003D01*
X123350525Y-41460800D01*
X122876418Y-41460800D01*
X122404077Y-41501003D01*
X122404069Y-41501004D01*
X121936823Y-41581122D01*
X121478051Y-41700576D01*
X121031057Y-41858509D01*
X121031051Y-41858511D01*
X120599082Y-42053774D01*
X120599060Y-42053785D01*
X120185207Y-42284978D01*
X120185188Y-42284990D01*
X119792425Y-42550450D01*
X119792424Y-42550451D01*
X119423595Y-42848260D01*
X119423579Y-42848274D01*
X119347456Y-42921231D01*
X121139843Y-44713618D01*
X121077912Y-44763008D01*
X120835680Y-45005240D01*
X120786290Y-45067171D01*
X118994298Y-43275179D01*
X118768120Y-43532166D01*
X118768117Y-43532170D01*
X118486222Y-43913318D01*
X118237661Y-44317005D01*
X118237651Y-44317025D01*
X118024231Y-44740317D01*
X118024227Y-44740328D01*
X117847476Y-45180187D01*
X117847471Y-45180201D01*
X117708655Y-45633485D01*
X117708653Y-45633493D01*
X117608776Y-46096925D01*
X117548558Y-46567168D01*
X117528440Y-47040793D01*
X112699005Y-47040793D01*
X112678884Y-46567126D01*
X112678883Y-46567120D01*
X112678883Y-46567114D01*
X112618662Y-46096840D01*
X112518776Y-45633368D01*
X112379945Y-45180037D01*
X112328987Y-45053224D01*
X112203173Y-44740122D01*
X112203169Y-44740111D01*
X111989730Y-44316781D01*
X111989719Y-44316761D01*
X111771679Y-43962641D01*
X111741140Y-43913042D01*
X111459216Y-43531856D01*
X111145982Y-43175953D01*
X110880210Y-42921231D01*
X110803683Y-42847886D01*
X110803681Y-42847885D01*
X110434817Y-42550048D01*
X110434816Y-42550047D01*
X110042018Y-42284563D01*
X110042008Y-42284556D01*
X110031134Y-42278481D01*
X109628109Y-42053337D01*
X109628087Y-42053326D01*
X109196080Y-41858047D01*
X108749038Y-41700097D01*
X108290226Y-41580632D01*
X107822944Y-41500508D01*
X107822918Y-41500505D01*
X107350547Y-41460300D01*
X107350529Y-41460300D01*
X106876415Y-41460300D01*
X106876396Y-41460300D01*
X106404025Y-41500505D01*
X106403999Y-41500508D01*
X105936717Y-41580632D01*
X105477905Y-41700097D01*
X105030863Y-41858047D01*
X104598856Y-42053326D01*
X104598834Y-42053337D01*
X104184944Y-42284551D01*
X104184925Y-42284563D01*
X103792127Y-42550047D01*
X103792126Y-42550048D01*
X103423262Y-42847885D01*
X103423260Y-42847886D01*
X103080961Y-43175953D01*
X102767734Y-43531848D01*
X102485803Y-43913043D01*
X102237224Y-44316761D01*
X102237213Y-44316781D01*
X102023774Y-44740111D01*
X102023770Y-44740122D01*
X101847001Y-45180029D01*
X101846999Y-45180034D01*
X101708170Y-45633359D01*
X101708168Y-45633367D01*
X101608282Y-46096838D01*
X101548059Y-46567126D01*
X101527939Y-47040793D01*
X101527939Y-47040806D01*
X101548059Y-47514473D01*
X101608282Y-47984761D01*
X101708168Y-48448232D01*
X101708170Y-48448240D01*
X101846999Y-48901565D01*
X101847001Y-48901570D01*
X102023770Y-49341477D01*
X102023774Y-49341488D01*
X102237213Y-49764818D01*
X102237223Y-49764836D01*
X102485804Y-50168558D01*
X102767728Y-50549744D01*
X102767733Y-50549749D01*
X102767734Y-50549751D01*
X103080961Y-50905646D01*
X103423260Y-51233713D01*
X103423262Y-51233714D01*
X103792126Y-51531551D01*
X103792127Y-51531552D01*
X103942794Y-51633384D01*
X104184936Y-51797044D01*
X104368895Y-51899809D01*
X104598834Y-52028262D01*
X104598856Y-52028273D01*
X105029837Y-52223088D01*
X105030870Y-52223555D01*
X105477901Y-52381501D01*
X105936716Y-52500967D01*
X106214505Y-52548598D01*
X106309928Y-52564961D01*
X106372677Y-52595692D01*
X106408849Y-52655469D01*
X106412972Y-52687177D01*
X106412972Y-60261208D01*
X106393287Y-60328247D01*
X106376653Y-60348889D01*
X96128288Y-70597253D01*
X96128287Y-70597254D01*
X96051622Y-70711992D01*
X95998821Y-70839467D01*
X95998820Y-70839471D01*
X95998820Y-70839472D01*
X95981319Y-70927457D01*
X95981319Y-70927458D01*
X95971900Y-70974806D01*
X95971900Y-93359081D01*
X95952215Y-93426120D01*
X95935581Y-93446762D01*
X91402426Y-97979916D01*
X91341103Y-98013401D01*
X91340526Y-98013525D01*
X91185597Y-98046455D01*
X91185592Y-98046457D01*
X91012670Y-98123448D01*
X91012665Y-98123451D01*
X90859529Y-98234711D01*
X90732866Y-98375385D01*
X90638221Y-98539315D01*
X90638218Y-98539322D01*
X90589678Y-98688714D01*
X90579726Y-98719344D01*
X90559940Y-98907600D01*
X89029800Y-98907600D01*
X89029800Y-62179200D01*
X86030518Y-62179200D01*
X86029043Y-62179191D01*
X85819726Y-62176701D01*
X85809414Y-62176148D01*
X85391874Y-62136277D01*
X85380194Y-62134598D01*
X84969083Y-62055364D01*
X84957615Y-62052582D01*
X84555893Y-61934625D01*
X84544742Y-61930766D01*
X84156045Y-61775155D01*
X84145311Y-61770253D01*
X83773159Y-61578396D01*
X83762951Y-61572502D01*
X83410738Y-61346148D01*
X83401126Y-61339304D01*
X83072004Y-61080480D01*
X83063086Y-61072752D01*
X82760073Y-60783830D01*
X82751930Y-60775290D01*
X82477746Y-60458864D01*
X82470452Y-60449588D01*
X82384045Y-60328247D01*
X82227591Y-60108539D01*
X82221215Y-60098617D01*
X82208523Y-60076634D01*
X82011870Y-59736020D01*
X82006465Y-59725535D01*
X81994991Y-59700410D01*
X81832533Y-59344679D01*
X81828150Y-59333729D01*
X81691210Y-58938065D01*
X81687893Y-58926769D01*
X81589178Y-58519865D01*
X81586946Y-58508279D01*
X81527361Y-58093860D01*
X81526239Y-58082113D01*
X81524055Y-58036273D01*
X81506318Y-57663899D01*
X81506318Y-57653255D01*
X82316766Y-57653255D01*
X82316766Y-57653256D01*
X82337063Y-58040543D01*
X82397730Y-58423579D01*
X82397731Y-58423586D01*
X82498106Y-58798192D01*
X82637088Y-59160250D01*
X82813154Y-59505799D01*
X83024367Y-59831039D01*
X83024369Y-59831041D01*
X83232940Y-60088604D01*
X84727591Y-58593953D01*
X84801432Y-58695586D01*
X84979514Y-58873668D01*
X85081145Y-58947507D01*
X83586494Y-60442158D01*
X83844058Y-60650731D01*
X83844060Y-60650732D01*
X84169300Y-60861945D01*
X84514849Y-61038011D01*
X84876907Y-61176993D01*
X85251513Y-61277368D01*
X85251520Y-61277369D01*
X85634556Y-61338036D01*
X86021843Y-61358334D01*
X86021845Y-61358334D01*
X86409131Y-61338036D01*
X86792167Y-61277369D01*
X86792174Y-61277368D01*
X87166780Y-61176993D01*
X87528838Y-61038011D01*
X87874387Y-60861945D01*
X88199615Y-60650740D01*
X88199628Y-60650730D01*
X88457192Y-60442158D01*
X86962542Y-58947508D01*
X87064174Y-58873668D01*
X87242256Y-58695586D01*
X87316096Y-58593954D01*
X88810746Y-60088604D01*
X89019318Y-59831040D01*
X89019328Y-59831027D01*
X89230533Y-59505799D01*
X89406599Y-59160250D01*
X89545581Y-58798192D01*
X89645956Y-58423586D01*
X89645957Y-58423579D01*
X89706624Y-58040543D01*
X89726922Y-57653256D01*
X89726922Y-57653255D01*
X89706624Y-57265968D01*
X89645957Y-56882932D01*
X89645956Y-56882925D01*
X89545581Y-56508319D01*
X89406599Y-56146261D01*
X89230533Y-55800712D01*
X89019320Y-55475472D01*
X89019319Y-55475470D01*
X88810746Y-55217906D01*
X87316095Y-56712557D01*
X87242256Y-56610926D01*
X87064174Y-56432844D01*
X86962542Y-56359004D01*
X88457193Y-54864352D01*
X88199629Y-54655781D01*
X88199627Y-54655779D01*
X87874387Y-54444566D01*
X87528838Y-54268500D01*
X87166780Y-54129518D01*
X86792174Y-54029143D01*
X86792167Y-54029142D01*
X86409131Y-53968475D01*
X86021845Y-53948178D01*
X86021843Y-53948178D01*
X85634556Y-53968475D01*
X85251520Y-54029142D01*
X85251513Y-54029143D01*
X84876907Y-54129518D01*
X84514849Y-54268500D01*
X84169300Y-54444566D01*
X83844050Y-54655787D01*
X83586493Y-54864351D01*
X83586493Y-54864352D01*
X85081145Y-56359004D01*
X84979514Y-56432844D01*
X84801432Y-56610926D01*
X84727592Y-56712557D01*
X83232940Y-55217905D01*
X83232939Y-55217905D01*
X83024375Y-55475462D01*
X82813154Y-55800712D01*
X82637088Y-56146261D01*
X82498106Y-56508319D01*
X82397731Y-56882925D01*
X82397730Y-56882932D01*
X82337063Y-57265968D01*
X82316766Y-57653255D01*
X81506318Y-57653255D01*
X81506318Y-57652100D01*
X81524711Y-57265968D01*
X81526239Y-57233883D01*
X81527361Y-57222139D01*
X81586946Y-56807716D01*
X81589179Y-56796133D01*
X81687894Y-56389224D01*
X81691208Y-56377940D01*
X81828155Y-55982256D01*
X81832530Y-55971327D01*
X82006470Y-55590452D01*
X82011866Y-55579987D01*
X82221224Y-55217366D01*
X82227585Y-55207469D01*
X82470457Y-54866403D01*
X82477740Y-54857142D01*
X82751938Y-54540699D01*
X82760064Y-54532177D01*
X83063097Y-54243236D01*
X83071993Y-54235528D01*
X83401128Y-53976692D01*
X83410726Y-53969859D01*
X83762966Y-53743487D01*
X83773141Y-53737613D01*
X84145320Y-53545741D01*
X84156035Y-53540848D01*
X84544757Y-53385227D01*
X84555877Y-53381379D01*
X84957634Y-53263412D01*
X84969063Y-53260639D01*
X85380198Y-53181400D01*
X85391874Y-53179722D01*
X85809414Y-53139851D01*
X85819716Y-53139298D01*
X86024974Y-53136857D01*
X86029044Y-53136809D01*
X86030518Y-53136800D01*
X94538778Y-53136800D01*
X94538800Y-53136800D01*
X94747716Y-53134388D01*
X95115923Y-53100268D01*
X95163757Y-53095836D01*
X95163758Y-53095836D01*
X95163760Y-53095835D01*
X95163766Y-53095835D01*
X95574484Y-53019058D01*
X95976366Y-52904713D01*
X96365983Y-52753775D01*
X96740011Y-52567531D01*
X97095259Y-52347571D01*
X97428697Y-52095770D01*
X97737478Y-51814278D01*
X98018970Y-51505497D01*
X98270771Y-51172059D01*
X98490731Y-50816811D01*
X98676975Y-50442783D01*
X98827913Y-50053166D01*
X98942258Y-49651284D01*
X99019035Y-49240566D01*
X99057588Y-48824516D01*
X99060000Y-48615600D01*
X99060000Y-47041345D01*
X99060005Y-47040239D01*
X99062530Y-46757196D01*
X99062841Y-46749456D01*
X99103267Y-46184222D01*
X99104208Y-46175470D01*
X99184779Y-45615084D01*
X99186346Y-45606403D01*
X99306682Y-45053224D01*
X99308870Y-45044655D01*
X99468368Y-44501456D01*
X99471144Y-44493113D01*
X99669000Y-43962641D01*
X99672361Y-43954528D01*
X99907551Y-43439532D01*
X99911491Y-43431661D01*
X100182815Y-42934770D01*
X100187310Y-42927194D01*
X100493406Y-42450898D01*
X100498410Y-42443692D01*
X100837686Y-41990471D01*
X100843218Y-41983606D01*
X101213970Y-41555736D01*
X101219976Y-41549286D01*
X101620286Y-41148976D01*
X101626736Y-41142970D01*
X102054606Y-40772218D01*
X102061471Y-40766686D01*
X102514692Y-40427410D01*
X102521898Y-40422406D01*
X102998194Y-40116310D01*
X103005770Y-40111815D01*
X103502661Y-39840491D01*
X103510532Y-39836551D01*
X104025528Y-39601361D01*
X104033641Y-39598000D01*
X104564113Y-39400144D01*
X104572456Y-39397368D01*
X105115663Y-39237867D01*
X105124224Y-39235682D01*
X105677403Y-39115346D01*
X105686084Y-39113779D01*
X106246470Y-39033208D01*
X106255222Y-39032267D01*
X106820469Y-38991840D01*
X106828182Y-38991530D01*
X107111240Y-38989005D01*
X107112346Y-38989000D01*
X219099854Y-38989000D01*
X219100960Y-38989005D01*
G37*
%TD.AperFunction*%
%TD*%
M02*
