M48
; DRILL file {KiCad 8.0.7} date 2024-12-10T19:07:20+0800
; FORMAT={-:-/ absolute / inch / decimal}
; #@! TF.CreationDate,2024-12-10T19:07:20+08:00
; #@! TF.GenerationSoftware,Kicad,Pcbnew,8.0.7
; #@! TF.FileFunction,Plated,1,2,PTH
FMAT,2
INCH
; #@! TA.AperFunction,Plated,PTH,ViaDrill
T1C0.0157
; #@! TA.AperFunction,Plated,PTH,ComponentDrill
T2C0.0197
; #@! TA.AperFunction,Plated,PTH,ComponentDrill
T3C0.0394
; #@! TA.AperFunction,Plated,PTH,ComponentDrill
T4C0.1260
; #@! TA.AperFunction,Plated,PTH,ComponentDrill
T5C0.2402
%
G90
G05
T1
X3.601Y-3.894
X4.23Y-3.82
X4.399Y-3.486
X4.443Y-3.092
X4.451Y-3.507
X4.4765Y-3.0635
X4.5053Y-2.8212
X4.5059Y-2.9002
X4.508Y-3.032
X4.643Y-3.041
X4.672Y-3.012
X4.7Y-3.5
X4.705Y-2.835
X4.755Y-2.57
X4.7945Y-3.3295
X4.864Y-3.26
X4.91Y-3.46
X5.015Y-2.707
X5.13Y-3.45
X5.132Y-3.163
X5.154Y-3.098
X5.2Y-2.9
X5.2425Y-3.4385
X5.3Y-2.8
X5.389Y-2.483
X5.4Y-2.7
X5.5Y-2.6
X5.657Y-3.205
X5.69Y-3.259
X5.7Y-2.4
X6.107Y-4.381
X6.192Y-4.558
X6.245Y-4.558
X6.248Y-2.347
X6.249Y-2.409
X6.258Y-4.12
X6.258Y-4.314
X6.284Y-3.83
X6.291Y-4.357
X6.297Y-3.006
X6.323Y-3.862
X6.375Y-4.064
X6.4125Y-3.1795
X6.44Y-3.807
X6.445Y-3.147
X6.476Y-2.838
X6.5412Y-2.969
X6.542Y-4.061
X6.57Y-4.45
X6.58Y-4.3
X6.62Y-4.15
X6.69Y-4.08
X6.69Y-4.22
X6.716Y-2.893
X6.72Y-4.33
X6.76Y-3.88
X6.8Y-4.12
X6.808Y-2.969
X6.831Y-2.575
X6.86Y-3.89
X6.86Y-4.19
X6.958Y-2.805
X6.96Y-3.88
X7.01Y-2.889
X7.276Y-2.658
X7.365Y-2.66
X7.471Y-2.497
X7.513Y-2.47
X7.647Y-4.426
X7.861Y-4.472
X7.927Y-4.373
X7.96Y-4.18
X8.033Y-4.458
X8.087Y-4.189
X8.148Y-4.472
X8.22Y-4.349
X8.226Y-4.472
X8.229Y-2.715
X8.255Y-4.189
X8.349Y-4.49
X8.4674Y-2.79
X8.4738Y-4.118
X8.486Y-4.281
X8.532Y-4.148
X8.558Y-4.4556
X8.638Y-4.446
X8.641Y-2.784
X8.6625Y-4.293
T2
X3.2917Y-5.1768
X3.2922Y-2.2698
X3.3194Y-5.11
X3.3194Y-5.2436
X3.3199Y-2.203
X3.3199Y-2.3366
X3.3862Y-5.0823
X3.3862Y-5.2713
X3.3867Y-2.1753
X3.3867Y-2.3643
X3.453Y-5.11
X3.453Y-5.2436
X3.4535Y-2.203
X3.4535Y-2.3366
X3.4807Y-5.1768
X3.4812Y-2.2698
X9.2842Y-5.1768
X9.285Y-2.2698
X9.3119Y-5.11
X9.3119Y-5.2436
X9.3127Y-2.203
X9.3127Y-2.3366
X9.3787Y-5.0823
X9.3787Y-5.2713
X9.3795Y-2.1753
X9.3795Y-2.3643
X9.4455Y-5.11
X9.4455Y-5.2436
X9.4463Y-2.203
X9.4463Y-2.3366
X9.4732Y-5.1768
X9.474Y-2.2698
T3
X3.9703Y-3.6671
X3.9703Y-3.7671
X3.9703Y-3.8671
X3.9703Y-3.9671
X3.9703Y-4.0671
X3.9703Y-4.4727
X3.9703Y-4.5727
X3.9703Y-4.6727
X4.0703Y-3.6671
X4.0703Y-3.7671
X4.0703Y-3.8671
X4.0703Y-3.9671
X4.0703Y-4.0671
X4.0703Y-4.4727
X4.0703Y-4.5727
X4.0703Y-4.6727
X4.7945Y-3.6669
X4.7945Y-3.7669
X4.7945Y-3.8669
X4.7945Y-3.9669
X4.7945Y-4.0669
X4.8015Y-4.3681
X4.8015Y-4.4681
X4.8015Y-4.5681
X4.8015Y-4.6681
X4.8015Y-4.7681
X4.8945Y-3.6669
X4.8945Y-3.7669
X4.8945Y-3.8669
X4.8945Y-3.9669
X4.8945Y-4.0669
X4.9015Y-4.3681
X4.9015Y-4.4681
X4.9015Y-4.5681
X4.9015Y-4.6681
X4.9015Y-4.7681
X5.5315Y-2.219
X5.5315Y-2.319
X5.6315Y-2.219
X5.6315Y-2.319
X6.7075Y-3.62
X6.7075Y-3.72
X6.8075Y-3.62
X6.8075Y-3.72
X6.9075Y-3.62
X6.9075Y-3.72
X7.0075Y-3.62
X7.0075Y-3.72
X7.6005Y-2.224
X7.6005Y-2.324
X7.7005Y-2.224
X7.7005Y-2.324
T4
X3.3862Y-5.1768
X3.3867Y-2.2698
X9.3787Y-5.1768
X9.3795Y-2.2698
T5
X4.2171Y-1.852
X4.847Y-1.852
X5.7919Y-1.852
X6.4218Y-1.852
X7.0517Y-1.852
X7.9966Y-1.852
X8.6265Y-1.852
M30
