%TF.GenerationSoftware,KiCad,Pcbnew,8.0.7*%
%TF.CreationDate,2024-12-10T19:07:20+08:00*%
%TF.ProjectId,RangkaianOpAmp,52616e67-6b61-4696-916e-4f70416d702e,rev?*%
%TF.SameCoordinates,Original*%
%TF.FileFunction,Drillmap*%
%TF.FilePolarity,Positive*%
%FSLAX45Y45*%
G04 Gerber Fmt 4.5, Leading zero omitted, Abs format (unit mm)*
G04 Created by KiCad (PCBNEW 8.0.7) date 2024-12-10 19:07:20*
%MOMM*%
%LPD*%
G01*
G04 APERTURE LIST*
%ADD10C,0.100000*%
%ADD11C,0.200000*%
G04 APERTURE END LIST*
D10*
X23835360Y-12694806D02*
X23535360Y-12694806D01*
X23830280Y-6218034D02*
X23530280Y-6218034D01*
X8602980Y-6217920D02*
X8902980Y-6217920D01*
X8602980Y-12694806D02*
X8902980Y-12694806D01*
X9453880Y-5313680D02*
X8602980Y-5313680D01*
X21910040Y-3898900D02*
X10711180Y-3898900D01*
X23840440Y-5313680D02*
X23167340Y-5313680D01*
X21910040Y-3898900D02*
G75*
G02*
X22715220Y-4704080I0J-805180D01*
G01*
X23167340Y-5313680D02*
G75*
G02*
X22715220Y-4861560I0J452120D01*
G01*
X22715220Y-4704080D02*
X22715220Y-4861560D01*
X9906000Y-4704080D02*
X9906000Y-4861560D01*
X9906000Y-4861560D02*
G75*
G02*
X9453880Y-5313680I-452120J0D01*
G01*
X9906000Y-4704080D02*
G75*
G02*
X10711180Y-3898900I805180J0D01*
G01*
X8902980Y-12694806D02*
X8902980Y-6217920D01*
X8592820Y-13599160D02*
X23825200Y-13599160D01*
X23535360Y-12694806D02*
X23530280Y-6218034D01*
X8592820Y-13599160D02*
G75*
G02*
X8602980Y-12694806I10160J452120D01*
G01*
X23835360Y-12694806D02*
G75*
G02*
X23825200Y-13599160I-10160J-452120D01*
G01*
X23840440Y-5313680D02*
G75*
G02*
X23830280Y-6218034I-10160J-452120D01*
G01*
X8602980Y-6217920D02*
G75*
G02*
X8602980Y-5313680I0J452120D01*
G01*
D11*
X8406523Y-13915644D02*
X8406523Y-13715644D01*
X8406523Y-13715644D02*
X8454142Y-13715644D01*
X8454142Y-13715644D02*
X8482713Y-13725168D01*
X8482713Y-13725168D02*
X8501761Y-13744215D01*
X8501761Y-13744215D02*
X8511285Y-13763263D01*
X8511285Y-13763263D02*
X8520808Y-13801358D01*
X8520808Y-13801358D02*
X8520808Y-13829929D01*
X8520808Y-13829929D02*
X8511285Y-13868025D01*
X8511285Y-13868025D02*
X8501761Y-13887072D01*
X8501761Y-13887072D02*
X8482713Y-13906120D01*
X8482713Y-13906120D02*
X8454142Y-13915644D01*
X8454142Y-13915644D02*
X8406523Y-13915644D01*
X8606523Y-13915644D02*
X8606523Y-13782310D01*
X8606523Y-13820406D02*
X8616047Y-13801358D01*
X8616047Y-13801358D02*
X8625570Y-13791834D01*
X8625570Y-13791834D02*
X8644618Y-13782310D01*
X8644618Y-13782310D02*
X8663666Y-13782310D01*
X8730332Y-13915644D02*
X8730332Y-13782310D01*
X8730332Y-13715644D02*
X8720808Y-13725168D01*
X8720808Y-13725168D02*
X8730332Y-13734691D01*
X8730332Y-13734691D02*
X8739856Y-13725168D01*
X8739856Y-13725168D02*
X8730332Y-13715644D01*
X8730332Y-13715644D02*
X8730332Y-13734691D01*
X8854142Y-13915644D02*
X8835094Y-13906120D01*
X8835094Y-13906120D02*
X8825570Y-13887072D01*
X8825570Y-13887072D02*
X8825570Y-13715644D01*
X8958904Y-13915644D02*
X8939856Y-13906120D01*
X8939856Y-13906120D02*
X8930332Y-13887072D01*
X8930332Y-13887072D02*
X8930332Y-13715644D01*
X9187475Y-13915644D02*
X9187475Y-13715644D01*
X9187475Y-13715644D02*
X9254142Y-13858501D01*
X9254142Y-13858501D02*
X9320808Y-13715644D01*
X9320808Y-13715644D02*
X9320808Y-13915644D01*
X9501761Y-13915644D02*
X9501761Y-13810882D01*
X9501761Y-13810882D02*
X9492237Y-13791834D01*
X9492237Y-13791834D02*
X9473189Y-13782310D01*
X9473189Y-13782310D02*
X9435094Y-13782310D01*
X9435094Y-13782310D02*
X9416047Y-13791834D01*
X9501761Y-13906120D02*
X9482713Y-13915644D01*
X9482713Y-13915644D02*
X9435094Y-13915644D01*
X9435094Y-13915644D02*
X9416047Y-13906120D01*
X9416047Y-13906120D02*
X9406523Y-13887072D01*
X9406523Y-13887072D02*
X9406523Y-13868025D01*
X9406523Y-13868025D02*
X9416047Y-13848977D01*
X9416047Y-13848977D02*
X9435094Y-13839453D01*
X9435094Y-13839453D02*
X9482713Y-13839453D01*
X9482713Y-13839453D02*
X9501761Y-13829929D01*
X9596999Y-13782310D02*
X9596999Y-13982310D01*
X9596999Y-13791834D02*
X9616047Y-13782310D01*
X9616047Y-13782310D02*
X9654142Y-13782310D01*
X9654142Y-13782310D02*
X9673189Y-13791834D01*
X9673189Y-13791834D02*
X9682713Y-13801358D01*
X9682713Y-13801358D02*
X9692237Y-13820406D01*
X9692237Y-13820406D02*
X9692237Y-13877548D01*
X9692237Y-13877548D02*
X9682713Y-13896596D01*
X9682713Y-13896596D02*
X9673189Y-13906120D01*
X9673189Y-13906120D02*
X9654142Y-13915644D01*
X9654142Y-13915644D02*
X9616047Y-13915644D01*
X9616047Y-13915644D02*
X9596999Y-13906120D01*
X9777951Y-13896596D02*
X9787475Y-13906120D01*
X9787475Y-13906120D02*
X9777951Y-13915644D01*
X9777951Y-13915644D02*
X9768428Y-13906120D01*
X9768428Y-13906120D02*
X9777951Y-13896596D01*
X9777951Y-13896596D02*
X9777951Y-13915644D01*
X9777951Y-13791834D02*
X9787475Y-13801358D01*
X9787475Y-13801358D02*
X9777951Y-13810882D01*
X9777951Y-13810882D02*
X9768428Y-13801358D01*
X9768428Y-13801358D02*
X9777951Y-13791834D01*
X9777951Y-13791834D02*
X9777951Y-13810882D01*
M02*
